<svg xmlns="http://www.w3.org/2000/svg" xmlns:xlink="http://www.w3.org/1999/xlink" xmlns:inkscape="http://www.inkscape.org/namespaces/inkscape" version="1.1" width="429" height="287" viewBox="0 0 429 287">
<defs>
<path id="font_1_1" d="M.38198854 .3803711C.36299134 .41638185 .33198548 .4423828 .2869873 .4423828 .17098999 .4423828 .041992189 .30433656 .041992189 .1512909 .041992189 .041259767 .11199951-.0107421879 .1789856-.0107421879 .24398804-.0107421879 .29699708 .043258668 .31298829 .06227112 .32398988 .007247925 .37399293-.0107421879 .4059906-.0107421879 .43499757-.0107421879 .45999146 .002243042 .48199464 .044265748 .5 .07727051 .5139923 .13928223 .5139923 .14329529 .5139923 .14828491 .5109863 .1552887 .5009918 .1552887 .4889984 .1552887 .48799134 .15029907 .48399354 .13128662 .46199037 .044265748 .43998719 .014251709 .40899659 .014251709 .38398744 .014251709 .37799073 .038253786 .37799073 .060272218 .37799073 .07926941 .3829956 .09927368 .3919983 .1342926L.4169922 .23731995C.42399598 .2623291 .44198609 .33735658 .44599916 .35235597 .44999696 .36636354 .45599366 .3903656 .45599366 .39337159 .45599366 .40937806 .44299317 .42237855 .4249878 .42237855 .4119873 .42237855 .3869934 .41438294 .38198854 .3803711M.31698609 .122283939C.31199647 .103271488 .31199647 .10227966 .29599 .08326721 .2599945 .040252687 .21899414 .014251709 .18199158 .014251709 .1329956 .014251709 .115997318 .06526184 .115997318 .10827637 .115997318 .15730286 .14498902 .27233888 .16899109 .32034303 .20098877 .3803711 .24699402 .41737367 .2869873 .41737367 .35398866 .41737367 .36898805 .33735658 .36898805 .33035279 .36898805 .3253479 .36698915 .3193512 .3659973 .31533814L.31698609 .122283939Z"/>
<path id="font_2_1" d="M.70799258 .3310089C.7220001 .3310089 .7409973 .3310089 .7409973 .35202027 .7409973 .37402345 .71899417 .37402345 .70399478 .37402345H.09399414C.07899475 .37402345 .056991579 .37402345 .056991579 .35202027 .056991579 .3310089 .07699585 .3310089 .08999634 .3310089H.70799258M.70399478 .12695313C.71899417 .12695313 .7409973 .12695313 .7409973 .14894104 .7409973 .1699524 .7220001 .1699524 .70799258 .1699524H.08999634C.07699585 .1699524 .056991579 .1699524 .056991579 .14894104 .056991579 .12695313 .07899475 .12695313 .09399414 .12695313H.70399478Z"/>
<path id="font_1_2" d="M.23899842 .6603241C.24299622 .67433169 .24299622 .67633059 .24299622 .68032839 .24299622 .68933108 .23699951 .69433596 .22799683 .69433596 .21398926 .69433596 .12599182 .6863251 .10598755 .6843262 .09599304 .68333438 .084991458 .6823273 .084991458 .665329 .084991458 .6523285 .09599304 .6523285 .11199951 .6523285 .15899658 .6523285 .15899658 .6453247 .15899658 .6363373 .15899658 .6303406 .15899658 .6283264 .1519928 .6013336L.09899902 .3903656C.084991458 .3343506 .07199097 .28334046 .06098938 .23631287 .053985597 .21131897 .04699707 .18130493 .04699707 .14929199 .04699707 .06326294 .09498596-.0107421879 .18099976-.0107421879 .2979889-.0107421879 .42599488 .13027954 .42599488 .28033448 .42599488 .38237 .36299134 .4423828 .28799439 .4423828 .23699951 .4423828 .19299317 .40737916 .16999817 .38536073L.23899842 .6603241M.1559906 .32835389C.18399048 .36836244 .23498535 .41737367 .28599549 .41737367 .33299256 .41737367 .35198976 .37036134 .35198976 .323349 .35198976 .27833558 .32398988 .15429688 .29299928 .10127258 .2559967 .037261964 .21199036 .014251709 .18099976 .014251709 .1309967 .014251709 .11099243 .06427002 .11099243 .11528015 .11099243 .15029907 .117996219 .17730713 .14099121 .2683258L.1559906 .32835389Z"/>
<path id="font_1_3" d="M.4019928 .38200379C.3639984 .38101197 .34399415 .352005 .34399415 .3270111 .34399415 .29800416 .36999513 .29101563 .38198854 .29101563 .4019928 .29101563 .43798829 .30801393 .43798829 .355011 .43798829 .40827943 .3849945 .4423828 .31599427 .4423828 .17999268 .4423828 .042999269 .30400086 .042999269 .16012573 .042999269 .06021118 .10998535-.0107421879 .21099854-.0107421879 .36099244-.0107421879 .44499208 .093185428 .44499208 .106170658 .44499208 .11216736 .43798829 .120162967 .43099977 .120162967 .42599488 .120162967 .4249878 .119155887 .41600038 .108169559 .35598756 .034225465 .2649994 .014251709 .21299744 .014251709 .15699768 .014251709 .11999512 .051223756 .11999512 .12315369 .11999512 .16612244 .13899231 .2650299 .1789856 .32901 .20199585 .3650055 .2539978 .41737367 .31698609 .41737367 .33599855 .41737367 .37799073 .41333009 .4019928 .38200379Z"/>
<path id="font_3_104" d="M.7919922 .47280885 .81999209 .65075686 .82199099 .66275027C.82199099 .6767578 .81199648 .6767578 .79499819 .6767578H.2709961C.25 .6767578 .24699402 .6767578 .24099732 .65875247L.18099976 .47880555 .1769867 .46481324C.1769867 .451828 .18899536 .451828 .19299317 .451828 .19699097 .451828 .20199585 .451828 .20498657 .45481874 .20799256 .45681764 .20799256 .45881654 .21699524 .4828186 .2669983 .6257477 .2919922 .64575198 .42599488 .64575198 .44499208 .64575198 .46798707 .64575198 .48399354 .642746 .48399354 .6317444 .48399354 .6297455 .47999574 .61476138L.34599305 .07698059C.33699037 .041992189 .32998658 .0309906 .23999024 .0309906H.22599793C.20999146 .0309906 .19699097 .0309906 .19699097 .0129852299 .19699097 0 .21099854 0 .21398926 0 .2639923 0 .31698609 .0029907227 .36799623 .0029907227 .4189911 .0029907227 .47299195 0 .522995 0 .5309906 0 .5439911 0 .5439911 .017990113 .5439911 .0309906 .5339966 .0309906 .5179901 .0309906H.5029907C.48799134 .0309906 .46798707 .03199768 .45298768 .032989503 .42999269 .035995485 .42199708 .036987306 .42199708 .052978517 .42199708 .05697632 .42199708 .05897522 .42599488 .07298279L.55999758 .61076357C.5669861 .63975527 .57398989 .642746 .58299258 .64375308 .58999636 .64575198 .61898806 .64575198 .6369934 .64575198 .73298647 .64575198 .7679901 .63775637 .7679901 .56977847 .7679901 .5437927 .7609863 .49780274 .7599945 .48980714 .7589874 .4848175 .7559967 .46881105 .7559967 .46481324 .7559967 .451828 .769989 .451828 .772995 .451828 .7849884 .451828 .78900149 .4538269 .7919922 .47280885Z"/>
<path id="font_3_63" d="M.5509949 .14329529C.5509949 .1552887 .5379944 .1552887 .5339966 .1552887 .519989 .1552887 .5189972 .15229798 .5130005 .13128662 .5029907 .09527588 .47499085 .014251709 .42099 .014251709 .41299439 .014251709 .3999939 .01524353 .3999939 .042251588 .3999939 .06626892 .4119873 .09828186 .41999818 .120285037 .43798829 .16830445 .47898866 .2793274 .47898866 .3363495 .47898866 .4033661 .43899537 .4423828 .36898805 .4423828 .31399537 .4423828 .269989 .41737367 .23498535 .3803711L.30499269 .66230776C.30799867 .67630007 .30899049 .6773071 .30899049 .68029788 .30899049 .69329836 .2999878 .6953125 .2829895 .69329836L.1789856 .6843109C.1639862 .68330386 .1539917 .682312 .1539917 .66529849 .1539917 .652298 .1639862 .652298 .18099976 .652298 .22799683 .652298 .22799683 .64430239 .22799683 .63531497 .22799683 .63531497 .22799683 .62831118 .22399903 .61331179L.07998657 .037261964C.07598877 .023254395 .07598877 .021255494 .07598877 .01725769 .07598877 .002243042 .08699036-.0107421879 .10598755-.0107421879 .13699341-.0107421879 .14299011 .014251709 .1499939 .044265748 .1619873 .08728027 .1619873 .089279178 .17199707 .13027954L.20399475 .2603302C.21499634 .30134584 .23498535 .33935548 .2649994 .3693695 .27999879 .3843689 .31298829 .41737367 .36698915 .41737367 .40499879 .41737367 .4139862 .3843689 .4139862 .35235597 .4139862 .29434205 .37098695 .17630005 .35398866 .13128662 .34199525 .09828186 .33999635 .0922699 .33999635 .0712738 .33999635 .01725769 .37799073-.0107421879 .4189911-.0107421879 .5139923-.0107421879 .5509949 .1362915 .5509949 .14329529Z"/>
<path id="font_3_50" d="M.48199464 .10134888C.47799684 .114364627 .46899415 .12036133 .46299745 .12036133 .45799256 .12036133 .45599366 .11836243 .44898988 .10935974 .3919983 .03627014 .31098939 .014251709 .2649994 .014251709 .19699097 .014251709 .18699646 .09033203 .18699646 .12536621 .18699646 .13337708 .18699646 .16542053 .20298767 .22949219H.23199463C.30699159 .22949219 .35899354 .2374878 .394989 .2514801 .46499635 .27946473 .47399903 .33543397 .47399903 .3564148 .47399903 .40138246 .43598939 .4423828 .36799623 .4423828 .2659912 .4423828 .115997318 .3484192 .115997318 .16741944 .115997318 .05529785 .1789856-.0107421879 .2639923-.0107421879 .35598756-.0107421879 .44400025 .039276124 .48199464 .10134888M.43299867 .35742188C.43299867 .25448609 .27398683 .25448609 .20899964 .25448609 .25498963 .41438294 .35398866 .41737367 .36799623 .41737367 .4119873 .41737367 .43299867 .38739015 .43299867 .35742188Z"/>
<path id="font_3_118" d="M.42599488-.003753662 .5219879 .38237C.526001 .39736939 .526001 .3993683 .526001 .4033661 .526001 .42137147 .5119934 .43138124 .49699403 .43138124 .47999574 .43138124 .46299745 .42237855 .45599366 .3943634L.3829956 .104278568C.37298585 .06326294 .32798768 .014251709 .2769928 .014251709 .22698975 .014251709 .22200012 .06427002 .22200012 .091278079 .22200012 .14428711 .24499512 .21331787 .2789917 .30633546 .28799439 .3293457 .2919922 .3403473 .2919922 .36036683 .2919922 .40937806 .2579956 .4423828 .21299744 .4423828 .117996219 .4423828 .08099365 .29733277 .08099365 .28833009 .08099365 .27633668 .09298706 .27633668 .09799194 .27633668 .11199951 .27633668 .11299133 .28134156 .116989139 .29333497 .12399292 .3193512 .15098572 .41737367 .20999146 .41737367 .21998596 .41737367 .23098755 .41537477 .23098755 .38937379 .23098755 .36436463 .21998596 .3343506 .21299744 .31533814 .16699219 .19230652 .15699768 .1512909 .15699768 .107284549 .15699768 .0012512207 .23999024-.0107421879 .272995-.0107421879 .2919922-.0107421879 .32699586-.007751465 .36299134 .024246216 .32998658-.12471008 .25698854-.1796875 .20098877-.1796875 .17399597-.1796875 .14698792-.16569519 .13899231-.13670349 .18598938-.13171387 .18699646-.09172058 .18699646-.08872986 .18699646-.068725589 .17098999-.056732179 .15299988-.056732179 .13598633-.056732179 .102996829-.067733768 .102996829-.11772156 .102996829-.17070008 .14498902-.20469666 .20098877-.20469666 .31098939-.20469666 .40299989-.096725467 .42599488-.003753662Z"/>
<path id="font_3_98" d="M.40299989 .15620423C.40299989 .18418885 .3929901 .21018982 .37298585 .23118592 .34700013 .25717164 .32398988 .2621765 .2789917 .27116395 .24899292 .27816773 .21299744 .28515626 .21299744 .32815553 .21299744 .3461609 .22898865 .41737367 .31599427 .41737367 .34599305 .41737367 .38198854 .4053192 .3919983 .37016297 .35499574 .36315919 .35499574 .33015443 .35499574 .33015443 .35499574 .32115174 .36099244 .30215455 .3849945 .30215455 .40699769 .30215455 .42799378 .31915284 .42799378 .3561554 .42799378 .40130616 .3880005 .4423828 .31599427 .4423828 .19898987 .4423828 .15499878 .3491516 .15499878 .29415895 .15499878 .21618653 .22200012 .20219422 .2519989 .19519043 .29899598 .18519593 .34399415 .17520142 .34399415 .12321472 .34399415 .09422302 .31999208 .014251709 .21099854 .014251709 .18499756 .014251709 .1289978 .021255494 .11299133 .068237308 .1599884 .07322693 .1599884 .115219119 .1599884 .115219119 .1599884 .14221192 .13699341 .14820862 .12599182 .14820862 .11999512 .14820862 .07598877 .14520264 .07598877 .08622742 .07598877 .03024292 .1289978-.0107421879 .21099854-.0107421879 .3639984-.0107421879 .40299989 .11122131 .40299989 .15620423Z"/>
<path id="font_3_105" d="M.3659973 .14405823C.3659973 .1550293 .35299684 .1550293 .34999085 .1550293 .33699037 .1550293 .33599855 .15203858 .32998658 .13806153 .3019867 .06816101 .2599945 .014251709 .21199036 .014251709 .20098877 .014251709 .18399048 .01625061 .18399048 .05519104 .18399048 .06417847 .18699646 .086135867 .19198609 .10610962L.2649994 .3996582H.35099793C.36799623 .3996582 .3789978 .3996582 .3789978 .41766358 .3789978 .43066407 .36898805 .43066407 .35299684 .43066407H.272995L.30999757 .5778961C.31399537 .59191897 .31399537 .59391787 .31399537 .59791567 .31399537 .61494448 .30099488 .62597659 .2849884 .62597659 .2579956 .62597659 .24699402 .6039276 .24299622 .5868988L.20399475 .43066407H.11898804C.101989749 .43066407 .09098816 .43066407 .09098816 .4126587 .09098816 .3996582 .100997928 .3996582 .116989139 .3996582H.19599915L.125 .114089969C.125 .114089969 .11999512 .09512329 .11999512 .08015442 .11999512 .035217287 .15098572-.0107421879 .20999146-.0107421879 .31098939-.0107421879 .3659973 .13406372 .3659973 .14405823Z"/>
<path id="font_3_28" d="M.54100039 .14329529C.54100039 .1552887 .5279999 .1552887 .5239868 .1552887 .5089874 .1552887 .5079956 .1512909 .5039978 .1322937 .4869995 .06626892 .46899415 .014251709 .43598939 .014251709 .4169922 .014251709 .4099884 .030258179 .4099884 .055267335 .4099884 .06427002 .41299439 .08627319 .41799928 .106277469L.4850006 .37435914C.4889984 .3883667 .4889984 .3903656 .4889984 .3943634 .4889984 .41137696 .47599793 .42237855 .45999146 .42237855 .44699098 .42237855 .4249878 .41438294 .4189911 .3863678 .40899659 .40637208 .3829956 .4423828 .33299256 .4423828 .22099304 .4423828 .099990848 .29733277 .099990848 .14628601 .099990848 .044265748 .15899658-.0107421879 .22499085-.0107421879 .2849884-.0107421879 .32899476 .037261964 .34799195 .058258058 .35899354 .014251709 .3939972-.0107421879 .43499757-.0107421879 .48098756-.0107421879 .5019989 .029251099 .5099945 .04626465 .5279999 .08326721 .54100039 .1402893 .54100039 .14329529M.35398866 .12528992C.34498597 .091278079 .28199769 .014251709 .22799683 .014251709 .17298889 .014251709 .16999817 .088272098 .16999817 .103271488 .16999817 .15429688 .19999695 .264328 .21499634 .30233766 .24099732 .36535646 .2889862 .41737367 .33299256 .41737367 .3939972 .41737367 .40299989 .3333435 .40299989 .32635499 .40299989 .3213501 .40299989 .32034303 .3999939 .3103485L.35398866 .12528992Z"/>
<path id="font_3_77" d="M.6029968 .14329529C.6029968 .1552887 .58999636 .1552887 .58599856 .1552887 .57199099 .1552887 .57099917 .15229798 .5649872 .13128662 .5549927 .09527588 .5269928 .014251709 .47299195 .014251709 .46499635 .014251709 .45199586 .01524353 .45199586 .042251588 .45199586 .06626892 .46398927 .09828186 .47200013 .120285037 .48999024 .16830445 .5309906 .2793274 .5309906 .3363495 .5309906 .4033661 .4909973 .4423828 .42099 .4423828 .34899903 .4423828 .30099488 .39837647 .2749939 .36636354 .2659912 .41638185 .22898865 .4423828 .18699646 .4423828 .1539917 .4423828 .1289978 .42237855 .11099243 .3843689 .09498596 .34934999 .08099365 .29333497 .08099365 .28933717 .08099365 .27633668 .09199524 .27633668 .09799194 .27633668 .11299133 .27633668 .11299133 .28033448 .117996219 .30033876 .13798523 .3803711 .15699768 .41737367 .18499756 .41737367 .20098877 .41737367 .21099854 .40837098 .21099854 .3773651 .21099854 .35635377 .20498657 .33035279 .20399475 .32635499L.13198853 .038253786C.12799073 .024246216 .12799073 .022247315 .12799073 .01725769 .12799073-.00074768069 .14199829-.0107421879 .15699768-.0107421879 .18899536-.0107421879 .19400025 .009246826 .20698548 .06427002L.22898865 .15029907 .26098634 .28033448C.2649994 .29333497 .29299928 .34535218 .31698609 .3693695 .33198548 .3843689 .36499024 .41737367 .4189911 .41737367 .45700074 .41737367 .46598817 .3843689 .46598817 .35235597 .46598817 .29434205 .4229889 .17630005 .4059906 .13128662 .3939972 .09828186 .3919983 .0922699 .3919983 .0712738 .3919983 .01725769 .42999269-.0107421879 .47099305-.0107421879 .56599429-.0107421879 .6029968 .1362915 .6029968 .14329529Z"/>
<path id="font_3_47" d="M.5509949 .14329529C.5509949 .1552887 .5379944 .1552887 .5339966 .1552887 .5189972 .1552887 .5179901 .1512909 .5139923 .1322937 .49699403 .06626892 .47898866 .014251709 .44599916 .014251709 .4269867 .014251709 .41999818 .030258179 .41999818 .055267335 .41999818 .06427002 .4229889 .08627319 .42799378 .106277469L.5669861 .66230776C.56999209 .6753082 .57099917 .6773071 .57099917 .68029788 .57099917 .69329836 .56199648 .6953125 .54499819 .69329836L.44099427 .6843109C.42599488 .68330386 .41600038 .682312 .41600038 .66529849 .41600038 .652298 .42599488 .652298 .44299317 .652298 .48999024 .652298 .48999024 .64430239 .48999024 .63531497 .48999024 .62931826 .48999024 .62731936 .48599244 .61331179L.42900086 .3863678C.4189911 .40637208 .3929901 .4423828 .34298707 .4423828 .23098755 .4423828 .10998535 .29733277 .10998535 .14628601 .10998535 .044265748 .16899109-.0107421879 .23498535-.0107421879 .29499818-.0107421879 .33898927 .037261964 .35798646 .058258058 .36898805 .014251709 .4039917-.0107421879 .44499208-.0107421879 .4909973-.0107421879 .5119934 .029251099 .519989 .04626465 .5379944 .08326721 .5509949 .1402893 .5509949 .14329529M.3639984 .12528992C.35499574 .091278079 .2919922 .014251709 .23799134 .014251709 .18299866 .014251709 .17999268 .088272098 .17999268 .103271488 .17999268 .15429688 .20999146 .264328 .22499085 .30233766 .25099183 .36535646 .29899598 .41737367 .34298707 .41737367 .4039917 .41737367 .41299439 .3333435 .41299439 .32635499 .41299439 .3213501 .41299439 .32034303 .4099884 .3103485L.3639984 .12528992Z"/>
<path id="font_3_44" d="M.30699159 .3866577C.30699159 .4076538 .2919922 .43066407 .2619934 .43066407 .22799683 .43066407 .19599915 .3996582 .19599915 .36665345 .19599915 .33966065 .21598816 .32266236 .24099732 .32266236 .2749939 .32266236 .30699159 .35565187 .30699159 .3866577M.22599793 .06399536C.22599793 .08699036 .20899964 .10798645 .18099976 .10798645 .14498902 .10798645 .114990238 .07398987 .114990238 .04399109 .114990238 .020996094 .13198853 0 .1599884 0 .19599915 0 .22599793 .033996583 .22599793 .06399536Z"/>
<path id="font_3_114" d="M.71299746 .3733673C.71299746 .42938233 .6859894 .4423828 .66999819 .4423828 .6489868 .4423828 .621994 .42137147 .621994 .39637757 .621994 .3863678 .6239929 .38136292 .6319885 .37236024 .6429901 .35935975 .6619873 .33735658 .6619873 .29034425 .6619873 .2513275 .6289978 .1402893 .6139984 .106277469 .59999087 .07426453 .57099917 .014251709 .5119934 .014251709 .44898988 .014251709 .44599916 .07527161 .44599916 .09727478 .44599916 .12628174 .45298768 .15429688 .45999146 .18130493L.49899293 .33735658C.5039978 .35935975 .5139923 .39736939 .5139923 .4033661 .5139923 .42137147 .5 .43138124 .4850006 .43138124 .46899415 .43138124 .45098878 .42337037 .44400025 .3943634L.3889923 .17530823C.3880005 .17030335 .3809967 .14228821 .3809967 .11727905 .3809967 .09727478 .37298585 .07727051 .35398866 .05026245 .33699037 .026260376 .31799317 .014251709 .29599 .014251709 .22399903 .014251709 .22399903 .08427429 .22399903 .10127258 .22399903 .14628601 .23899842 .1973114 .27799989 .30433656 .28799439 .33035279 .2919922 .3403473 .2919922 .36036683 .2919922 .40937806 .2579956 .4423828 .21299744 .4423828 .117996219 .4423828 .08099365 .29733277 .08099365 .28833009 .08099365 .27633668 .09298706 .27633668 .09799194 .27633668 .11199951 .27633668 .11299133 .28134156 .116989139 .29333497 .12399292 .3193512 .15098572 .41737367 .20999146 .41737367 .21998596 .41737367 .23098755 .41537477 .23098755 .38937379 .23098755 .36436463 .21998596 .3343506 .21299744 .31533814 .16799927 .19430542 .1579895 .15429688 .1579895 .11428833 .1579895 .007247925 .24499512-.0107421879 .29299928-.0107421879 .33299256-.0107421879 .3659973 .009246826 .3919983 .052261354 .4189911-.002746582 .47799684-.0107421879 .5089874-.0107421879 .58599856-.0107421879 .6259918 .057266237 .644989 .103271488 .6759949 .17530823 .71299746 .3173523 .71299746 .3733673Z"/>
<path id="font_3_66" d="M.34098817 .14329529C.34098817 .1552887 .32798768 .1552887 .32398988 .1552887 .30999757 .1552887 .30899049 .15229798 .30299378 .13128662 .29299928 .09527588 .2649994 .014251709 .21099854 .014251709 .20298767 .014251709 .18998719 .01524353 .18998719 .042251588 .18998719 .059265138 .19599915 .08227539 .20698548 .11328125 .22099304 .15029907 .22099304 .15229798 .23799134 .19430542L.27198792 .28833009C.2809906 .31134034 .2919922 .34135438 .2919922 .36036683 .2919922 .40937806 .2579956 .4423828 .21299744 .4423828 .117996219 .4423828 .08099365 .29733277 .08099365 .28833009 .08099365 .27633668 .09298706 .27633668 .09799194 .27633668 .11199951 .27633668 .11299133 .28134156 .116989139 .29333497 .12399292 .3193512 .15098572 .41737367 .20999146 .41737367 .21998596 .41737367 .23098755 .41537477 .23098755 .38937379 .23098755 .36535646 .22399903 .34535218 .20698548 .29833985L.17199707 .205307 .14698792 .1362915C.13899231 .11528015 .12998963 .091278079 .12998963 .0712738 .12998963 .01725769 .16799927-.0107421879 .20899964-.0107421879 .3039856-.0107421879 .34098817 .1362915 .34098817 .14329529M.3619995 .6102905C.3619995 .6382904 .33999635 .6542969 .31698609 .6542969 .28599549 .6542969 .2519989 .62628176 .2519989 .59028628 .2519989 .5622864 .27398683 .54629519 .29699708 .54629519 .32798768 .54629519 .3619995 .57429507 .3619995 .6102905Z"/>
<path id="font_3_84" d="M.5219879 .28433229C.5219879 .38136292 .46798707 .4423828 .3959961 .4423828 .34298707 .4423828 .30499269 .40538026 .272995 .37435914 .25898744 .42938233 .21499634 .4423828 .18699646 .4423828 .1539917 .4423828 .1289978 .42237855 .11099243 .3843689 .09498596 .34934999 .08099365 .29333497 .08099365 .28933717 .08099365 .27633668 .09199524 .27633668 .09799194 .27633668 .11299133 .27633668 .11299133 .28033448 .117996219 .30033876 .13798523 .3803711 .15699768 .41737367 .18499756 .41737367 .20098877 .41737367 .21099854 .40837098 .21099854 .3773651 .21099854 .35635377 .20498657 .33035279 .20399475 .32635499L.09098816-.12701416C.08299255-.15908814 .07598877-.16308594 .036987306-.16308594 .027999878-.16308594 .015991211-.16308594 .015991211-.18109131 .015991211-.18609619 .017990113-.1940918 .0289917-.1940918 .054992677-.1940918 .085998538-.19110108 .11399841-.19110108 .14698792-.19110108 .18099976-.1940918 .21199036-.1940918 .21699524-.1940918 .22999573-.1940918 .22999573-.17608643 .22999573-.16308594 .21899414-.16308594 .20298767-.16308594 .1559906-.16308594 .1559906-.15608216 .1559906-.14706421 .1559906-.1360321 .19799805 .024246216 .20298767 .044265748 .22399903 .0062561037 .2539978-.0107421879 .2889862-.0107421879 .40299989-.0107421879 .5219879 .1382904 .5219879 .28433229M.40098573 .11628723C.37599183 .06227112 .33099366 .014251709 .2889862 .014251709 .2669983 .014251709 .25 .025253296 .23699951 .04626465 .22200012 .07026672 .21899414 .106277469 .21899414 .106277469 .21899414 .106277469 .21998596 .11628723 .22099304 .119277957L.2679901 .30534364C.27598573 .33535768 .29699708 .35835267 .31900025 .379364 .35099793 .41036988 .3789978 .41737367 .3939972 .41737367 .44898988 .41737367 .45199586 .34135438 .45199586 .32835389 .45199586 .27633668 .42099 .16029358 .40098573 .11628723Z"/>
<path id="font_3_96" d="M.49899293 .3773651C.49899293 .41937257 .45199586 .4423828 .397995 .4423828 .33799745 .4423828 .2979889 .40637208 .27398683 .37236024 .2630005 .41737367 .22799683 .4423828 .18699646 .4423828 .1539917 .4423828 .1289978 .42237855 .11099243 .3843689 .09498596 .34934999 .08099365 .29333497 .08099365 .28933717 .08099365 .27633668 .09199524 .27633668 .09799194 .27633668 .11299133 .27633668 .11299133 .28033448 .117996219 .30033876 .13798523 .38035584 .15699768 .41737367 .18499756 .41737367 .20098877 .41737367 .21099854 .40837098 .21099854 .3773651 .21099854 .35635377 .20498657 .33035279 .20399475 .32633973L.13198853 .038269044C.12799073 .024261475 .12799073 .022262574 .12799073 .01725769 .12799073-.00074768069 .14199829-.0107421879 .15699768-.0107421879 .17098999-.0107421879 .18998719-.0047454836 .19799805 .026260376L.2630005 .28733827C.2649994 .29434205 .30899049 .41737367 .3959961 .41737367 .4019928 .41737367 .42999269 .41737367 .45098878 .40237428 .42099 .3923645 .41600038 .36836244 .41600038 .35635377 .41600038 .3363495 .43099977 .32434083 .44999696 .32434083 .47599793 .32434083 .49899293 .34635926 .49899293 .3773651Z"/>
<path id="font_3_112" d="M.5029907 .3733673C.5029907 .42938233 .47599793 .4423828 .45999146 .4423828 .43899537 .4423828 .4119873 .42137147 .4119873 .39637757 .4119873 .3863678 .4139862 .38136292 .42199708 .37236024 .43299867 .35935975 .45199586 .33735658 .45199586 .29034425 .45199586 .2603302 .4039917 .014251709 .2889862 .014251709 .22799683 .014251709 .22299195 .0712738 .22299195 .09727478 .22299195 .14529419 .24398804 .21131897 .2789917 .30734254 .28799439 .3293457 .2919922 .3403473 .2919922 .36036683 .2919922 .40937806 .2579956 .4423828 .21299744 .4423828 .117996219 .4423828 .08099365 .29733277 .08099365 .28833009 .08099365 .27633668 .09298706 .27633668 .09799194 .27633668 .11199951 .27633668 .11299133 .28134156 .116989139 .29333497 .12399292 .3193512 .15098572 .41737367 .20999146 .41737367 .21998596 .41737367 .23098755 .41537477 .23098755 .38937379 .23098755 .36436463 .21998596 .3343506 .21299744 .31533814 .1579895 .16729737 .1579895 .14329529 .1579895 .11227417 .1579895 .09727478 .1579895 .051254274 .19198609 .021255494 .22299195-.0067443849 .2649994-.0107421879 .28599549-.0107421879 .45199586-.0107421879 .5029907 .33035279 .5029907 .3733673Z"/>
<path id="font_3_72" d="M.28799439 .14326477C.28799439 .15525818 .2749939 .15525818 .2709961 .15525818 .2559967 .15525818 .25498963 .15126038 .25099183 .13226319 .22799683 .040252687 .20899964 .014251709 .18399048 .014251709 .16499329 .014251709 .1579895 .030258179 .1579895 .055252077 .1579895 .06425476 .16099549 .086257938 .1659851 .10626221L.30499269 .66230776C.30799867 .6753082 .30899049 .6773071 .30899049 .68029788 .30899049 .69329836 .2999878 .6953125 .2829895 .69329836L.1789856 .6843109C.1639862 .68330386 .1539917 .682312 .1539917 .66529849 .1539917 .652298 .1639862 .652298 .18099976 .652298 .22799683 .652298 .22799683 .64430239 .22799683 .6352997 .22799683 .6352997 .22799683 .62831118 .22399903 .61331179L.09899902 .11425781C.09899902 .11425781 .09399414 .09526062 .09399414 .08026123 .09399414 .03225708 .12799073-.0107421879 .18299866-.0107421879 .22799683-.0107421879 .24798584 .026245118 .25698854 .04525757 .2749939 .08125305 .28799439 .14025879 .28799439 .14326477Z"/>
</defs>
<path transform="matrix(1.00003,0,0,-1.00005,2.2955018,285.47648)" stroke-width=".79701" stroke-linecap="butt" stroke-miterlimit="10" stroke-linejoin="miter" fill="none" stroke="#b9b9b9" d="M0 7.97021V275.4979C0 279.89979 3.56833 283.4681 7.97021 283.4681H417.23194C421.6338 283.4681 425.20213 279.89979 425.20213 275.4979V7.97021C425.20213 3.56833 421.6338 0 417.23194 0H7.97021C3.56833 0 0 3.56833 0 7.97021ZM425.20213 283.4681"/>
<path transform="matrix(1.00003,0,0,-1.00005,2.2955018,285.47648)" stroke-width=".3985" stroke-linecap="butt" stroke-miterlimit="10" stroke-linejoin="miter" fill="none" stroke="#d2d2d2" d="M0 198.42766H425.20213"/>
<path transform="matrix(1.00003,0,0,-1.00005,2.2955018,285.47648)" stroke-width=".3985" stroke-linecap="butt" stroke-miterlimit="10" stroke-linejoin="miter" fill="none" stroke="#d2d2d2" d="M0 99.21382H425.20213"/>
<use data-text="a" xlink:href="#font_1_1" transform="matrix(8.966669,0,0,-8.966848,15.736908,20.246216)"/>
<use data-text="=" xlink:href="#font_2_1" transform="matrix(8.966669,0,0,-8.966848,23.17913,20.246216)"/>
<use data-text="b" xlink:href="#font_1_2" transform="matrix(8.966669,0,0,-8.966848,51.570985,20.246216)"/>
<use data-text="=" xlink:href="#font_2_1" transform="matrix(8.966669,0,0,-8.966848,58.080186,20.246216)"/>
<use data-text="c" xlink:href="#font_1_3" transform="matrix(8.966669,0,0,-8.966848,86.47203,20.246216)"/>
<use data-text="=" xlink:href="#font_2_1" transform="matrix(8.966669,0,0,-8.966848,93.021228,20.246216)"/>
<use data-text="T" xlink:href="#font_3_104" transform="matrix(8.966669,0,0,-8.966848,15.736908,105.29547)"/>
<use data-text="h" xlink:href="#font_3_63" transform="matrix(8.966669,0,0,-8.966848,22.327408,105.29547)"/>
<use data-text="e" xlink:href="#font_3_50" transform="matrix(8.966669,0,0,-8.966848,27.034905,105.29547)"/>
<use data-text="y" xlink:href="#font_3_118" transform="matrix(8.966669,0,0,-8.966848,31.267174,105.29547)"/>
<use data-text="s" xlink:href="#font_3_98" transform="matrix(8.966669,0,0,-8.966848,39.023355,105.29547)"/>
<use data-text="t" xlink:href="#font_3_105" transform="matrix(8.966669,0,0,-8.966848,42.789354,105.29547)"/>
<use data-text="a" xlink:href="#font_3_28" transform="matrix(8.966669,0,0,-8.966848,45.846994,105.29547)"/>
<use data-text="n" xlink:href="#font_3_77" transform="matrix(8.966669,0,0,-8.966848,50.55449,105.29547)"/>
<use data-text="d" xlink:href="#font_3_47" transform="matrix(8.966669,0,0,-8.966848,55.728258,105.29547)"/>
<use data-text="a" xlink:href="#font_3_28" transform="matrix(8.966669,0,0,-8.966848,63.726518,105.29547)"/>
<use data-text="t" xlink:href="#font_3_105" transform="matrix(8.966669,0,0,-8.966848,68.43404,105.29547)"/>
<use data-text=":" xlink:href="#font_3_44" transform="matrix(8.966669,0,0,-8.966848,71.49167,105.29547)"/>
<use data-text="T" xlink:href="#font_3_104" transform="matrix(8.966669,0,0,-8.966848,15.736908,204.51444)"/>
<use data-text="h" xlink:href="#font_3_63" transform="matrix(8.966669,0,0,-8.966848,22.327408,204.51444)"/>
<use data-text="e" xlink:href="#font_3_50" transform="matrix(8.966669,0,0,-8.966848,27.034905,204.51444)"/>
<use data-text="w" xlink:href="#font_3_114" transform="matrix(8.966669,0,0,-8.966848,34.557947,204.51444)"/>
<use data-text="h" xlink:href="#font_3_63" transform="matrix(8.966669,0,0,-8.966848,40.67321,204.51444)"/>
<use data-text="i" xlink:href="#font_3_66" transform="matrix(8.966669,0,0,-8.966848,45.380716,204.51444)"/>
<use data-text="s" xlink:href="#font_3_98" transform="matrix(8.966669,0,0,-8.966848,48.205217,204.51444)"/>
<use data-text="p" xlink:href="#font_3_84" transform="matrix(8.966669,0,0,-8.966848,51.971216,204.51444)"/>
<use data-text="e" xlink:href="#font_3_50" transform="matrix(8.966669,0,0,-8.966848,56.221414,204.51444)"/>
<use data-text="r" xlink:href="#font_3_96" transform="matrix(8.966669,0,0,-8.966848,60.45369,204.51444)"/>
<use data-text="t" xlink:href="#font_3_105" transform="matrix(8.966669,0,0,-8.966848,67.61806,204.51444)"/>
<use data-text="r" xlink:href="#font_3_96" transform="matrix(8.966669,0,0,-8.966848,70.67569,204.51444)"/>
<use data-text="a" xlink:href="#font_3_28" transform="matrix(8.966669,0,0,-8.966848,74.10095,204.51444)"/>
<use data-text="v" xlink:href="#font_3_112" transform="matrix(8.966669,0,0,-8.966848,78.80846,204.51444)"/>
<use data-text="e" xlink:href="#font_3_50" transform="matrix(8.966669,0,0,-8.966848,83.040729,204.51444)"/>
<use data-text="l" xlink:href="#font_3_72" transform="matrix(8.966669,0,0,-8.966848,87.27301,204.51444)"/>
<use data-text="s" xlink:href="#font_3_98" transform="matrix(8.966669,0,0,-8.966848,89.62227,204.51444)"/>
<use data-text=":" xlink:href="#font_3_44" transform="matrix(8.966669,0,0,-8.966848,93.388278,204.51444)"/>
</svg>
