<svg xmlns="http://www.w3.org/2000/svg" xmlns:xlink="http://www.w3.org/1999/xlink" xmlns:inkscape="http://www.inkscape.org/namespaces/inkscape" version="1.1" width="429" height="401" viewBox="0 0 429 401">
<defs>
<path id="font_1_1" d="M.42599488-1.1462402C.42599488-1.1412354 .42399598-1.1382294 .42199708-1.1372376 .37298585-1.0862274 .30699159-1.0032044 .2689972-.86317446 .24798584-.78616335 .23098755-.69114688 .23098755-.5581207 .23098755-.25306703 .31698609-.088027957 .4229889 .022979737 .42599488 .024978638 .42599488 .02798462 .42599488 .0309906 .42599488 .037979127 .42099 .041992189 .41299439 .041992189 .394989 .041992189 .33399964-.026016236 .33198548-.028015137 .21499634-.16104126 .15699768-.35107423 .15699768-.55711367 .15699768-.76016238 .21299744-.98820498 .38598634-1.1412354 .4039917-1.1572266 .4059906-1.1572266 .41299439-1.1572266 .42099-1.1572266 .42599488-1.1532288 .42599488-1.1462402Z"/>
<path id="font_2_1" d="M.79599 .22436524C.81199648 .22436524 .83699038 .22436524 .83699038 .2503662 .83699038 .2763672 .81199648 .2763672 .79599 .2763672H.1659851C.1499939 .2763672 .125 .2763672 .125 .2503662 .125 .22436524 .1499939 .22436524 .1659851 .22436524H.79599Z"/>
<path id="font_3_2" d="M.5379944 .18702698H.5009918C.49899293 .17301941 .4889984 .10699463 .47399903 .09599304 .46699525 .08999634 .38598634 .08999634 .37199403 .08999634H.18499756L.31298829 .19403076C.34700013 .22103882 .43598939 .28504945 .46699525 .31506349 .49699403 .3450775 .5379944 .39608766 .5379944 .46710206 .5379944 .5920563 .4249878 .66503909 .29100038 .66503909 .1619873 .66503909 .07199097 .58006289 .07199097 .48609925 .07199097 .43510438 .114990238 .42910768 .12599182 .42910768 .15098572 .42910768 .17999268 .44709779 .17999268 .48310853 .17999268 .50509646 .16699219 .5371094 .12298584 .5371094 .1459961 .5880585 .20698548 .6260376 .27598573 .6260376 .3809967 .6260376 .43699647 .5480957 .43699647 .46710206 .43699647 .39608766 .3899994 .32305909 .31999208 .25904847L.08299255 .041992189C.07299805 .03199768 .07199097 .0309906 .07199097 0H.5069885L.5379944 .18702698Z"/>
<path id="font_3_1" d="M.35899354 .6349335C.35899354 .66503909 .35499574 .66503909 .32499696 .66503909 .25898744 .60058596 .15699768 .60058596 .12098694 .60058596V.5615845C.14698792 .5615845 .21299744 .5615845 .272995 .58958438V.08496094C.272995 .051986696 .272995 .038986207 .16999817 .038986207H.1269989V0C.18199158 .0039978029 .2599945 .0039978029 .31599427 .0039978029 .37199403 .0039978029 .44999696 .0039978029 .5049896 0V.038986207H.46199037C.35899354 .038986207 .35899354 .051986696 .35899354 .08496094V.6349335Z"/>
<path id="font_1_2" d="M.31298829-.5581207C.31298829-.35508729 .25698854-.12702942 .083999637 .025985718 .06599426 .041992189 .06399536 .041992189 .056991579 .041992189 .04399109 .041992189 .04399109 .032989503 .04399109 .0309906 .04399109 .02798462 .04399109 .025985718 .04899597 .019989014 .10499573-.038024904 .16499329-.122039798 .20098877-.25205995 .22200012-.32907105 .23899842-.42408753 .23899842-.55711367 .23899842-.85317996 .1579895-1.0222168 .04699707-1.1372376 .04598999-1.1392365 .04399109-1.1422272 .04399109-1.1462402 .04399109-1.1482391 .04399109-1.1572266 .056991579-1.1572266 .07499695-1.1572266 .13598633-1.0892181 .13798523-1.0872192 .25498963-.9541931 .31298829-.76416018 .31298829-.5581207Z"/>
<path id="font_4_5" d="M.70799258 .3310089C.7220001 .3310089 .7409973 .3310089 .7409973 .35202027 .7409973 .37402345 .71899417 .37402345 .70399478 .37402345H.09399414C.07899475 .37402345 .056991579 .37402345 .056991579 .35202027 .056991579 .3310089 .07699585 .3310089 .08999634 .3310089H.70799258M.70399478 .12695313C.71899417 .12695313 .7409973 .12695313 .7409973 .14894104 .7409973 .1699524 .7220001 .1699524 .70799258 .1699524H.08999634C.07699585 .1699524 .056991579 .1699524 .056991579 .14894104 .056991579 .12695313 .07899475 .12695313 .09399414 .12695313H.70399478Z"/>
<path id="font_5_1" d="M.33198548 .66430667C.33299256 .66830447 .33499146 .67430117 .33499146 .67930606 .33499146 .6953125 .31498719 .6943054 .30299378 .69329836L.19099427 .6843109C.17399597 .68330386 .16099549 .682312 .16099549 .65830996 .16099549 .64331057 .17399597 .64331057 .18998719 .64331057 .21899414 .64331057 .22599793 .64030459 .23899842 .63630679 .23899842 .62431338 .23899842 .62231448 .23498535 .60632327L.09498596 .04725647C.09098816 .031234742 .09098816 .026229859 .09098816 .024230957 .09098816-.00077819827 .11099243-.009765625 .12599182-.009765625 .13598633-.009765625 .1539917-.0057678224 .16699219 .01322937 .17399597 .026229859 .21398926 .19239807 .22099304 .22442627 .28799439 .21942139 .3600006 .20339966 .3600006 .14434815 .3600006 .13934326 .3600006 .13433838 .35699464 .12332153 .35398866 .108306888 .35398866 .10231018 .35398866 .09429932 .35398866 .02822876 .4099884-.009765625 .46699525-.009765625 .56399539-.009765625 .598999 .13633728 .598999 .14434815 .598999 .14634705 .59799197 .15835572 .5799866 .15835572 .56599429 .15835572 .56399539 .15235901 .5589905 .13534546 .548996 .0993042 .5209961 .023223877 .46998597 .023223877 .43199159 .023223877 .43199159 .06626892 .43199159 .07728577 .43199159 .09329224 .43199159 .09429932 .43699647 .11431885 .43699647 .11532593 .44198609 .13534546 .44198609 .14735413 .44198609 .22442627 .35499574 .2484436 .27799989 .25546266 .3019867 .2704773 .32299806 .28648377 .36299134 .3215027 .41299439 .36549378 .46499635 .4084015 .519989 .4084015 .5329895 .4084015 .54499819 .40542604 .55400088 .3955078 .5189972 .38850404 .5039978 .36050416 .5039978 .3394928 .5039978 .30749513 .5299988 .3005066 .5439911 .3005066 .56599429 .3005066 .60198977 .3164978 .60198977 .36650086 .60198977 .4093933 .56999209 .44140626 .5209961 .44140626 .45799256 .44140626 .39898683 .39349366 .35299684 .35350038 .30099488 .3085022 .269989 .28248597 .23298645 .26846314L.33198548 .66430667Z"/>
<path id="font_4_1" d="M.34098817-.23803711C.34098817-.23303223 .33799745-.23002625 .33198548-.22303772 .20298767-.105026248 .1639862 .07498169 .1639862 .24996948 .1639862 .40498353 .19400025 .59298709 .33499146 .72698977 .33898927 .73098757 .34098817 .73399356 .34098817 .7389984 .34098817 .74598696 .33599855 .75 .32899476 .75 .31698609 .75 .22698975 .6779785 .17298889 .568985 .125 .47297669 .100997928 .36997987 .100997928 .25097657 .100997928 .17897034 .10998535 .064971927 .16499329-.053024293 .22399903-.17602539 .31698609-.24902344 .32899476-.24902344 .33599855-.24902344 .34098817-.24502564 .34098817-.23803711Z"/>
<path id="font_4_4" d="M.3039856 .6392822C.3039856 .6642761 .30299378 .666275 .27799989 .666275 .21598816 .60227969 .12399292 .60227969 .09298706 .60227969V.57128909C.11199951 .57128909 .17298889 .57128909 .22698975 .5972748V.08001709C.22698975 .042999269 .22399903 .0309906 .1309967 .0309906H.09899902V0C.1349945 .0029907227 .22399903 .0029907227 .2649994 .0029907227 .30599977 .0029907227 .3959961 .0029907227 .43199159 0V.0309906H.3999939C.30699159 .0309906 .3039856 .042999269 .3039856 .08001709V.6392822Z"/>
<path id="font_4_3" d="M.70599368 .22944641C.7200012 .22944641 .7409973 .22944641 .7409973 .25045777 .7409973 .27246095 .7220001 .27246095 .70599368 .27246095H.42099V.5578003C.42099 .573761 .42099 .59277346 .39898683 .59277346 .37799073 .59277346 .37799073 .57177737 .37799073 .5578003V.27246095H.09199524C.07798767 .27246095 .056991579 .27246095 .056991579 .25144959 .056991579 .22944641 .07598877 .22944641 .09199524 .22944641H.37799073V-.056793214C.37799073-.07279968 .37799073-.091796878 .3999939-.091796878 .42099-.091796878 .42099-.07080078 .42099-.056793214V.22944641H.70599368Z"/>
<path id="font_6_1" d="M.49198915 .40434266C.45498658 .39733888 .44400025 .3653412 .44400025 .3503418 .44400025 .33132936 .45799256 .31433106 .48298646 .31433106 .5109863 .31433106 .5379944 .33833314 .5379944 .3733368 .5379944 .41937257 .48799134 .4423828 .44099427 .4423828 .3809967 .4423828 .34599305 .38934327 .33399964 .3683319 .31498719 .41737367 .2709961 .4423828 .22299195 .4423828 .115997318 .4423828 .057998659 .31433106 .057998659 .28833009 .057998659 .2793274 .06498718 .2763214 .07199097 .2763214 .08099365 .2763214 .083999637 .2813263 .085998538 .287323 .116989139 .38633729 .18299866 .41737367 .22099304 .41737367 .25 .41737367 .27598573 .3983307 .27598573 .35133363 .27598573 .31533814 .23298645 .15530396 .21998596 .107284549 .21199036 .076293949 .18199158 .014251709 .1269989 .014251709 .10699463 .014251709 .085998538 .021270752 .07598877 .027282715 .102996829 .032287599 .12298584 .055282594 .12298584 .08128357 .12298584 .106292728 .10398865 .11729431 .084991458 .11729431 .055999757 .11729431 .02999878 .092285159 .02999878 .058288576 .02999878 .009246826 .083999637-.0107421879 .12599182-.0107421879 .18399048-.0107421879 .21798706 .03729248 .23298645 .06428528 .2579956-.0017547608 .31698609-.0107421879 .34399415-.0107421879 .45199586-.0107421879 .5089874 .11929321 .5089874 .14329529 .5089874 .14830017 .5059967 .15530396 .49598695 .15530396 .4850006 .15530396 .48399354 .1512909 .47898866 .1362915 .45700074 .06428528 .39898683 .014251709 .34700013 .014251709 .31799317 .014251709 .29100038 .032287599 .29100038 .08029175 .29100038 .10229492 .30499269 .15730286 .31399537 .1953125 .31799317 .21331787 .34498597 .32133485 .34700013 .32833863 .35899354 .3643341 .3889923 .41737367 .43998719 .41737367 .45799256 .41737367 .47698976 .41436769 .49198915 .40434266Z"/>
<path id="font_4_2" d="M.2979889 .25097657C.2979889 .3329773 .28599549 .4429779 .23399353 .5539856 .1749878 .6769867 .08198547 .75 .069992069 .75 .05999756 .75 .057998659 .74198916 .057998659 .7389984 .057998659 .73399356 .05999756 .73098757 .066986087 .72398379 .125 .6719818 .23498535 .5359802 .23498535 .25097657 .23498535 .10797119 .20899964-.091033939 .06399536-.22602844 .06199646-.22903443 .057998659-.23303223 .057998659-.23803711 .057998659-.24102783 .05999756-.24902344 .069992069-.24902344 .08198547-.24902344 .17199707-.17703247 .22599793-.06802368 .27398683 .02796936 .2979889 .13098145 .2979889 .25097657Z"/>
</defs>
<path transform="matrix(1.00003,0,0,-1.00003,2.2955018,398.8615)" stroke-width=".79701" stroke-linecap="butt" stroke-miterlimit="10" stroke-linejoin="miter" fill="none" stroke="#b9b9b9" d="M0 7.97021V388.88514C0 393.287 3.56833 396.85533 7.97021 396.85533H417.23194C421.6338 396.85533 425.20213 393.287 425.20213 388.88514V7.97021C425.20213 3.56833 421.6338 0 417.23194 0H7.97021C3.56833 0 0 3.56833 0 7.97021ZM425.20213 396.85533"/>
<path transform="matrix(1.00003,0,0,-1.00003,2.2955018,398.8615)" stroke-width=".3985" stroke-linecap="butt" stroke-miterlimit="10" stroke-linejoin="miter" fill="none" stroke="#d2d2d2" d="M0 311.8149H425.20213"/>
<path transform="matrix(1.00003,0,0,-1.00003,2.2955018,398.8615)" stroke-width=".3985" stroke-linecap="butt" stroke-miterlimit="10" stroke-linejoin="miter" fill="none" stroke="#d2d2d2" d="M0 184.25424H425.20213"/>
<use data-text="(" xlink:href="#font_1_1" transform="matrix(8.966669,0,0,-8.966669,15.736908,14.66098)"/>
<use data-text="&#x2212;" xlink:href="#font_2_1" transform="matrix(5.97778,0,0,-5.97778,19.961037,17.871064)"/>
<use data-text="2" xlink:href="#font_3_2" transform="matrix(5.97778,0,0,-5.97778,25.717202,17.871064)"/>
<use data-text="1" xlink:href="#font_3_1" transform="matrix(5.97778,0,0,-5.97778,22.839119,24.94629)"/>
<use data-text=")" xlink:href="#font_1_2" transform="matrix(8.966669,0,0,-8.966669,29.370316,14.66098)"/>
<use data-text="=" xlink:href="#font_4_5" transform="matrix(8.966669,0,0,-8.966669,36.15351,21.904206)"/>
<use data-text="(" xlink:href="#font_1_1" transform="matrix(8.966669,0,0,-8.966669,147.55387,14.66098)"/>
<use data-text="&#x2212;" xlink:href="#font_2_1" transform="matrix(5.97778,0,0,-5.97778,151.77799,17.871064)"/>
<use data-text="2" xlink:href="#font_3_2" transform="matrix(5.97778,0,0,-5.97778,157.53415,17.871064)"/>
<use data-text="2" xlink:href="#font_3_2" transform="matrix(5.97778,0,0,-5.97778,154.65607,24.94629)"/>
<use data-text=")" xlink:href="#font_1_2" transform="matrix(8.966669,0,0,-8.966669,161.18727,14.66098)"/>
<use data-text="=" xlink:href="#font_4_5" transform="matrix(8.966669,0,0,-8.966669,167.97046,21.904206)"/>
<use data-text="(" xlink:href="#font_1_1" transform="matrix(8.966669,0,0,-8.966669,15.736908,99.70456)"/>
<use data-text="&#x2212;" xlink:href="#font_2_1" transform="matrix(5.97778,0,0,-5.97778,19.961037,102.91464)"/>
<use data-text="2" xlink:href="#font_3_2" transform="matrix(5.97778,0,0,-5.97778,25.717202,102.91464)"/>
<use data-text="k" xlink:href="#font_5_1" transform="matrix(5.97778,0,0,-5.97778,22.628113,109.98987)"/>
<use data-text=")" xlink:href="#font_1_2" transform="matrix(8.966669,0,0,-8.966669,29.370316,99.70456)"/>
<use data-text="=" xlink:href="#font_4_5" transform="matrix(8.966669,0,0,-8.966669,36.15351,106.947788)"/>
<use data-text="(" xlink:href="#font_4_1" transform="matrix(8.966669,0,0,-8.966669,15.736908,234.28757)"/>
<use data-text="1" xlink:href="#font_4_4" transform="matrix(8.966669,0,0,-8.966669,19.314606,234.28757)"/>
<use data-text="+" xlink:href="#font_4_3" transform="matrix(8.966669,0,0,-8.966669,25.958909,234.28757)"/>
<use data-text="x" xlink:href="#font_6_1" transform="matrix(8.966669,0,0,-8.966669,35.192499,234.28757)"/>
<use data-text=")" xlink:href="#font_4_2" transform="matrix(8.966669,0,0,-8.966669,40.41565,234.28757)"/>
<use data-text="&#x2212;" xlink:href="#font_2_1" transform="matrix(5.97778,0,0,-5.97778,43.999757,230.47846)"/>
<use data-text="2" xlink:href="#font_3_2" transform="matrix(5.97778,0,0,-5.97778,49.755929,230.47846)"/>
<use data-text="=" xlink:href="#font_4_5" transform="matrix(8.966669,0,0,-8.966669,56.467126,234.28757)"/>
</svg>
