<svg xmlns="http://www.w3.org/2000/svg" xmlns:xlink="http://www.w3.org/1999/xlink" xmlns:inkscape="http://www.inkscape.org/namespaces/inkscape" version="1.1" width="429" height="401" viewBox="0 0 429 401">
<defs>
<path id="font_1_2" d="M.37399293 .3996582H.46398927C.48399354 .3996582 .49398805 .3996582 .49398805 .41766358 .49398805 .43066407 .48399354 .43066407 .46499635 .43066407H.37998963C.3909912 .49082948 .40499879 .5730438 .41799928 .62705996 .4269867 .6660614 .45098878 .68006899 .47099305 .68006899 .47698976 .68006899 .5 .67807009 .5169983 .6660614 .49699403 .66204836 .46798707 .6440582 .46798707 .61105349 .46798707 .5860596 .4869995 .575058 .5059967 .575058 .5329895 .575058 .5609894 .59706118 .5609894 .63505557 .5609894 .68006899 .5169983 .7050781 .46998597 .7050781 .4249878 .7050781 .37998963 .6730652 .35899354 .63204959 .33699037 .5890503 .32998658 .5499878 .30899049 .43066407H.23699951C.21798706 .43066407 .20599365 .43066407 .20599365 .4126587 .20599365 .3996582 .21699524 .3996582 .23498535 .3996582H.30299378C.2749939 .25474549 .23999024 .054855348 .21798706-.049087526 .20599365-.10406494 .18998719-.18008423 .14199829-.18008423 .1269989-.18008423 .10699463-.17407227 .09700012-.16607666 .12199402-.1620636 .14698792-.1410675 .14698792-.111068729 .14698792-.08607483 .12799073-.07507324 .10899353-.07507324 .08198547-.07507324 .053985597-.097076419 .053985597-.1350708 .053985597-.18109131 .099990848-.20507813 .14199829-.20507813 .24398804-.20507813 .29100038-.039093019 .30699159 .04685974L.37399293 .3996582Z"/>
<path id="font_2_1" d="M.5629883 .39352418C.5279999 .38352967 .519989 .3545227 .519989 .33952333 .519989 .30752564 .54599 .30052186 .55999758 .30052186 .58898928 .30052186 .6179962 .32452394 .6179962 .3635254 .6179962 .41740418 .5589905 .44140626 .5079956 .44140626 .44198609 .44140626 .4019928 .3905182 .3909912 .371521 .37799073 .39649964 .33999635 .44140626 .2649994 .44140626 .1499939 .44140626 .08198547 .32252503 .08198547 .28749085 .08198547 .2824707 .085998538 .27345277 .099990848 .27345277 .11399841 .27345277 .116989139 .27946473 .11999512 .28848268 .14498902 .3695221 .21299744 .4084015 .2619934 .4084015 .31098939 .4084015 .32598878 .37652589 .32598878 .34352113 .32598878 .3315277 .32598878 .32252503 .31799317 .29148866 .29499818 .19825745 .272995 .10707092 .2679901 .095077518 .25299073 .05708313 .21699524 .023223877 .1749878 .023223877 .16899109 .023223877 .14099121 .023223877 .117996219 .038085939 .15699768 .051071168 .16099549 .08407593 .16099549 .09207153 .16099549 .11807251 .14099121 .13108826 .12098694 .13108826 .09298706 .13108826 .06298828 .10908508 .06298828 .06808472 .06298828 .011230469 .12599182-.009765625 .17298889-.009765625 .22999573-.009765625 .2709961 .029159546 .2899933 .060073854 .30999757 .018234253 .35798646-.009765625 .4149933-.009765625 .5329895-.009765625 .598999 .111083988 .598999 .14411927 .598999 .14611817 .59799197 .15815735 .5799866 .15815735 .56599429 .15815735 .56399539 .1511383 .5609894 .1421051 .5319977 .05508423 .46099855 .023223877 .4189911 .023223877 .3809967 .023223877 .35398866 .045074464 .35398866 .08708191 .35398866 .1060791 .35899354 .12808228 .36799623 .16316223L.3999939 .2935028C.4099884 .33251954 .4149933 .3505249 .43598939 .37452699 .44999696 .38952638 .47399903 .4084015 .5059967 .4084015 .5109863 .4084015 .54100039 .4084015 .5629883 .39352418Z"/>
<path id="font_3_1" d="M.34098817-.23803711C.34098817-.23303223 .33799745-.23002625 .33198548-.22303772 .20298767-.105026248 .1639862 .07498169 .1639862 .24996948 .1639862 .40498353 .19400025 .59298709 .33499146 .72698977 .33898927 .73098757 .34098817 .73399356 .34098817 .7389984 .34098817 .74598696 .33599855 .75 .32899476 .75 .31698609 .75 .22698975 .6779785 .17298889 .568985 .125 .47297669 .100997928 .36997987 .100997928 .25097657 .100997928 .17897034 .10998535 .064971927 .16499329-.053024293 .22399903-.17602539 .31698609-.24902344 .32899476-.24902344 .33599855-.24902344 .34098817-.24502564 .34098817-.23803711Z"/>
<path id="font_3_3" d="M.3039856 .6392822C.3039856 .6642761 .30299378 .666275 .27799989 .666275 .21598816 .60227969 .12399292 .60227969 .09298706 .60227969V.57128909C.11199951 .57128909 .17298889 .57128909 .22698975 .5972748V.08001709C.22698975 .042999269 .22399903 .0309906 .1309967 .0309906H.09899902V0C.1349945 .0029907227 .22399903 .0029907227 .2649994 .0029907227 .30599977 .0029907227 .3959961 .0029907227 .43199159 0V.0309906H.3999939C.30699159 .0309906 .3039856 .042999269 .3039856 .08001709V.6392822Z"/>
<path id="font_1_1" d="M.18199158 .015991211C.18199158-.017044068 .18199158-.09921265 .10798645-.17036438 .101989749-.17636109 .101989749-.17736817 .101989749-.18136597 .101989749-.18836975 .10899353-.19335938 .114990238-.19335938 .12599182-.19335938 .20698548-.115249637 .20698548 .0019989014 .20698548 .06399536 .18499756 .10798645 .14199829 .10798645 .10798645 .10798645 .08799744 .08198547 .08799744 .053985597 .08799744 .025985718 .10798645 0 .14199829 0 .15699768 0 .17199707 .004989624 .18199158 .015991211Z"/>
<path id="font_3_2" d="M.2979889 .25097657C.2979889 .3329773 .28599549 .4429779 .23399353 .5539856 .1749878 .6769867 .08198547 .75 .069992069 .75 .05999756 .75 .057998659 .74198916 .057998659 .7389984 .057998659 .73399356 .05999756 .73098757 .066986087 .72398379 .125 .6719818 .23498535 .5359802 .23498535 .25097657 .23498535 .10797119 .20899964-.091033939 .06399536-.22602844 .06199646-.22903443 .057998659-.23303223 .057998659-.23803711 .057998659-.24102783 .05999756-.24902344 .069992069-.24902344 .08198547-.24902344 .17199707-.17703247 .22599793-.06802368 .27398683 .02796936 .2979889 .13098145 .2979889 .25097657Z"/>
<path id="font_3_4" d="M.70799258 .3310089C.7220001 .3310089 .7409973 .3310089 .7409973 .35202027 .7409973 .37402345 .71899417 .37402345 .70399478 .37402345H.09399414C.07899475 .37402345 .056991579 .37402345 .056991579 .35202027 .056991579 .3310089 .07699585 .3310089 .08999634 .3310089H.70799258M.70399478 .12695313C.71899417 .12695313 .7409973 .12695313 .7409973 .14894104 .7409973 .1699524 .7220001 .1699524 .70799258 .1699524H.08999634C.07699585 .1699524 .056991579 .1699524 .056991579 .14894104 .056991579 .12695313 .07899475 .12695313 .09399414 .12695313H.70399478Z"/>
<path id="font_4_105" d="M.3659973 .14405823C.3659973 .1550293 .35299684 .1550293 .34999085 .1550293 .33699037 .1550293 .33599855 .15203858 .32998658 .13806153 .3019867 .06816101 .2599945 .014251709 .21199036 .014251709 .20098877 .014251709 .18399048 .01625061 .18399048 .05519104 .18399048 .06417847 .18699646 .086135867 .19198609 .10610962L.2649994 .3996582H.35099793C.36799623 .3996582 .3789978 .3996582 .3789978 .41766358 .3789978 .43066407 .36898805 .43066407 .35299684 .43066407H.272995L.30999757 .5778961C.31399537 .59191897 .31399537 .59391787 .31399537 .59791567 .31399537 .61494448 .30099488 .62597659 .2849884 .62597659 .2579956 .62597659 .24699402 .6039276 .24299622 .5868988L.20399475 .43066407H.11898804C.101989749 .43066407 .09098816 .43066407 .09098816 .4126587 .09098816 .3996582 .100997928 .3996582 .116989139 .3996582H.19599915L.125 .114089969C.125 .114089969 .11999512 .09512329 .11999512 .08015442 .11999512 .035217287 .15098572-.0107421879 .20999146-.0107421879 .31098939-.0107421879 .3659973 .13406372 .3659973 .14405823Z"/>
<path id="font_4_96" d="M.49899293 .3773651C.49899293 .41937257 .45199586 .4423828 .397995 .4423828 .33799745 .4423828 .2979889 .40637208 .27398683 .37236024 .2630005 .41737367 .22799683 .4423828 .18699646 .4423828 .1539917 .4423828 .1289978 .42237855 .11099243 .3843689 .09498596 .34934999 .08099365 .29333497 .08099365 .28933717 .08099365 .27633668 .09199524 .27633668 .09799194 .27633668 .11299133 .27633668 .11299133 .28033448 .117996219 .30033876 .13798523 .38035584 .15699768 .41737367 .18499756 .41737367 .20098877 .41737367 .21099854 .40837098 .21099854 .3773651 .21099854 .35635377 .20498657 .33035279 .20399475 .32633973L.13198853 .038269044C.12799073 .024261475 .12799073 .022262574 .12799073 .01725769 .12799073-.00074768069 .14199829-.0107421879 .15699768-.0107421879 .17098999-.0107421879 .18998719-.0047454836 .19799805 .026260376L.2630005 .28733827C.2649994 .29434205 .30899049 .41737367 .3959961 .41737367 .4019928 .41737367 .42999269 .41737367 .45098878 .40237428 .42099 .3923645 .41600038 .36836244 .41600038 .35635377 .41600038 .3363495 .43099977 .32434083 .44999696 .32434083 .47599793 .32434083 .49899293 .34635926 .49899293 .3773651Z"/>
<path id="font_4_28" d="M.54100039 .14329529C.54100039 .1552887 .5279999 .1552887 .5239868 .1552887 .5089874 .1552887 .5079956 .1512909 .5039978 .1322937 .4869995 .06626892 .46899415 .014251709 .43598939 .014251709 .4169922 .014251709 .4099884 .030258179 .4099884 .055267335 .4099884 .06427002 .41299439 .08627319 .41799928 .106277469L.4850006 .37435914C.4889984 .3883667 .4889984 .3903656 .4889984 .3943634 .4889984 .41137696 .47599793 .42237855 .45999146 .42237855 .44699098 .42237855 .4249878 .41438294 .4189911 .3863678 .40899659 .40637208 .3829956 .4423828 .33299256 .4423828 .22099304 .4423828 .099990848 .29733277 .099990848 .14628601 .099990848 .044265748 .15899658-.0107421879 .22499085-.0107421879 .2849884-.0107421879 .32899476 .037261964 .34799195 .058258058 .35899354 .014251709 .3939972-.0107421879 .43499757-.0107421879 .48098756-.0107421879 .5019989 .029251099 .5099945 .04626465 .5279999 .08326721 .54100039 .1402893 .54100039 .14329529M.35398866 .12528992C.34498597 .091278079 .28199769 .014251709 .22799683 .014251709 .17298889 .014251709 .16999817 .088272098 .16999817 .103271488 .16999817 .15429688 .19999695 .264328 .21499634 .30233766 .24099732 .36535646 .2889862 .41737367 .33299256 .41737367 .3939972 .41737367 .40299989 .3333435 .40299989 .32635499 .40299989 .3213501 .40299989 .32034303 .3999939 .3103485L.35398866 .12528992Z"/>
<path id="font_4_43" d="M.48199464 .10127258C.47799684 .11428833 .46899415 .120285037 .46299745 .120285037 .45799256 .120285037 .45599366 .11828613 .44898988 .10928345 .3919983 .036254884 .31098939 .014251709 .2649994 .014251709 .21499634 .014251709 .18399048 .052261354 .18399048 .11828613 .18399048 .16029358 .20399475 .2603302 .23999024 .32434083 .2689972 .3753662 .31999208 .41737367 .36999513 .41737367 .38198854 .41737367 .4249878 .41537477 .44198609 .37635804 .397995 .3713684 .3959961 .3333435 .3959961 .3293457 .3959961 .30033876 .4229889 .29634095 .42999269 .29634095 .44898988 .29634095 .47999574 .31134034 .47999574 .35635377 .47999574 .4033661 .43699647 .4423828 .36898805 .4423828 .24099732 .4423828 .11099243 .30033876 .11099243 .1552887 .11099243 .06726074 .1639862-.0107421879 .2639923-.0107421879 .35598756-.0107421879 .44400025 .039260866 .48199464 .10127258Z"/>
<path id="font_4_50" d="M.48199464 .10134888C.47799684 .114364627 .46899415 .12036133 .46299745 .12036133 .45799256 .12036133 .45599366 .11836243 .44898988 .10935974 .3919983 .03627014 .31098939 .014251709 .2649994 .014251709 .19699097 .014251709 .18699646 .09033203 .18699646 .12536621 .18699646 .13337708 .18699646 .16542053 .20298767 .22949219H.23199463C.30699159 .22949219 .35899354 .2374878 .394989 .2514801 .46499635 .27946473 .47399903 .33543397 .47399903 .3564148 .47399903 .40138246 .43598939 .4423828 .36799623 .4423828 .2659912 .4423828 .115997318 .3484192 .115997318 .16741944 .115997318 .05529785 .1789856-.0107421879 .2639923-.0107421879 .35598756-.0107421879 .44400025 .039276124 .48199464 .10134888M.43299867 .35742188C.43299867 .25448609 .27398683 .25448609 .20899964 .25448609 .25498963 .41438294 .35398866 .41737367 .36799623 .41737367 .4119873 .41737367 .43299867 .38739015 .43299867 .35742188Z"/>
<path id="font_4_66" d="M.34098817 .14329529C.34098817 .1552887 .32798768 .1552887 .32398988 .1552887 .30999757 .1552887 .30899049 .15229798 .30299378 .13128662 .29299928 .09527588 .2649994 .014251709 .21099854 .014251709 .20298767 .014251709 .18998719 .01524353 .18998719 .042251588 .18998719 .059265138 .19599915 .08227539 .20698548 .11328125 .22099304 .15029907 .22099304 .15229798 .23799134 .19430542L.27198792 .28833009C.2809906 .31134034 .2919922 .34135438 .2919922 .36036683 .2919922 .40937806 .2579956 .4423828 .21299744 .4423828 .117996219 .4423828 .08099365 .29733277 .08099365 .28833009 .08099365 .27633668 .09298706 .27633668 .09799194 .27633668 .11199951 .27633668 .11299133 .28134156 .116989139 .29333497 .12399292 .3193512 .15098572 .41737367 .20999146 .41737367 .21998596 .41737367 .23098755 .41537477 .23098755 .38937379 .23098755 .36535646 .22399903 .34535218 .20698548 .29833985L.17199707 .205307 .14698792 .1362915C.13899231 .11528015 .12998963 .091278079 .12998963 .0712738 .12998963 .01725769 .16799927-.0107421879 .20899964-.0107421879 .3039856-.0107421879 .34098817 .1362915 .34098817 .14329529M.3619995 .6102905C.3619995 .6382904 .33999635 .6542969 .31698609 .6542969 .28599549 .6542969 .2519989 .62628176 .2519989 .59028628 .2519989 .5622864 .27398683 .54629519 .29699708 .54629519 .32798768 .54629519 .3619995 .57429507 .3619995 .6102905Z"/>
<path id="font_4_77" d="M.6029968 .14329529C.6029968 .1552887 .58999636 .1552887 .58599856 .1552887 .57199099 .1552887 .57099917 .15229798 .5649872 .13128662 .5549927 .09527588 .5269928 .014251709 .47299195 .014251709 .46499635 .014251709 .45199586 .01524353 .45199586 .042251588 .45199586 .06626892 .46398927 .09828186 .47200013 .120285037 .48999024 .16830445 .5309906 .2793274 .5309906 .3363495 .5309906 .4033661 .4909973 .4423828 .42099 .4423828 .34899903 .4423828 .30099488 .39837647 .2749939 .36636354 .2659912 .41638185 .22898865 .4423828 .18699646 .4423828 .1539917 .4423828 .1289978 .42237855 .11099243 .3843689 .09498596 .34934999 .08099365 .29333497 .08099365 .28933717 .08099365 .27633668 .09199524 .27633668 .09799194 .27633668 .11299133 .27633668 .11299133 .28033448 .117996219 .30033876 .13798523 .3803711 .15699768 .41737367 .18499756 .41737367 .20098877 .41737367 .21099854 .40837098 .21099854 .3773651 .21099854 .35635377 .20498657 .33035279 .20399475 .32635499L.13198853 .038253786C.12799073 .024246216 .12799073 .022247315 .12799073 .01725769 .12799073-.00074768069 .14199829-.0107421879 .15699768-.0107421879 .18899536-.0107421879 .19400025 .009246826 .20698548 .06427002L.22898865 .15029907 .26098634 .28033448C.2649994 .29333497 .29299928 .34535218 .31698609 .3693695 .33198548 .3843689 .36499024 .41737367 .4189911 .41737367 .45700074 .41737367 .46598817 .3843689 .46598817 .35235597 .46598817 .29434205 .4229889 .17630005 .4059906 .13128662 .3939972 .09828186 .3919983 .0922699 .3919983 .0712738 .3919983 .01725769 .42999269-.0107421879 .47099305-.0107421879 .56599429-.0107421879 .6029968 .1362915 .6029968 .14329529Z"/>
<path id="font_1_4" d="M.5019989 .38536073C.5029907 .3903656 .5049896 .39637757 .5049896 .40237428 .5049896 .41537477 .49598695 .43138124 .47399903 .43138124 .46099855 .43138124 .44299317 .42337037 .43499757 .40437318 .43399049 .40037538 .42399598 .35935975 .41799928 .33735658L.36799623 .13728333C.3600006 .10827637 .3600006 .106277469 .35798646 .09727478 .35699464 .09327698 .31498719 .014251709 .24299622 .014251709 .18099976 .014251709 .18099976 .07727051 .18099976 .09628296 .18099976 .14129639 .19400025 .19030762 .23699951 .30233766 .24499512 .3253479 .25099183 .33935548 .25099183 .35835267 .25099183 .40737916 .21398926 .4423828 .16499329 .4423828 .068984989 .4423828 .0289917 .30033876 .0289917 .28833009 .0289917 .2793274 .035995485 .27633668 .042999269 .27633668 .053985597 .27633668 .054992677 .28233338 .05899048 .29533387 .07998657 .3693695 .11999512 .41737367 .1619873 .41737367 .18598938 .41737367 .18598938 .39837647 .18598938 .3843689 .18598938 .36735536 .18199158 .34934999 .17298889 .3253479 .12599182 .2013092 .11299133 .15930176 .11299133 .11128235 .11299133 .00024414063 .20298767-.0107421879 .23999024-.0107421879 .2889862-.0107421879 .32398988 .01524353 .34199525 .0332489 .32899476-.017745972 .31799317-.0627594 .2789917-.11276245 .24899292-.15286255 .20899964-.18008423 .16499329-.18008423 .13699341-.18008423 .10398865-.16999817 .08999634-.14176941 .14299011-.14176941 .1499939-.09776306 .1499939-.087768558 .1499939-.06576538 .13398743-.051757814 .11199951-.051757814 .08799744-.051757814 .055999757-.07077026 .055999757-.116760257 .055999757-.16899109 .101989749-.20507813 .16499329-.20507813 .2669983-.20507813 .37599183-.117767337 .40499879-.00074768069L.5019989 .38536073Z"/>
<path id="font_4_44" d="M.30699159 .3866577C.30699159 .4076538 .2919922 .43066407 .2619934 .43066407 .22799683 .43066407 .19599915 .3996582 .19599915 .36665345 .19599915 .33966065 .21598816 .32266236 .24099732 .32266236 .2749939 .32266236 .30699159 .35565187 .30699159 .3866577M.22599793 .06399536C.22599793 .08699036 .20899964 .10798645 .18099976 .10798645 .14498902 .10798645 .114990238 .07398987 .114990238 .04399109 .114990238 .020996094 .13198853 0 .1599884 0 .19599915 0 .22599793 .033996583 .22599793 .06399536Z"/>
<path id="font_2_2" d="M.59599307 .38438417C.59799197 .39138795 .598999 .395401 .598999 .39839173 .598999 .4104004 .58999636 .43139649 .5629883 .43139649 .54599 .43139649 .5289917 .4203949 .5219879 .4064026 .5179901 .3993988 .5109863 .3683777 .5059967 .3493805L.4850006 .26634217 .45399476 .14128113C.44699098 .11326599 .44299317 .09725952 .40299989 .059249879 .3919983 .049240114 .3600006 .023223877 .31698609 .023223877 .24299622 .023223877 .24299622 .088256839 .24299622 .10626221 .24299622 .15028382 .25498963 .19529724 .29899598 .3053589 .30899049 .32936097 .31199647 .33636476 .31199647 .35437013 .31199647 .4104004 .2619934 .44140626 .21199036 .44140626 .10998535 .44140626 .06098938 .3093567 .06098938 .28733827 .06098938 .28234864 .06498718 .27334596 .07899475 .27334596 .09298706 .27334596 .09599304 .27934266 .09899902 .28834535 .1269989 .38539125 .17999268 .4084015 .20799256 .4084015 .22799683 .4084015 .23498535 .395401 .23498535 .37239076 .23498535 .3513794 .22200012 .3173523 .21099854 .29034425 .17599488 .20230103 .1639862 .15628052 .1639862 .120269779 .1639862 .025222779 .23498535-.009765625 .31298829-.009765625 .32699586-.009765625 .37399293-.009765625 .4269867 .036239625 .4139862-.01878357 .40499879-.05781555 .35699464-.109817508 .33898927-.12980652 .2939911-.1710968 .23399353-.1710968 .22499085-.1710968 .18199158-.17008972 .15899658-.14382935 .20298767-.13581848 .20899964-.09681702 .20899964-.08781433 .20899964-.060806276 .18699646-.049804689 .16799927-.049804689 .14299011-.049804689 .10998535-.06980896 .10998535-.11581421 .10998535-.16403198 .15699768-.20410156 .23498535-.20410156 .34098817-.20410156 .46899415-.12580872 .5-.00077819827L.59599307 .38438417Z"/>
<path id="font_1_3" d="M.49198915 .40434266C.45498658 .39733888 .44400025 .3653412 .44400025 .3503418 .44400025 .33132936 .45799256 .31433106 .48298646 .31433106 .5109863 .31433106 .5379944 .33833314 .5379944 .3733368 .5379944 .41937257 .48799134 .4423828 .44099427 .4423828 .3809967 .4423828 .34599305 .38934327 .33399964 .3683319 .31498719 .41737367 .2709961 .4423828 .22299195 .4423828 .115997318 .4423828 .057998659 .31433106 .057998659 .28833009 .057998659 .2793274 .06498718 .2763214 .07199097 .2763214 .08099365 .2763214 .083999637 .2813263 .085998538 .287323 .116989139 .38633729 .18299866 .41737367 .22099304 .41737367 .25 .41737367 .27598573 .3983307 .27598573 .35133363 .27598573 .31533814 .23298645 .15530396 .21998596 .107284549 .21199036 .076293949 .18199158 .014251709 .1269989 .014251709 .10699463 .014251709 .085998538 .021270752 .07598877 .027282715 .102996829 .032287599 .12298584 .055282594 .12298584 .08128357 .12298584 .106292728 .10398865 .11729431 .084991458 .11729431 .055999757 .11729431 .02999878 .092285159 .02999878 .058288576 .02999878 .009246826 .083999637-.0107421879 .12599182-.0107421879 .18399048-.0107421879 .21798706 .03729248 .23298645 .06428528 .2579956-.0017547608 .31698609-.0107421879 .34399415-.0107421879 .45199586-.0107421879 .5089874 .11929321 .5089874 .14329529 .5089874 .14830017 .5059967 .15530396 .49598695 .15530396 .4850006 .15530396 .48399354 .1512909 .47898866 .1362915 .45700074 .06428528 .39898683 .014251709 .34700013 .014251709 .31799317 .014251709 .29100038 .032287599 .29100038 .08029175 .29100038 .10229492 .30499269 .15730286 .31399537 .1953125 .31799317 .21331787 .34498597 .32133485 .34700013 .32833863 .35899354 .3643341 .3889923 .41737367 .43998719 .41737367 .45799256 .41737367 .47698976 .41436769 .49198915 .40434266Z"/>
<path id="font_4_113" d="M1.147995 .6696167C1.147995 .6776123 1.1419983 .6826172 1.1349945 .6826172 1.1299896 .6826172 1.1109924 .6796112 1.0589905 .6796112 1.0269928 .6796112 .9929962 .6826172 .96199038 .6826172 .95599368 .6826172 .94299319 .6826172 .94299319 .6646118 .94299319 .65260317 .95399478 .6516113 .95799258 .6516113 .96798709 .6506195 1.0099945 .64860537 1.0099945 .61460879 1.0099945 .6026001 1.0009918 .5866089 .99598696 .5776062L.7389984 .11054993 .71299746 .6056061C.71199038 .62260439 .71099856 .6506195 .7799988 .6516113 .79100039 .6516113 .8029938 .6516113 .8029938 .6696167 .8029938 .6726074 .8019867 .6826172 .78900149 .6826172 .7539978 .6826172 .71499636 .6796112 .67900088 .6796112 .6469879 .6796112 .6119995 .6826172 .58200076 .6826172 .5779877 .6826172 .5629883 .6826172 .5629883 .6646118 .5629883 .6516113 .57499697 .6516113 .58499148 .6516113 .625 .6516113 .6279907 .6456146 .6309967 .63461306 .6319885 .62861636 .6349945 .5796051 .6349945 .5716095 .6349945 .56559756 .6349945 .5626068 .6289978 .5516052L.38598634 .11054993 .3600006 .6036072C.35899354 .62361147 .35798646 .6506195 .4249878 .6516113 .43899537 .6516113 .44999696 .6516113 .44999696 .6696167 .44999696 .6786041 .44299317 .6826172 .43499757 .6826172 .3999939 .6826172 .3619995 .6796112 .32598878 .6796112 .2939911 .6796112 .25898744 .6826172 .22799683 .6826172 .22299195 .6826172 .20999146 .6826172 .20999146 .6646118 .20999146 .6516113 .22099304 .6516113 .23298645 .6516113 .2769928 .6516113 .27799989 .64460757 .2789917 .61761477L.31098939 .002532959C.31199647-.016464234 .31199647-.022460938 .32998658-.022460938 .34700013-.022460938 .35198976-.014465332 .35798646-.0034637452L.6380005 .5045929 .6639862 .0045318605C.6649933-.015472412 .6649933-.022460938 .68299868-.022460938 .69200137-.022460938 .70199587-.022460938 .71199038-.0034637452L1.0249939 .5646057C1.0639954 .63461306 1.0899963 .6476135 1.1339874 .6516113 1.1439972 .65260317 1.147995 .660614 1.147995 .6696167Z"/>
<path id="font_4_63" d="M.5509949 .14329529C.5509949 .1552887 .5379944 .1552887 .5339966 .1552887 .519989 .1552887 .5189972 .15229798 .5130005 .13128662 .5029907 .09527588 .47499085 .014251709 .42099 .014251709 .41299439 .014251709 .3999939 .01524353 .3999939 .042251588 .3999939 .06626892 .4119873 .09828186 .41999818 .120285037 .43798829 .16830445 .47898866 .2793274 .47898866 .3363495 .47898866 .4033661 .43899537 .4423828 .36898805 .4423828 .31399537 .4423828 .269989 .41737367 .23498535 .3803711L.30499269 .66230776C.30799867 .67630007 .30899049 .6773071 .30899049 .68029788 .30899049 .69329836 .2999878 .6953125 .2829895 .69329836L.1789856 .6843109C.1639862 .68330386 .1539917 .682312 .1539917 .66529849 .1539917 .652298 .1639862 .652298 .18099976 .652298 .22799683 .652298 .22799683 .64430239 .22799683 .63531497 .22799683 .63531497 .22799683 .62831118 .22399903 .61331179L.07998657 .037261964C.07598877 .023254395 .07598877 .021255494 .07598877 .01725769 .07598877 .002243042 .08699036-.0107421879 .10598755-.0107421879 .13699341-.0107421879 .14299011 .014251709 .1499939 .044265748 .1619873 .08728027 .1619873 .089279178 .17199707 .13027954L.20399475 .2603302C.21499634 .30134584 .23498535 .33935548 .2649994 .3693695 .27999879 .3843689 .31298829 .41737367 .36698915 .41737367 .40499879 .41737367 .4139862 .3843689 .4139862 .35235597 .4139862 .29434205 .37098695 .17630005 .35398866 .13128662 .34199525 .09828186 .33999635 .0922699 .33999635 .0712738 .33999635 .01725769 .37799073-.0107421879 .4189911-.0107421879 .5139923-.0107421879 .5509949 .1362915 .5509949 .14329529Z"/>
<path id="font_4_109" d="M.57699587 .14329529C.57699587 .1552887 .56399539 .1552887 .55999758 .1552887 .54499819 .1552887 .5439911 .1512909 .5399933 .1322937 .522995 .06626892 .5049896 .014251709 .47200013 .014251709 .45298768 .014251709 .44599916 .030258179 .44599916 .055267335 .44599916 .06427002 .44898988 .08627319 .45399476 .106277469L.522995 .38237C.5269928 .39637757 .5269928 .39837647 .5269928 .4033661 .5269928 .42137147 .5130005 .43138124 .49798585 .43138124 .46598817 .43138124 .45799256 .40037538 .45599366 .39137269L.3849945 .104278568C.37799073 .07727051 .33699037 .014251709 .2769928 .014251709 .22599793 .014251709 .22200012 .06626892 .22200012 .091278079 .22200012 .14428711 .24499512 .21331787 .2789917 .30633546 .28799439 .3293457 .2919922 .3403473 .2919922 .36036683 .2919922 .40937806 .2579956 .4423828 .21299744 .4423828 .117996219 .4423828 .08099365 .29733277 .08099365 .28833009 .08099365 .27633668 .09298706 .27633668 .09799194 .27633668 .11199951 .27633668 .11299133 .28134156 .116989139 .29333497 .12399292 .3193512 .15098572 .41737367 .20999146 .41737367 .21998596 .41737367 .23098755 .41537477 .23098755 .38937379 .23098755 .36436463 .21998596 .3343506 .21299744 .31533814 .16699219 .19230652 .15699768 .1512909 .15699768 .107284549 .15699768 .009246826 .22799683-.0107421879 .27398683-.0107421879 .31599427-.0107421879 .35299684 .008255005 .3869934 .04925537 .4019928 .0052490236 .43798829-.0107421879 .47099305-.0107421879 .5169983-.0107421879 .5379944 .029251099 .54599 .04626465 .56399539 .08326721 .57699587 .1402893 .57699587 .14329529Z"/>
<path id="font_4_75" d="M.8659973 .14329529C.8659973 .1552887 .8529968 .1552887 .848999 .1552887 .83499148 .1552887 .83399966 .15229798 .8279877 .13128662 .81799319 .09527588 .7899933 .014251709 .73599246 .014251709 .7279968 .014251709 .71499636 .01524353 .71499636 .042251588 .71499636 .06626892 .72698977 .09828186 .7350006 .120285037 .7529907 .16830445 .7939911 .2793274 .7939911 .3363495 .7939911 .4033661 .7539978 .4423828 .6839905 .4423828 .61499026 .4423828 .56599429 .40437318 .5309906 .35635377 .522995 .41438294 .47999574 .4423828 .42199708 .4423828 .36698915 .4423828 .31698609 .41838075 .2749939 .36535646 .2659912 .41737367 .22799683 .4423828 .18699646 .4423828 .1539917 .4423828 .1289978 .42237855 .11099243 .3843689 .09498596 .34934999 .08099365 .29333497 .08099365 .28933717 .08099365 .27633668 .09199524 .27633668 .09799194 .27633668 .11299133 .27633668 .11299133 .28033448 .117996219 .30033876 .13798523 .3803711 .15699768 .41737367 .18499756 .41737367 .20098877 .41737367 .21099854 .40837098 .21099854 .3773651 .21099854 .35635377 .20498657 .33035279 .20399475 .32635499L.13198853 .038253786C.12799073 .024246216 .12799073 .022247315 .12799073 .01725769 .12799073-.00074768069 .14199829-.0107421879 .15699768-.0107421879 .18899536-.0107421879 .19400025 .009246826 .20698548 .06427002L.22898865 .15029907 .26098634 .28033448C.2630005 .28733827 .28799439 .3423462 .32699586 .379364 .35499574 .40538026 .3889923 .41737367 .4189911 .41737367 .44898988 .41737367 .46699525 .39736939 .46699525 .35134889 .46699525 .3333435 .46099855 .30334474 .45799256 .29034425L.394989 .038253786C.3909912 .024246216 .3909912 .022247315 .3909912 .01725769 .3909912-.00074768069 .40499879-.0107421879 .41999818-.0107421879 .45199586-.0107421879 .45700074 .009246826 .46998597 .06427002L.49198915 .15029907 .5239868 .28033448C.5279999 .29333497 .55599978 .34535218 .5799866 .3693695 .59498599 .3843689 .6279907 .41737367 .6819916 .41737367 .7200012 .41737367 .72898867 .3843689 .72898867 .35235597 .72898867 .29434205 .6859894 .17630005 .6689911 .13128662 .6569977 .09828186 .6549988 .0922699 .6549988 .0712738 .6549988 .01725769 .69299319-.0107421879 .73399356-.0107421879 .82899478-.0107421879 .8659973 .1362915 .8659973 .14329529Z"/>
<path id="font_4_35" d="M.46899415 .28533937C.46899415 .38237 .4139862 .4423828 .34399415 .4423828 .29100038 .4423828 .24598694 .3993683 .23799134 .3923645L.30499269 .66230776C.30799867 .67630007 .30899049 .6773071 .30899049 .68029788 .30899049 .69329836 .2999878 .6953125 .2829895 .69329836L.1789856 .6843109C.1639862 .68330386 .1539917 .682312 .1539917 .66529849 .1539917 .652298 .1639862 .652298 .18099976 .652298 .22799683 .652298 .22799683 .64430239 .22799683 .63531497 .22799683 .62831118 .22599793 .62031558 .22399903 .61331179L.12399292 .21430969C.117996219 .19030762 .114990238 .16029358 .114990238 .14428711 .114990238 .060272218 .15899658-.0107421879 .23599243-.0107421879 .34999085-.0107421879 .46899415 .1382904 .46899415 .28533937M.35398866 .13027954C.31900025 .04725647 .269989 .014251709 .23599243 .014251709 .18899536 .014251709 .17599488 .0712738 .17599488 .10928345 .17599488 .14729309 .18598938 .18431092 .20498657 .264328 .20999146 .28433229 .21998596 .32034303 .22200012 .323349 .2669983 .3943634 .31098939 .41737367 .34199525 .41737367 .39898683 .41737367 .39898683 .3343506 .39898683 .32835389 .39898683 .2773285 .36698915 .16130066 .35398866 .13027954Z"/>
<path id="font_4_84" d="M.5219879 .28433229C.5219879 .38136292 .46798707 .4423828 .3959961 .4423828 .34298707 .4423828 .30499269 .40538026 .272995 .37435914 .25898744 .42938233 .21499634 .4423828 .18699646 .4423828 .1539917 .4423828 .1289978 .42237855 .11099243 .3843689 .09498596 .34934999 .08099365 .29333497 .08099365 .28933717 .08099365 .27633668 .09199524 .27633668 .09799194 .27633668 .11299133 .27633668 .11299133 .28033448 .117996219 .30033876 .13798523 .3803711 .15699768 .41737367 .18499756 .41737367 .20098877 .41737367 .21099854 .40837098 .21099854 .3773651 .21099854 .35635377 .20498657 .33035279 .20399475 .32635499L.09098816-.12701416C.08299255-.15908814 .07598877-.16308594 .036987306-.16308594 .027999878-.16308594 .015991211-.16308594 .015991211-.18109131 .015991211-.18609619 .017990113-.1940918 .0289917-.1940918 .054992677-.1940918 .085998538-.19110108 .11399841-.19110108 .14698792-.19110108 .18099976-.1940918 .21199036-.1940918 .21699524-.1940918 .22999573-.1940918 .22999573-.17608643 .22999573-.16308594 .21899414-.16308594 .20298767-.16308594 .1559906-.16308594 .1559906-.15608216 .1559906-.14706421 .1559906-.1360321 .19799805 .024246216 .20298767 .044265748 .22399903 .0062561037 .2539978-.0107421879 .2889862-.0107421879 .40299989-.0107421879 .5219879 .1382904 .5219879 .28433229M.40098573 .11628723C.37599183 .06227112 .33099366 .014251709 .2889862 .014251709 .2669983 .014251709 .25 .025253296 .23699951 .04626465 .22200012 .07026672 .21899414 .106277469 .21899414 .106277469 .21899414 .106277469 .21998596 .11628723 .22099304 .119277957L.2679901 .30534364C.27598573 .33535768 .29699708 .35835267 .31900025 .379364 .35099793 .41036988 .3789978 .41737367 .3939972 .41737367 .44898988 .41737367 .45199586 .34135438 .45199586 .32835389 .45199586 .27633668 .42099 .16029358 .40098573 .11628723Z"/>
<path id="font_4_98" d="M.40299989 .15620423C.40299989 .18418885 .3929901 .21018982 .37298585 .23118592 .34700013 .25717164 .32398988 .2621765 .2789917 .27116395 .24899292 .27816773 .21299744 .28515626 .21299744 .32815553 .21299744 .3461609 .22898865 .41737367 .31599427 .41737367 .34599305 .41737367 .38198854 .4053192 .3919983 .37016297 .35499574 .36315919 .35499574 .33015443 .35499574 .33015443 .35499574 .32115174 .36099244 .30215455 .3849945 .30215455 .40699769 .30215455 .42799378 .31915284 .42799378 .3561554 .42799378 .40130616 .3880005 .4423828 .31599427 .4423828 .19898987 .4423828 .15499878 .3491516 .15499878 .29415895 .15499878 .21618653 .22200012 .20219422 .2519989 .19519043 .29899598 .18519593 .34399415 .17520142 .34399415 .12321472 .34399415 .09422302 .31999208 .014251709 .21099854 .014251709 .18499756 .014251709 .1289978 .021255494 .11299133 .068237308 .1599884 .07322693 .1599884 .115219119 .1599884 .115219119 .1599884 .14221192 .13699341 .14820862 .12599182 .14820862 .11999512 .14820862 .07598877 .14520264 .07598877 .08622742 .07598877 .03024292 .1289978-.0107421879 .21099854-.0107421879 .3639984-.0107421879 .40299989 .11122131 .40299989 .15620423Z"/>
<path id="font_4_45" d="M.22799683 .04699707C.22799683 .07798767 .21699524 .10798645 .18099976 .10798645 .13999939 .10798645 .114990238 .070999149 .114990238 .042999269 .114990238 .016998291 .1329956 0 .1599884 0 .18199158 0 .18998719 .005996704 .19799805 .011993408 .1789856-.072128299 .12998963-.12922669 .08299255-.16830445 .07699585-.1743164 .07598877-.17530823 .07499695-.17730713L.07299805-.18232727C.07499695-.18833924 .07998657-.19433594 .085998538-.19433594 .10398865-.19433594 .22799683-.072128299 .22799683 .04699707Z"/>
<path id="font_4_47" d="M.5509949 .14329529C.5509949 .1552887 .5379944 .1552887 .5339966 .1552887 .5189972 .1552887 .5179901 .1512909 .5139923 .1322937 .49699403 .06626892 .47898866 .014251709 .44599916 .014251709 .4269867 .014251709 .41999818 .030258179 .41999818 .055267335 .41999818 .06427002 .4229889 .08627319 .42799378 .106277469L.5669861 .66230776C.56999209 .6753082 .57099917 .6773071 .57099917 .68029788 .57099917 .69329836 .56199648 .6953125 .54499819 .69329836L.44099427 .6843109C.42599488 .68330386 .41600038 .682312 .41600038 .66529849 .41600038 .652298 .42599488 .652298 .44299317 .652298 .48999024 .652298 .48999024 .64430239 .48999024 .63531497 .48999024 .62931826 .48999024 .62731936 .48599244 .61331179L.42900086 .3863678C.4189911 .40637208 .3929901 .4423828 .34298707 .4423828 .23098755 .4423828 .10998535 .29733277 .10998535 .14628601 .10998535 .044265748 .16899109-.0107421879 .23498535-.0107421879 .29499818-.0107421879 .33898927 .037261964 .35798646 .058258058 .36898805 .014251709 .4039917-.0107421879 .44499208-.0107421879 .4909973-.0107421879 .5119934 .029251099 .519989 .04626465 .5379944 .08326721 .5509949 .1402893 .5509949 .14329529M.3639984 .12528992C.35499574 .091278079 .2919922 .014251709 .23799134 .014251709 .18299866 .014251709 .17999268 .088272098 .17999268 .103271488 .17999268 .15429688 .20999146 .264328 .22499085 .30233766 .25099183 .36535646 .29899598 .41737367 .34298707 .41737367 .4039917 .41737367 .41299439 .3333435 .41299439 .32635499 .41299439 .3213501 .41299439 .32034303 .4099884 .3103485L.3639984 .12528992Z"/>
<path id="font_4_114" d="M.71299746 .3733673C.71299746 .42938233 .6859894 .4423828 .66999819 .4423828 .6489868 .4423828 .621994 .42137147 .621994 .39637757 .621994 .3863678 .6239929 .38136292 .6319885 .37236024 .6429901 .35935975 .6619873 .33735658 .6619873 .29034425 .6619873 .2513275 .6289978 .1402893 .6139984 .106277469 .59999087 .07426453 .57099917 .014251709 .5119934 .014251709 .44898988 .014251709 .44599916 .07527161 .44599916 .09727478 .44599916 .12628174 .45298768 .15429688 .45999146 .18130493L.49899293 .33735658C.5039978 .35935975 .5139923 .39736939 .5139923 .4033661 .5139923 .42137147 .5 .43138124 .4850006 .43138124 .46899415 .43138124 .45098878 .42337037 .44400025 .3943634L.3889923 .17530823C.3880005 .17030335 .3809967 .14228821 .3809967 .11727905 .3809967 .09727478 .37298585 .07727051 .35398866 .05026245 .33699037 .026260376 .31799317 .014251709 .29599 .014251709 .22399903 .014251709 .22399903 .08427429 .22399903 .10127258 .22399903 .14628601 .23899842 .1973114 .27799989 .30433656 .28799439 .33035279 .2919922 .3403473 .2919922 .36036683 .2919922 .40937806 .2579956 .4423828 .21299744 .4423828 .117996219 .4423828 .08099365 .29733277 .08099365 .28833009 .08099365 .27633668 .09298706 .27633668 .09799194 .27633668 .11199951 .27633668 .11299133 .28134156 .116989139 .29333497 .12399292 .3193512 .15098572 .41737367 .20999146 .41737367 .21998596 .41737367 .23098755 .41537477 .23098755 .38937379 .23098755 .36436463 .21998596 .3343506 .21299744 .31533814 .16799927 .19430542 .1579895 .15429688 .1579895 .11428833 .1579895 .007247925 .24499512-.0107421879 .29299928-.0107421879 .33299256-.0107421879 .3659973 .009246826 .3919983 .052261354 .4189911-.002746582 .47799684-.0107421879 .5089874-.0107421879 .58599856-.0107421879 .6259918 .057266237 .644989 .103271488 .6759949 .17530823 .71299746 .3173523 .71299746 .3733673Z"/>
<path id="font_4_118" d="M.42599488-.003753662 .5219879 .38237C.526001 .39736939 .526001 .3993683 .526001 .4033661 .526001 .42137147 .5119934 .43138124 .49699403 .43138124 .47999574 .43138124 .46299745 .42237855 .45599366 .3943634L.3829956 .104278568C.37298585 .06326294 .32798768 .014251709 .2769928 .014251709 .22698975 .014251709 .22200012 .06427002 .22200012 .091278079 .22200012 .14428711 .24499512 .21331787 .2789917 .30633546 .28799439 .3293457 .2919922 .3403473 .2919922 .36036683 .2919922 .40937806 .2579956 .4423828 .21299744 .4423828 .117996219 .4423828 .08099365 .29733277 .08099365 .28833009 .08099365 .27633668 .09298706 .27633668 .09799194 .27633668 .11199951 .27633668 .11299133 .28134156 .116989139 .29333497 .12399292 .3193512 .15098572 .41737367 .20999146 .41737367 .21998596 .41737367 .23098755 .41537477 .23098755 .38937379 .23098755 .36436463 .21998596 .3343506 .21299744 .31533814 .16699219 .19230652 .15699768 .1512909 .15699768 .107284549 .15699768 .0012512207 .23999024-.0107421879 .272995-.0107421879 .2919922-.0107421879 .32699586-.007751465 .36299134 .024246216 .32998658-.12471008 .25698854-.1796875 .20098877-.1796875 .17399597-.1796875 .14698792-.16569519 .13899231-.13670349 .18598938-.13171387 .18699646-.09172058 .18699646-.08872986 .18699646-.068725589 .17098999-.056732179 .15299988-.056732179 .13598633-.056732179 .102996829-.067733768 .102996829-.11772156 .102996829-.17070008 .14498902-.20469666 .20098877-.20469666 .31098939-.20469666 .40299989-.096725467 .42599488-.003753662Z"/>
</defs>
<path transform="matrix(1.00003,0,0,-1.00003,2.2955018,398.8615)" stroke-width=".79701" stroke-linecap="butt" stroke-miterlimit="10" stroke-linejoin="miter" fill="none" stroke="#b9b9b9" d="M0 7.97021V388.88514C0 393.287 3.56833 396.85533 7.97021 396.85533H417.23194C421.6338 396.85533 425.20213 393.287 425.20213 388.88514V7.97021C425.20213 3.56833 421.6338 0 417.23194 0H7.97021C3.56833 0 0 3.56833 0 7.97021ZM425.20213 396.85533"/>
<path transform="matrix(1.00003,0,0,-1.00003,2.2955018,398.8615)" stroke-width=".3985" stroke-linecap="butt" stroke-miterlimit="10" stroke-linejoin="miter" fill="none" stroke="#d2d2d2" d="M0 297.6415H425.20213"/>
<path transform="matrix(1.00003,0,0,-1.00003,2.2955018,398.8615)" stroke-width=".3985" stroke-linecap="butt" stroke-miterlimit="10" stroke-linejoin="miter" fill="none" stroke="#d2d2d2" d="M0 198.42766H425.20213"/>
<path transform="matrix(1.00003,0,0,-1.00003,2.2955018,398.8615)" stroke-width=".3985" stroke-linecap="butt" stroke-miterlimit="10" stroke-linejoin="miter" fill="none" stroke="#d2d2d2" d="M0 99.21382H425.20213"/>
<use data-text="f" xlink:href="#font_1_2" transform="matrix(8.966669,0,0,-8.966669,15.736908,20.744172)"/>
<use data-text="x" xlink:href="#font_2_1" transform="matrix(5.97778,0,0,-5.97778,20.210045,21.740204)"/>
<use data-text="(" xlink:href="#font_3_1" transform="matrix(8.966669,0,0,-8.966669,24.88018,20.744172)"/>
<use data-text="1" xlink:href="#font_3_3" transform="matrix(8.966669,0,0,-8.966669,28.457879,20.744172)"/>
<use data-text="," xlink:href="#font_1_1" transform="matrix(8.966669,0,0,-8.966669,33.071428,20.744172)"/>
<use data-text="1" xlink:href="#font_3_3" transform="matrix(8.966669,0,0,-8.966669,37.16755,20.744172)"/>
<use data-text=")" xlink:href="#font_3_2" transform="matrix(8.966669,0,0,-8.966669,41.76745,20.744172)"/>
<use data-text="=" xlink:href="#font_3_4" transform="matrix(8.966669,0,0,-8.966669,47.900659,20.744172)"/>
<use data-text="t" xlink:href="#font_4_105" transform="matrix(8.966669,0,0,-8.966669,76.31073,20.744172)"/>
<use data-text="r" xlink:href="#font_4_96" transform="matrix(8.966669,0,0,-8.966669,79.36836,20.744172)"/>
<use data-text="a" xlink:href="#font_4_28" transform="matrix(8.966669,0,0,-8.966669,82.793628,20.744172)"/>
<use data-text="c" xlink:href="#font_4_43" transform="matrix(8.966669,0,0,-8.966669,87.50113,20.744172)"/>
<use data-text="e" xlink:href="#font_4_50" transform="matrix(8.966669,0,0,-8.966669,91.26715,20.744172)"/>
<use data-text="i" xlink:href="#font_4_66" transform="matrix(8.966669,0,0,-8.966669,98.78122,20.744172)"/>
<use data-text="n" xlink:href="#font_4_77" transform="matrix(8.966669,0,0,-8.966669,101.60573,20.744172)"/>
<use data-text="y" xlink:href="#font_1_4" transform="matrix(8.966669,0,0,-8.966669,110.070758,20.744172)"/>
<use data-text="=" xlink:href="#font_3_4" transform="matrix(8.966669,0,0,-8.966669,117.49097,20.744172)"/>
<use data-text="1" xlink:href="#font_3_3" transform="matrix(8.966669,0,0,-8.966669,127.21083,20.744172)"/>
<use data-text=":" xlink:href="#font_4_44" transform="matrix(8.966669,0,0,-8.966669,131.82642,20.744172)"/>
<use data-text="f" xlink:href="#font_1_2" transform="matrix(8.966669,0,0,-8.966669,15.736908,119.96011)"/>
<use data-text="y" xlink:href="#font_2_2" transform="matrix(5.97778,0,0,-5.97778,20.210045,120.95615)"/>
<use data-text="(" xlink:href="#font_3_1" transform="matrix(8.966669,0,0,-8.966669,24.707177,119.96011)"/>
<use data-text="1" xlink:href="#font_3_3" transform="matrix(8.966669,0,0,-8.966669,28.284874,119.96011)"/>
<use data-text="," xlink:href="#font_1_1" transform="matrix(8.966669,0,0,-8.966669,32.89843,119.96011)"/>
<use data-text="1" xlink:href="#font_3_3" transform="matrix(8.966669,0,0,-8.966669,36.994554,119.96011)"/>
<use data-text=")" xlink:href="#font_3_2" transform="matrix(8.966669,0,0,-8.966669,41.59445,119.96011)"/>
<use data-text="=" xlink:href="#font_3_4" transform="matrix(8.966669,0,0,-8.966669,47.727655,119.96011)"/>
<use data-text="t" xlink:href="#font_4_105" transform="matrix(8.966669,0,0,-8.966669,76.137729,119.96011)"/>
<use data-text="r" xlink:href="#font_4_96" transform="matrix(8.966669,0,0,-8.966669,79.19536,119.96011)"/>
<use data-text="a" xlink:href="#font_4_28" transform="matrix(8.966669,0,0,-8.966669,82.62062,119.96011)"/>
<use data-text="c" xlink:href="#font_4_43" transform="matrix(8.966669,0,0,-8.966669,87.328128,119.96011)"/>
<use data-text="e" xlink:href="#font_4_50" transform="matrix(8.966669,0,0,-8.966669,91.09413,119.96011)"/>
<use data-text="i" xlink:href="#font_4_66" transform="matrix(8.966669,0,0,-8.966669,98.608219,119.96011)"/>
<use data-text="n" xlink:href="#font_4_77" transform="matrix(8.966669,0,0,-8.966669,101.432727,119.96011)"/>
<use data-text="x" xlink:href="#font_1_3" transform="matrix(8.966669,0,0,-8.966669,109.897739,119.96011)"/>
<use data-text="=" xlink:href="#font_3_4" transform="matrix(8.966669,0,0,-8.966669,117.680988,119.96011)"/>
<use data-text="1" xlink:href="#font_3_3" transform="matrix(8.966669,0,0,-8.966669,127.40085,119.96011)"/>
<use data-text=":" xlink:href="#font_4_44" transform="matrix(8.966669,0,0,-8.966669,132.01642,119.96011)"/>
<use data-text="W" xlink:href="#font_4_113" transform="matrix(8.966669,0,0,-8.966669,15.736908,218.6841)"/>
<use data-text="h" xlink:href="#font_4_63" transform="matrix(8.966669,0,0,-8.966669,24.927742,218.6841)"/>
<use data-text="a" xlink:href="#font_4_28" transform="matrix(8.966669,0,0,-8.966669,29.635247,218.6841)"/>
<use data-text="t" xlink:href="#font_4_105" transform="matrix(8.966669,0,0,-8.966669,34.342744,218.6841)"/>
<use data-text="e" xlink:href="#font_4_50" transform="matrix(8.966669,0,0,-8.966669,40.691148,218.6841)"/>
<use data-text="a" xlink:href="#font_4_28" transform="matrix(8.966669,0,0,-8.966669,44.466119,218.6841)"/>
<use data-text="c" xlink:href="#font_4_43" transform="matrix(8.966669,0,0,-8.966669,49.173624,218.6841)"/>
<use data-text="h" xlink:href="#font_4_63" transform="matrix(8.966669,0,0,-8.966669,53.405885,218.6841)"/>
<use data-text="n" xlink:href="#font_4_77" transform="matrix(8.966669,0,0,-8.966669,61.395189,218.6841)"/>
<use data-text="u" xlink:href="#font_4_109" transform="matrix(8.966669,0,0,-8.966669,66.568958,218.6841)"/>
<use data-text="m" xlink:href="#font_4_75" transform="matrix(8.966669,0,0,-8.966669,71.5096,218.6841)"/>
<use data-text="b" xlink:href="#font_4_35" transform="matrix(8.966669,0,0,-8.966669,79.041599,218.6841)"/>
<use data-text="e" xlink:href="#font_4_50" transform="matrix(8.966669,0,0,-8.966669,82.81656,218.6841)"/>
<use data-text="r" xlink:href="#font_4_96" transform="matrix(8.966669,0,0,-8.966669,87.04883,218.6841)"/>
<use data-text="r" xlink:href="#font_4_96" transform="matrix(8.966669,0,0,-8.966669,94.213199,218.6841)"/>
<use data-text="e" xlink:href="#font_4_50" transform="matrix(8.966669,0,0,-8.966669,97.63846,218.6841)"/>
<use data-text="p" xlink:href="#font_4_84" transform="matrix(8.966669,0,0,-8.966669,101.87074,218.6841)"/>
<use data-text="r" xlink:href="#font_4_96" transform="matrix(8.966669,0,0,-8.966669,106.57825,218.6841)"/>
<use data-text="e" xlink:href="#font_4_50" transform="matrix(8.966669,0,0,-8.966669,109.99455,218.6841)"/>
<use data-text="s" xlink:href="#font_4_98" transform="matrix(8.966669,0,0,-8.966669,114.22682,218.6841)"/>
<use data-text="e" xlink:href="#font_4_50" transform="matrix(8.966669,0,0,-8.966669,117.99281,218.6841)"/>
<use data-text="n" xlink:href="#font_4_77" transform="matrix(8.966669,0,0,-8.966669,122.2251,218.6841)"/>
<use data-text="t" xlink:href="#font_4_105" transform="matrix(8.966669,0,0,-8.966669,127.398868,218.6841)"/>
<use data-text="s" xlink:href="#font_4_98" transform="matrix(8.966669,0,0,-8.966669,130.4565,218.6841)"/>
<use data-text=":" xlink:href="#font_4_44" transform="matrix(8.966669,0,0,-8.966669,134.22249,218.6841)"/>
<use data-text="W" xlink:href="#font_4_113" transform="matrix(8.966669,0,0,-8.966669,15.736908,317.90107)"/>
<use data-text="h" xlink:href="#font_4_63" transform="matrix(8.966669,0,0,-8.966669,24.927742,317.90107)"/>
<use data-text="i" xlink:href="#font_4_66" transform="matrix(8.966669,0,0,-8.966669,29.635247,317.90107)"/>
<use data-text="c" xlink:href="#font_4_43" transform="matrix(8.966669,0,0,-8.966669,32.459749,317.90107)"/>
<use data-text="h" xlink:href="#font_4_63" transform="matrix(8.966669,0,0,-8.966669,36.69201,317.90107)"/>
<use data-text="i" xlink:href="#font_4_66" transform="matrix(8.966669,0,0,-8.966669,44.690286,317.90107)"/>
<use data-text="s" xlink:href="#font_4_98" transform="matrix(8.966669,0,0,-8.966669,47.514787,317.90107)"/>
<use data-text="s" xlink:href="#font_4_98" transform="matrix(8.966669,0,0,-8.966669,54.571565,317.90107)"/>
<use data-text="t" xlink:href="#font_4_105" transform="matrix(8.966669,0,0,-8.966669,58.33757,317.90107)"/>
<use data-text="e" xlink:href="#font_4_50" transform="matrix(8.966669,0,0,-8.966669,61.395204,317.90107)"/>
<use data-text="e" xlink:href="#font_4_50" transform="matrix(8.966669,0,0,-8.966669,65.170169,317.90107)"/>
<use data-text="p" xlink:href="#font_4_84" transform="matrix(8.966669,0,0,-8.966669,69.40245,317.90107)"/>
<use data-text="e" xlink:href="#font_4_50" transform="matrix(8.966669,0,0,-8.966669,73.64369,317.90107)"/>
<use data-text="r" xlink:href="#font_4_96" transform="matrix(8.966669,0,0,-8.966669,77.87596,317.90107)"/>
<use data-text="," xlink:href="#font_4_45" transform="matrix(8.966669,0,0,-8.966669,81.75853,317.90107)"/>
<use data-text="a" xlink:href="#font_4_28" transform="matrix(8.966669,0,0,-8.966669,87.86484,317.90107)"/>
<use data-text="n" xlink:href="#font_4_77" transform="matrix(8.966669,0,0,-8.966669,92.57234,317.90107)"/>
<use data-text="d" xlink:href="#font_4_47" transform="matrix(8.966669,0,0,-8.966669,97.74611,317.90107)"/>
<use data-text="w" xlink:href="#font_4_114" transform="matrix(8.966669,0,0,-8.966669,105.744388,317.90107)"/>
<use data-text="h" xlink:href="#font_4_63" transform="matrix(8.966669,0,0,-8.966669,111.85965,317.90107)"/>
<use data-text="y" xlink:href="#font_4_118" transform="matrix(8.966669,0,0,-8.966669,116.567157,317.90107)"/>
<use data-text=":" xlink:href="#font_4_44" transform="matrix(8.966669,0,0,-8.966669,121.03256,317.90107)"/>
</svg>
