<svg xmlns="http://www.w3.org/2000/svg" xmlns:xlink="http://www.w3.org/1999/xlink" xmlns:inkscape="http://www.inkscape.org/namespaces/inkscape" version="1.1" width="231" height="316" viewBox="0 0 231 316">
<defs>
<path id="font_1_49" d="M.70399478 .24491883C.70399478 .2579193 .69099429 .2579193 .68699648 .2579193 .6819916 .2579193 .67900088 .2579193 .6749878 .25491334 .6729889 .25390626 .6729889 .25190736 .6619873 .22792053 .60398867 .0909729 .5649872 .0309906 .40899659 .0309906H.27799989C.26098634 .0309906 .25898744 .0309906 .24899292 .033996583 .24899292 .04399109 .24899292 .048980714 .25299073 .06298828L.32199098 .33789063H.4139862C.48298646 .33789063 .48999024 .32188417 .48999024 .29589845 .48999024 .28889466 .48999024 .27590943 .48399354 .25190736 .48199464 .24491883 .47999574 .23692322 .47999574 .23391724 .47999574 .220932 .49198915 .220932 .49598695 .220932 .5059967 .220932 .5109863 .22192383 .5159912 .24092102L.56900027 .45507813C.57299807 .46907044 .57299807 .4700775 .57299807 .47306825 .57299807 .48606874 .55999758 .48606874 .55599978 .48606874 .5419922 .48606874 .54100039 .48207093 .5359955 .46406556 .5169983 .38893128 .49598695 .36888124 .41600038 .36888124H.32998658L.3909912 .61476138C.39898683 .64868167 .40699769 .64868167 .43899537 .64868167H.57099917C.69099429 .64868167 .70599368 .61177065 .70599368 .5449219 .70599368 .5449219 .70599368 .5169983 .7029877 .49105836 .70199587 .4870758 .69999697 .47407533 .69999697 .4700775 .69999697 .45507813 .71099856 .45507813 .71699526 .45507813 .7319946 .45507813 .73298647 .46107484 .7350006 .47807313L.7579956 .66567996C.7579956 .6796875 .746994 .6796875 .73098757 .6796875H.25698854C.24099732 .6796875 .22898865 .6796875 .22898865 .6616821 .22898865 .64868167 .23899842 .64868167 .25498963 .64868167 .31298829 .64868167 .31298829 .6427002 .31298829 .63171389 .31298829 .6277313 .31298829 .6257324 .30899049 .61076357L.1749878 .07298279C.1659851 .037994386 .1599884 .0309906 .09298706 .0309906 .07699585 .0309906 .06599426 .0309906 .06599426 .0129852299 .06599426 0 .07699585 0 .09298706 0H.5799866C.60198977 0 .60398867 0 .61099246 .017990113L.69799807 .22892761C.70399478 .24191284 .70399478 .24491883 .70399478 .24491883Z"/>
<path id="font_1_91" d="M.43899537-.17608643C.43899537-.16308594 .42799378-.16308594 .4119873-.16308594 .36499024-.16308594 .36499024-.15608216 .36499024-.14706421 .36499024-.14305115 .36499024-.14103699 .36898805-.12701416L.5029907 .41036988C.5059967 .42337037 .5069885 .42536927 .5069885 .42837525 .5069885 .44036866 .49499513 .4423828 .49499513 .4423828 .48599244 .4423828 .45098878 .41236878 .43199159 .379364 .41799928 .41036988 .3899994 .4423828 .34199525 .4423828 .23098755 .4423828 .10998535 .29533387 .10998535 .14729309 .10998535 .043258668 .16999817-.0107421879 .23498535-.0107421879 .2889862-.0107421879 .33499146 .0332489 .34098817 .039260866L.30599977-.10496521C.2919922-.16007996 .29100038-.16209412 .22799683-.16308594 .21598816-.16308594 .20399475-.16308594 .20399475-.18109131 .20399475-.18109131 .20399475-.1940918 .21798706-.1940918 .25-.1940918 .2849884-.19110108 .31799317-.19110108 .35198976-.19110108 .3880005-.1940918 .42099-.1940918 .42599488-.1940918 .43899537-.1940918 .43899537-.17608643M.36299134 .12528992C.35398866 .090270999 .29100038 .014251709 .23699951 .014251709 .18798828 .014251709 .17999268 .07426453 .17999268 .104278568 .17999268 .14828491 .20799256 .26333619 .23199463 .3173523 .25498963 .36735536 .2999878 .41737367 .34199525 .41737367 .40499879 .41737367 .4119873 .3273468 .4119873 .32434083L.40899659 .3103485 .36299134 .12528992Z"/>
<path id="font_1_109" d="M.57699587 .14329529C.57699587 .1552887 .56399539 .1552887 .55999758 .1552887 .54499819 .1552887 .5439911 .1512909 .5399933 .1322937 .522995 .06626892 .5049896 .014251709 .47200013 .014251709 .45298768 .014251709 .44599916 .030258179 .44599916 .055267335 .44599916 .06427002 .44898988 .08627319 .45399476 .106277469L.522995 .38237C.5269928 .39637757 .5269928 .39837647 .5269928 .4033661 .5269928 .42137147 .5130005 .43138124 .49798585 .43138124 .46598817 .43138124 .45799256 .40037538 .45599366 .39137269L.3849945 .104278568C.37799073 .07727051 .33699037 .014251709 .2769928 .014251709 .22599793 .014251709 .22200012 .06626892 .22200012 .091278079 .22200012 .14428711 .24499512 .21331787 .2789917 .30633546 .28799439 .3293457 .2919922 .3403473 .2919922 .36036683 .2919922 .40937806 .2579956 .4423828 .21299744 .4423828 .117996219 .4423828 .08099365 .29733277 .08099365 .28833009 .08099365 .27633668 .09298706 .27633668 .09799194 .27633668 .11199951 .27633668 .11299133 .28134156 .116989139 .29333497 .12399292 .3193512 .15098572 .41737367 .20999146 .41737367 .21998596 .41737367 .23098755 .41537477 .23098755 .38937379 .23098755 .36436463 .21998596 .3343506 .21299744 .31533814 .16699219 .19230652 .15699768 .1512909 .15699768 .107284549 .15699768 .009246826 .22799683-.0107421879 .27398683-.0107421879 .31599427-.0107421879 .35299684 .008255005 .3869934 .04925537 .4019928 .0052490236 .43798829-.0107421879 .47099305-.0107421879 .5169983-.0107421879 .5379944 .029251099 .54599 .04626465 .56399539 .08326721 .57699587 .1402893 .57699587 .14329529Z"/>
<path id="font_1_28" d="M.54100039 .14329529C.54100039 .1552887 .5279999 .1552887 .5239868 .1552887 .5089874 .1552887 .5079956 .1512909 .5039978 .1322937 .4869995 .06626892 .46899415 .014251709 .43598939 .014251709 .4169922 .014251709 .4099884 .030258179 .4099884 .055267335 .4099884 .06427002 .41299439 .08627319 .41799928 .106277469L.4850006 .37435914C.4889984 .3883667 .4889984 .3903656 .4889984 .3943634 .4889984 .41137696 .47599793 .42237855 .45999146 .42237855 .44699098 .42237855 .4249878 .41438294 .4189911 .3863678 .40899659 .40637208 .3829956 .4423828 .33299256 .4423828 .22099304 .4423828 .099990848 .29733277 .099990848 .14628601 .099990848 .044265748 .15899658-.0107421879 .22499085-.0107421879 .2849884-.0107421879 .32899476 .037261964 .34799195 .058258058 .35899354 .014251709 .3939972-.0107421879 .43499757-.0107421879 .48098756-.0107421879 .5019989 .029251099 .5099945 .04626465 .5279999 .08326721 .54100039 .1402893 .54100039 .14329529M.35398866 .12528992C.34498597 .091278079 .28199769 .014251709 .22799683 .014251709 .17298889 .014251709 .16999817 .088272098 .16999817 .103271488 .16999817 .15429688 .19999695 .264328 .21499634 .30233766 .24099732 .36535646 .2889862 .41737367 .33299256 .41737367 .3939972 .41737367 .40299989 .3333435 .40299989 .32635499 .40299989 .3213501 .40299989 .32034303 .3999939 .3103485L.35398866 .12528992Z"/>
<path id="font_1_105" d="M.3659973 .14405823C.3659973 .1550293 .35299684 .1550293 .34999085 .1550293 .33699037 .1550293 .33599855 .15203858 .32998658 .13806153 .3019867 .06816101 .2599945 .014251709 .21199036 .014251709 .20098877 .014251709 .18399048 .01625061 .18399048 .05519104 .18399048 .06417847 .18699646 .086135867 .19198609 .10610962L.2649994 .3996582H.35099793C.36799623 .3996582 .3789978 .3996582 .3789978 .41766358 .3789978 .43066407 .36898805 .43066407 .35299684 .43066407H.272995L.30999757 .5778961C.31399537 .59191897 .31399537 .59391787 .31399537 .59791567 .31399537 .61494448 .30099488 .62597659 .2849884 .62597659 .2579956 .62597659 .24699402 .6039276 .24299622 .5868988L.20399475 .43066407H.11898804C.101989749 .43066407 .09098816 .43066407 .09098816 .4126587 .09098816 .3996582 .100997928 .3996582 .116989139 .3996582H.19599915L.125 .114089969C.125 .114089969 .11999512 .09512329 .11999512 .08015442 .11999512 .035217287 .15098572-.0107421879 .20999146-.0107421879 .31098939-.0107421879 .3659973 .13406372 .3659973 .14405823Z"/>
<path id="font_1_66" d="M.34098817 .14329529C.34098817 .1552887 .32798768 .1552887 .32398988 .1552887 .30999757 .1552887 .30899049 .15229798 .30299378 .13128662 .29299928 .09527588 .2649994 .014251709 .21099854 .014251709 .20298767 .014251709 .18998719 .01524353 .18998719 .042251588 .18998719 .059265138 .19599915 .08227539 .20698548 .11328125 .22099304 .15029907 .22099304 .15229798 .23799134 .19430542L.27198792 .28833009C.2809906 .31134034 .2919922 .34135438 .2919922 .36036683 .2919922 .40937806 .2579956 .4423828 .21299744 .4423828 .117996219 .4423828 .08099365 .29733277 .08099365 .28833009 .08099365 .27633668 .09298706 .27633668 .09799194 .27633668 .11199951 .27633668 .11299133 .28134156 .116989139 .29333497 .12399292 .3193512 .15098572 .41737367 .20999146 .41737367 .21998596 .41737367 .23098755 .41537477 .23098755 .38937379 .23098755 .36535646 .22399903 .34535218 .20698548 .29833985L.17199707 .205307 .14698792 .1362915C.13899231 .11528015 .12998963 .091278079 .12998963 .0712738 .12998963 .01725769 .16799927-.0107421879 .20899964-.0107421879 .3039856-.0107421879 .34098817 .1362915 .34098817 .14329529M.3619995 .6102905C.3619995 .6382904 .33999635 .6542969 .31698609 .6542969 .28599549 .6542969 .2519989 .62628176 .2519989 .59028628 .2519989 .5622864 .27398683 .54629519 .29699708 .54629519 .32798768 .54629519 .3619995 .57429507 .3619995 .6102905Z"/>
<path id="font_1_81" d="M.5209961 .2753296C.5209961 .37036134 .46099855 .4423828 .36898805 .4423828 .24198914 .4423828 .11099243 .30134584 .11099243 .1552887 .11099243 .06227112 .16899109-.0107421879 .2630005-.0107421879 .3929901-.0107421879 .5209961 .1342926 .5209961 .2753296M.44799806 .31333924C.44799806 .27833558 .42900086 .16429138 .38398744 .09527588 .35198976 .04626465 .30499269 .014251709 .2630005 .014251709 .22799683 .014251709 .18399048 .038253786 .18399048 .119277957 .18399048 .15829468 .20399475 .26333619 .24299622 .32835389 .27598573 .38536073 .32699586 .41737367 .36898805 .41737367 .41299439 .41737367 .44799806 .38136292 .44799806 .31333924Z"/>
<path id="font_1_77" d="M.6029968 .14329529C.6029968 .1552887 .58999636 .1552887 .58599856 .1552887 .57199099 .1552887 .57099917 .15229798 .5649872 .13128662 .5549927 .09527588 .5269928 .014251709 .47299195 .014251709 .46499635 .014251709 .45199586 .01524353 .45199586 .042251588 .45199586 .06626892 .46398927 .09828186 .47200013 .120285037 .48999024 .16830445 .5309906 .2793274 .5309906 .3363495 .5309906 .4033661 .4909973 .4423828 .42099 .4423828 .34899903 .4423828 .30099488 .39837647 .2749939 .36636354 .2659912 .41638185 .22898865 .4423828 .18699646 .4423828 .1539917 .4423828 .1289978 .42237855 .11099243 .3843689 .09498596 .34934999 .08099365 .29333497 .08099365 .28933717 .08099365 .27633668 .09199524 .27633668 .09799194 .27633668 .11299133 .27633668 .11299133 .28033448 .117996219 .30033876 .13798523 .3803711 .15699768 .41737367 .18499756 .41737367 .20098877 .41737367 .21099854 .40837098 .21099854 .3773651 .21099854 .35635377 .20498657 .33035279 .20399475 .32635499L.13198853 .038253786C.12799073 .024246216 .12799073 .022247315 .12799073 .01725769 .12799073-.00074768069 .14199829-.0107421879 .15699768-.0107421879 .18899536-.0107421879 .19400025 .009246826 .20698548 .06427002L.22898865 .15029907 .26098634 .28033448C.2649994 .29333497 .29299928 .34535218 .31698609 .3693695 .33198548 .3843689 .36499024 .41737367 .4189911 .41737367 .45700074 .41737367 .46598817 .3843689 .46598817 .35235597 .46598817 .29434205 .4229889 .17630005 .4059906 .13128662 .3939972 .09828186 .3919983 .0922699 .3919983 .0712738 .3919983 .01725769 .42999269-.0107421879 .47099305-.0107421879 .56599429-.0107421879 .6029968 .1362915 .6029968 .14329529Z"/>
<path id="font_1_55" d="M.45899964 .63894656C.45899964 .6840668 .41299439 .7050781 .37399293 .7050781 .32299806 .7050781 .2889862 .6629486 .28199769 .6529541 .2559967 .61795046 .24198914 .5458832 .24198914 .5458832L.21998596 .43066407H.1519928C.1349945 .43066407 .12399292 .43066407 .12399292 .4126587 .12399292 .3996582 .1349945 .3996582 .15098572 .3996582H.21398926L.14399719 .03593445C.13198853-.028015137 .13198853-.030014039 .11399841-.098968509 .10699463-.1259613 .09298706-.18008423 .057998659-.18008423 .054992677-.18008423 .032989503-.18008423 .018997193-.16397095 .054992677-.15396118 .057998659-.12297058 .057998659-.11697388 .057998659-.096969608 .041992189-.08496094 .023986817-.08496094 .0019989014-.08496094-.025009156-.10197449-.025009156-.13896179-.025009156-.18309021 .016998291-.20507813 .056991579-.20507813 .15098572-.20507813 .19499207-.054992677 .21998596 .072906497L.2829895 .3996582H.36698915C.38398744 .3996582 .394989 .3996582 .394989 .41766358 .394989 .43066407 .38398744 .43066407 .36799623 .43066407H.2889862L.31900025 .58895877C.32899476 .6339569 .33898927 .68006899 .37399293 .68006899 .37399293 .68006899 .39898683 .68006899 .4149933 .6639557 .3789978 .6539459 .37599183 .6229553 .37599183 .6169586 .37599183 .59695437 .3919983 .58496096 .4099884 .58496096 .43199159 .58496096 .45899964 .6019592 .45899964 .63894656Z"/>
<path id="font_1_63" d="M.5509949 .14329529C.5509949 .1552887 .5379944 .1552887 .5339966 .1552887 .519989 .1552887 .5189972 .15229798 .5130005 .13128662 .5029907 .09527588 .47499085 .014251709 .42099 .014251709 .41299439 .014251709 .3999939 .01524353 .3999939 .042251588 .3999939 .06626892 .4119873 .09828186 .41999818 .120285037 .43798829 .16830445 .47898866 .2793274 .47898866 .3363495 .47898866 .4033661 .43899537 .4423828 .36898805 .4423828 .31399537 .4423828 .269989 .41737367 .23498535 .3803711L.30499269 .66230776C.30799867 .67630007 .30899049 .6773071 .30899049 .68029788 .30899049 .69329836 .2999878 .6953125 .2829895 .69329836L.1789856 .6843109C.1639862 .68330386 .1539917 .682312 .1539917 .66529849 .1539917 .652298 .1639862 .652298 .18099976 .652298 .22799683 .652298 .22799683 .64430239 .22799683 .63531497 .22799683 .63531497 .22799683 .62831118 .22399903 .61331179L.07998657 .037261964C.07598877 .023254395 .07598877 .021255494 .07598877 .01725769 .07598877 .002243042 .08699036-.0107421879 .10598755-.0107421879 .13699341-.0107421879 .14299011 .014251709 .1499939 .044265748 .1619873 .08728027 .1619873 .089279178 .17199707 .13027954L.20399475 .2603302C.21499634 .30134584 .23498535 .33935548 .2649994 .3693695 .27999879 .3843689 .31298829 .41737367 .36698915 .41737367 .40499879 .41737367 .4139862 .3843689 .4139862 .35235597 .4139862 .29434205 .37098695 .17630005 .35398866 .13128662 .34199525 .09828186 .33999635 .0922699 .33999635 .0712738 .33999635 .01725769 .37799073-.0107421879 .4189911-.0107421879 .5139923-.0107421879 .5509949 .1362915 .5509949 .14329529Z"/>
<path id="font_1_50" d="M.48199464 .10134888C.47799684 .114364627 .46899415 .12036133 .46299745 .12036133 .45799256 .12036133 .45599366 .11836243 .44898988 .10935974 .3919983 .03627014 .31098939 .014251709 .2649994 .014251709 .19699097 .014251709 .18699646 .09033203 .18699646 .12536621 .18699646 .13337708 .18699646 .16542053 .20298767 .22949219H.23199463C.30699159 .22949219 .35899354 .2374878 .394989 .2514801 .46499635 .27946473 .47399903 .33543397 .47399903 .3564148 .47399903 .40138246 .43598939 .4423828 .36799623 .4423828 .2659912 .4423828 .115997318 .3484192 .115997318 .16741944 .115997318 .05529785 .1789856-.0107421879 .2639923-.0107421879 .35598756-.0107421879 .44400025 .039276124 .48199464 .10134888M.43299867 .35742188C.43299867 .25448609 .27398683 .25448609 .20899964 .25448609 .25498963 .41438294 .35398866 .41737367 .36799623 .41737367 .4119873 .41737367 .43299867 .38739015 .43299867 .35742188Z"/>
<path id="font_1_84" d="M.5219879 .28433229C.5219879 .38136292 .46798707 .4423828 .3959961 .4423828 .34298707 .4423828 .30499269 .40538026 .272995 .37435914 .25898744 .42938233 .21499634 .4423828 .18699646 .4423828 .1539917 .4423828 .1289978 .42237855 .11099243 .3843689 .09498596 .34934999 .08099365 .29333497 .08099365 .28933717 .08099365 .27633668 .09199524 .27633668 .09799194 .27633668 .11299133 .27633668 .11299133 .28033448 .117996219 .30033876 .13798523 .3803711 .15699768 .41737367 .18499756 .41737367 .20098877 .41737367 .21099854 .40837098 .21099854 .3773651 .21099854 .35635377 .20498657 .33035279 .20399475 .32635499L.09098816-.12701416C.08299255-.15908814 .07598877-.16308594 .036987306-.16308594 .027999878-.16308594 .015991211-.16308594 .015991211-.18109131 .015991211-.18609619 .017990113-.1940918 .0289917-.1940918 .054992677-.1940918 .085998538-.19110108 .11399841-.19110108 .14698792-.19110108 .18099976-.1940918 .21199036-.1940918 .21699524-.1940918 .22999573-.1940918 .22999573-.17608643 .22999573-.16308594 .21899414-.16308594 .20298767-.16308594 .1559906-.16308594 .1559906-.15608216 .1559906-.14706421 .1559906-.1360321 .19799805 .024246216 .20298767 .044265748 .22399903 .0062561037 .2539978-.0107421879 .2889862-.0107421879 .40299989-.0107421879 .5219879 .1382904 .5219879 .28433229M.40098573 .11628723C.37599183 .06227112 .33099366 .014251709 .2889862 .014251709 .2669983 .014251709 .25 .025253296 .23699951 .04626465 .22200012 .07026672 .21899414 .106277469 .21899414 .106277469 .21899414 .106277469 .21998596 .11628723 .22099304 .119277957L.2679901 .30534364C.27598573 .33535768 .29699708 .35835267 .31900025 .379364 .35099793 .41036988 .3789978 .41737367 .3939972 .41737367 .44898988 .41737367 .45199586 .34135438 .45199586 .32835389 .45199586 .27633668 .42099 .16029358 .40098573 .11628723Z"/>
<path id="font_1_72" d="M.28799439 .14326477C.28799439 .15525818 .2749939 .15525818 .2709961 .15525818 .2559967 .15525818 .25498963 .15126038 .25099183 .13226319 .22799683 .040252687 .20899964 .014251709 .18399048 .014251709 .16499329 .014251709 .1579895 .030258179 .1579895 .055252077 .1579895 .06425476 .16099549 .086257938 .1659851 .10626221L.30499269 .66230776C.30799867 .6753082 .30899049 .6773071 .30899049 .68029788 .30899049 .69329836 .2999878 .6953125 .2829895 .69329836L.1789856 .6843109C.1639862 .68330386 .1539917 .682312 .1539917 .66529849 .1539917 .652298 .1639862 .652298 .18099976 .652298 .22799683 .652298 .22799683 .64430239 .22799683 .6352997 .22799683 .6352997 .22799683 .62831118 .22399903 .61331179L.09899902 .11425781C.09899902 .11425781 .09399414 .09526062 .09399414 .08026123 .09399414 .03225708 .12799073-.0107421879 .18299866-.0107421879 .22799683-.0107421879 .24798584 .026245118 .25698854 .04525757 .2749939 .08125305 .28799439 .14025879 .28799439 .14326477Z"/>
<path id="font_1_44" d="M.30699159 .3866577C.30699159 .4076538 .2919922 .43066407 .2619934 .43066407 .22799683 .43066407 .19599915 .3996582 .19599915 .36665345 .19599915 .33966065 .21598816 .32266236 .24099732 .32266236 .2749939 .32266236 .30699159 .35565187 .30699159 .3866577M.22599793 .06399536C.22599793 .08699036 .20899964 .10798645 .18099976 .10798645 .14498902 .10798645 .114990238 .07398987 .114990238 .04399109 .114990238 .020996094 .13198853 0 .1599884 0 .19599915 0 .22599793 .033996583 .22599793 .06399536Z"/>
<path id="font_2_1" d="M.49198915 .40434266C.45498658 .39733888 .44400025 .3653412 .44400025 .3503418 .44400025 .33132936 .45799256 .31433106 .48298646 .31433106 .5109863 .31433106 .5379944 .33833314 .5379944 .3733368 .5379944 .41937257 .48799134 .4423828 .44099427 .4423828 .3809967 .4423828 .34599305 .38934327 .33399964 .3683319 .31498719 .41737367 .2709961 .4423828 .22299195 .4423828 .115997318 .4423828 .057998659 .31433106 .057998659 .28833009 .057998659 .2793274 .06498718 .2763214 .07199097 .2763214 .08099365 .2763214 .083999637 .2813263 .085998538 .287323 .116989139 .38633729 .18299866 .41737367 .22099304 .41737367 .25 .41737367 .27598573 .3983307 .27598573 .35133363 .27598573 .31533814 .23298645 .15530396 .21998596 .107284549 .21199036 .076293949 .18199158 .014251709 .1269989 .014251709 .10699463 .014251709 .085998538 .021270752 .07598877 .027282715 .102996829 .032287599 .12298584 .055282594 .12298584 .08128357 .12298584 .106292728 .10398865 .11729431 .084991458 .11729431 .055999757 .11729431 .02999878 .092285159 .02999878 .058288576 .02999878 .009246826 .083999637-.0107421879 .12599182-.0107421879 .18399048-.0107421879 .21798706 .03729248 .23298645 .06428528 .2579956-.0017547608 .31698609-.0107421879 .34399415-.0107421879 .45199586-.0107421879 .5089874 .11929321 .5089874 .14329529 .5089874 .14830017 .5059967 .15530396 .49598695 .15530396 .4850006 .15530396 .48399354 .1512909 .47898866 .1362915 .45700074 .06428528 .39898683 .014251709 .34700013 .014251709 .31799317 .014251709 .29100038 .032287599 .29100038 .08029175 .29100038 .10229492 .30499269 .15730286 .31399537 .1953125 .31799317 .21331787 .34498597 .32133485 .34700013 .32833863 .35899354 .3643341 .3889923 .41737367 .43998719 .41737367 .45799256 .41737367 .47698976 .41436769 .49198915 .40434266Z"/>
<path id="font_1_64" d="M.33799745 .19711304C.33999635 .20411682 .34599305 .22711182 .34599305 .2321167 .34599305 .24511719 .33499146 .24511719 .31900025 .24511719H.12098694C.100997928 .24511719 .09700012 .24511719 .09298706 .23110962 .09098816 .22410584 .085998538 .20310974 .085998538 .19810486 .085998538 .18510437 .09899902 .18510437 .114990238 .18510437H.30799867C.32798768 .18510437 .33399964 .18510437 .33799745 .19711304Z"/>
<path id="font_1_96" d="M.49899293 .3773651C.49899293 .41937257 .45199586 .4423828 .397995 .4423828 .33799745 .4423828 .2979889 .40637208 .27398683 .37236024 .2630005 .41737367 .22799683 .4423828 .18699646 .4423828 .1539917 .4423828 .1289978 .42237855 .11099243 .3843689 .09498596 .34934999 .08099365 .29333497 .08099365 .28933717 .08099365 .27633668 .09199524 .27633668 .09799194 .27633668 .11299133 .27633668 .11299133 .28033448 .117996219 .30033876 .13798523 .38035584 .15699768 .41737367 .18499756 .41737367 .20098877 .41737367 .21099854 .40837098 .21099854 .3773651 .21099854 .35635377 .20498657 .33035279 .20399475 .32633973L.13198853 .038269044C.12799073 .024261475 .12799073 .022262574 .12799073 .01725769 .12799073-.00074768069 .14199829-.0107421879 .15699768-.0107421879 .17098999-.0107421879 .18998719-.0047454836 .19799805 .026260376L.2630005 .28733827C.2649994 .29434205 .30899049 .41737367 .3959961 .41737367 .4019928 .41737367 .42999269 .41737367 .45098878 .40237428 .42099 .3923645 .41600038 .36836244 .41600038 .35635377 .41600038 .3363495 .43099977 .32434083 .44999696 .32434083 .47599793 .32434083 .49899293 .34635926 .49899293 .3773651Z"/>
<path id="font_1_43" d="M.48199464 .10127258C.47799684 .11428833 .46899415 .120285037 .46299745 .120285037 .45799256 .120285037 .45599366 .11828613 .44898988 .10928345 .3919983 .036254884 .31098939 .014251709 .2649994 .014251709 .21499634 .014251709 .18399048 .052261354 .18399048 .11828613 .18399048 .16029358 .20399475 .2603302 .23999024 .32434083 .2689972 .3753662 .31999208 .41737367 .36999513 .41737367 .38198854 .41737367 .4249878 .41537477 .44198609 .37635804 .397995 .3713684 .3959961 .3333435 .3959961 .3293457 .3959961 .30033876 .4229889 .29634095 .42999269 .29634095 .44898988 .29634095 .47999574 .31134034 .47999574 .35635377 .47999574 .4033661 .43699647 .4423828 .36898805 .4423828 .24099732 .4423828 .11099243 .30033876 .11099243 .1552887 .11099243 .06726074 .1639862-.0107421879 .2639923-.0107421879 .35598756-.0107421879 .44400025 .039260866 .48199464 .10127258Z"/>
<path id="font_2_2" d="M.5019989 .38536073C.5029907 .3903656 .5049896 .39637757 .5049896 .40237428 .5049896 .41537477 .49598695 .43138124 .47399903 .43138124 .46099855 .43138124 .44299317 .42337037 .43499757 .40437318 .43399049 .40037538 .42399598 .35935975 .41799928 .33735658L.36799623 .13728333C.3600006 .10827637 .3600006 .106277469 .35798646 .09727478 .35699464 .09327698 .31498719 .014251709 .24299622 .014251709 .18099976 .014251709 .18099976 .07727051 .18099976 .09628296 .18099976 .14129639 .19400025 .19030762 .23699951 .30233766 .24499512 .3253479 .25099183 .33935548 .25099183 .35835267 .25099183 .40737916 .21398926 .4423828 .16499329 .4423828 .068984989 .4423828 .0289917 .30033876 .0289917 .28833009 .0289917 .2793274 .035995485 .27633668 .042999269 .27633668 .053985597 .27633668 .054992677 .28233338 .05899048 .29533387 .07998657 .3693695 .11999512 .41737367 .1619873 .41737367 .18598938 .41737367 .18598938 .39837647 .18598938 .3843689 .18598938 .36735536 .18199158 .34934999 .17298889 .3253479 .12599182 .2013092 .11299133 .15930176 .11299133 .11128235 .11299133 .00024414063 .20298767-.0107421879 .23999024-.0107421879 .2889862-.0107421879 .32398988 .01524353 .34199525 .0332489 .32899476-.017745972 .31799317-.0627594 .2789917-.11276245 .24899292-.15286255 .20899964-.18008423 .16499329-.18008423 .13699341-.18008423 .10398865-.16999817 .08999634-.14176941 .14299011-.14176941 .1499939-.09776306 .1499939-.087768558 .1499939-.06576538 .13398743-.051757814 .11199951-.051757814 .08799744-.051757814 .055999757-.07077026 .055999757-.116760257 .055999757-.16899109 .101989749-.20507813 .16499329-.20507813 .2669983-.20507813 .37599183-.117767337 .40499879-.00074768069L.5019989 .38536073Z"/>
<path id="font_2_3" d="M.13899231 .08526611C.1599884 .11027527 .21499634 .16029358 .2579956 .19630432 .33198548 .25933839 .35499574 .28134156 .36799623 .29534913 .44999696 .3743744 .47698976 .42536927 .47698976 .43138124 .47698976 .43237306 .47698976 .4423828 .46398927 .4423828 .45498658 .4423828 .45298768 .43937684 .44799806 .43138124 .43499757 .41137696 .4079895 .3683777 .37399293 .3683777 .35398866 .3683777 .34098817 .37937928 .31799317 .40538026 .2939911 .43138124 .2749939 .4423828 .24899292 .4423828 .17199707 .4423828 .125 .3503723 .125 .32536317 .125 .32235719 .1269989 .3143463 .13798523 .3143463 .147995 .3143463 .15098572 .32035829 .1519928 .32336427 .17098999 .3713684 .22999573 .3713684 .23799134 .3713684 .26098634 .3713684 .2849884 .36437989 .30699159 .35636903 .34700013 .34336854 .3639984 .34336854 .3789978 .34336854 .34799195 .3083496 .2919922 .2603302 .22898865 .20631409 .1789856 .16329956 .147995 .13328552 .12599182 .11126709 .08898926 .072250369 .04399109 .011245728 .04399109 .00024414063 .04399109-.0067443849 .04899597-.0107421879 .056991579-.0107421879 .06599426-.0107421879 .067993167-.0067443849 .07299805-.00074768069 .11199951 .059249879 .14898682 .06324768 .1599884 .06324768 .18499756 .06324768 .19898987 .04824829 .22099304 .022247315 .24398804-.002746582 .2659912-.0107421879 .28599549-.0107421879 .3889923-.0107421879 .44898988 .11727905 .44898988 .14428711 .44898988 .1532898 .44198609 .15629578 .43499757 .15629578 .4249878 .15629578 .4229889 .14929199 .42099 .14527893 .3939972 .071258548 .32299806 .060256959 .29699708 .060256959 .27799989 .060256959 .2579956 .06524658 .22799683 .07525635 .20799256 .08125305 .18399048 .088256839 .16299439 .088256839 .15299988 .088256839 .14299011 .086257938 .13899231 .08526611Z"/>
</defs>
<path transform="matrix(1,0,0,-1.00009,2.2949982,313.8378)" stroke-width=".79701" stroke-linecap="butt" stroke-miterlimit="10" stroke-linejoin="miter" fill="none" stroke="#b9b9b9" d="M0 7.97021V303.84468C0 308.24659 3.56833 311.8149 7.97021 311.8149H218.80426C223.20615 311.8149 226.77448 308.24659 226.77448 303.84468V7.97021C226.77448 3.56833 223.20615 0 218.80426 0H7.97021C3.56833 0 0 3.56833 0 7.97021ZM226.77448 311.8149"/>
<path transform="matrix(1,0,0,-1.00009,2.2949982,313.8378)" stroke-width=".3985" stroke-linecap="butt" stroke-miterlimit="10" stroke-linejoin="miter" fill="none" stroke="#d2d2d2" d="M0 141.73404H226.77448"/>
<use data-text="E" xlink:href="#font_1_49" transform="matrix(8.9664,0,0,-8.967207,14.319,20.34137)"/>
<use data-text="q" xlink:href="#font_1_91" transform="matrix(8.9664,0,0,-8.967207,20.559617,20.34137)"/>
<use data-text="u" xlink:href="#font_1_109" transform="matrix(8.9664,0,0,-8.967207,24.791756,20.34137)"/>
<use data-text="a" xlink:href="#font_1_28" transform="matrix(8.9664,0,0,-8.967207,29.732239,20.34137)"/>
<use data-text="t" xlink:href="#font_1_105" transform="matrix(8.9664,0,0,-8.967207,34.439599,20.34137)"/>
<use data-text="i" xlink:href="#font_1_66" transform="matrix(8.9664,0,0,-8.967207,37.49714,20.34137)"/>
<use data-text="o" xlink:href="#font_1_81" transform="matrix(8.9664,0,0,-8.967207,40.321557,20.34137)"/>
<use data-text="n" xlink:href="#font_1_77" transform="matrix(8.9664,0,0,-8.967207,45.028917,20.34137)"/>
<use data-text="o" xlink:href="#font_1_81" transform="matrix(8.9664,0,0,-8.967207,53.493204,20.34137)"/>
<use data-text="f" xlink:href="#font_1_55" transform="matrix(8.9664,0,0,-8.967207,58.20056,20.34137)"/>
<use data-text="t" xlink:href="#font_1_105" transform="matrix(8.9664,0,0,-8.967207,64.31564,20.34137)"/>
<use data-text="h" xlink:href="#font_1_63" transform="matrix(8.9664,0,0,-8.967207,67.373188,20.34137)"/>
<use data-text="e" xlink:href="#font_1_50" transform="matrix(8.9664,0,0,-8.967207,72.08055,20.34137)"/>
<use data-text="p" xlink:href="#font_1_84" transform="matrix(8.9664,0,0,-8.967207,79.60336,20.34137)"/>
<use data-text="l" xlink:href="#font_1_72" transform="matrix(8.9664,0,0,-8.967207,84.31073,20.34137)"/>
<use data-text="a" xlink:href="#font_1_28" transform="matrix(8.9664,0,0,-8.967207,86.65993,20.34137)"/>
<use data-text="n" xlink:href="#font_1_77" transform="matrix(8.9664,0,0,-8.967207,91.367298,20.34137)"/>
<use data-text="e" xlink:href="#font_1_50" transform="matrix(8.9664,0,0,-8.967207,96.54091,20.34137)"/>
<use data-text=":" xlink:href="#font_1_44" transform="matrix(8.9664,0,0,-8.967207,100.773059,20.34137)"/>
<use data-text="x" xlink:href="#font_2_1" transform="matrix(8.9664,0,0,-8.967207,14.319,189.98065)"/>
<use data-text="-" xlink:href="#font_1_64" transform="matrix(8.9664,0,0,-8.967207,19.543,189.98065)"/>
<use data-text="i" xlink:href="#font_1_66" transform="matrix(8.9664,0,0,-8.967207,22.833672,189.98065)"/>
<use data-text="n" xlink:href="#font_1_77" transform="matrix(8.9664,0,0,-8.967207,25.658089,189.98065)"/>
<use data-text="t" xlink:href="#font_1_105" transform="matrix(8.9664,0,0,-8.967207,30.831704,189.98065)"/>
<use data-text="e" xlink:href="#font_1_50" transform="matrix(8.9664,0,0,-8.967207,33.889245,189.98065)"/>
<use data-text="r" xlink:href="#font_1_96" transform="matrix(8.9664,0,0,-8.967207,38.121385,189.98065)"/>
<use data-text="c" xlink:href="#font_1_43" transform="matrix(8.9664,0,0,-8.967207,41.537584,189.98065)"/>
<use data-text="e" xlink:href="#font_1_50" transform="matrix(8.9664,0,0,-8.967207,45.303468,189.98065)"/>
<use data-text="p" xlink:href="#font_1_84" transform="matrix(8.9664,0,0,-8.967207,49.535608,189.98065)"/>
<use data-text="t" xlink:href="#font_1_105" transform="matrix(8.9664,0,0,-8.967207,54.242967,189.98065)"/>
<use data-text=":" xlink:href="#font_1_44" transform="matrix(8.9664,0,0,-8.967207,57.300508,189.98065)"/>
<use data-text="y" xlink:href="#font_2_2" transform="matrix(8.9664,0,0,-8.967207,82.44499,189.98065)"/>
<use data-text="-" xlink:href="#font_1_64" transform="matrix(8.9664,0,0,-8.967207,87.30499,189.98065)"/>
<use data-text="i" xlink:href="#font_1_66" transform="matrix(8.9664,0,0,-8.967207,90.59566,189.98065)"/>
<use data-text="n" xlink:href="#font_1_77" transform="matrix(8.9664,0,0,-8.967207,93.420078,189.98065)"/>
<use data-text="t" xlink:href="#font_1_105" transform="matrix(8.9664,0,0,-8.967207,98.59369,189.98065)"/>
<use data-text="e" xlink:href="#font_1_50" transform="matrix(8.9664,0,0,-8.967207,101.65123,189.98065)"/>
<use data-text="r" xlink:href="#font_1_96" transform="matrix(8.9664,0,0,-8.967207,105.88338,189.98065)"/>
<use data-text="c" xlink:href="#font_1_43" transform="matrix(8.9664,0,0,-8.967207,109.299579,189.98065)"/>
<use data-text="e" xlink:href="#font_1_50" transform="matrix(8.9664,0,0,-8.967207,113.065479,189.98065)"/>
<use data-text="p" xlink:href="#font_1_84" transform="matrix(8.9664,0,0,-8.967207,117.29762,189.98065)"/>
<use data-text="t" xlink:href="#font_1_105" transform="matrix(8.9664,0,0,-8.967207,122.00499,189.98065)"/>
<use data-text=":" xlink:href="#font_1_44" transform="matrix(8.9664,0,0,-8.967207,125.06253,189.98065)"/>
<use data-text="z" xlink:href="#font_2_3" transform="matrix(8.9664,0,0,-8.967207,150.20699,189.98065)"/>
<use data-text="-" xlink:href="#font_1_64" transform="matrix(8.9664,0,0,-8.967207,154.87999,189.98065)"/>
<use data-text="i" xlink:href="#font_1_66" transform="matrix(8.9664,0,0,-8.967207,158.17066,189.98065)"/>
<use data-text="n" xlink:href="#font_1_77" transform="matrix(8.9664,0,0,-8.967207,160.99507,189.98065)"/>
<use data-text="t" xlink:href="#font_1_105" transform="matrix(8.9664,0,0,-8.967207,166.16869,189.98065)"/>
<use data-text="e" xlink:href="#font_1_50" transform="matrix(8.9664,0,0,-8.967207,169.22623,189.98065)"/>
<use data-text="r" xlink:href="#font_1_96" transform="matrix(8.9664,0,0,-8.967207,173.45838,189.98065)"/>
<use data-text="c" xlink:href="#font_1_43" transform="matrix(8.9664,0,0,-8.967207,176.88353,189.98065)"/>
<use data-text="e" xlink:href="#font_1_50" transform="matrix(8.9664,0,0,-8.967207,180.64943,189.98065)"/>
<use data-text="p" xlink:href="#font_1_84" transform="matrix(8.9664,0,0,-8.967207,184.88158,189.98065)"/>
<use data-text="t" xlink:href="#font_1_105" transform="matrix(8.9664,0,0,-8.967207,189.58895,189.98065)"/>
<use data-text=":" xlink:href="#font_1_44" transform="matrix(8.9664,0,0,-8.967207,192.6465,189.98065)"/>
</svg>
