<svg xmlns="http://www.w3.org/2000/svg" xmlns:xlink="http://www.w3.org/1999/xlink" xmlns:inkscape="http://www.inkscape.org/namespaces/inkscape" version="1.1" width="429" height="344" viewBox="0 0 429 344">
<defs>
<path id="font_1_2" d="M.5239868 .6603241C.5279999 .67433169 .5279999 .67633059 .5279999 .68032839 .5279999 .68933108 .5219879 .69433596 .5130005 .69433596 .49899293 .69433596 .41099549 .6863251 .3909912 .6843262 .3809967 .68333438 .36999513 .6823273 .36999513 .665329 .36999513 .6523285 .3809967 .6523285 .39698792 .6523285 .44400025 .6523285 .44400025 .6453247 .44400025 .6363373 .44400025 .6293335 .43499757 .5943451 .42999269 .573349L.41099549 .4963684C.40098573 .45837403 .3909912 .41937257 .38198854 .3803711 .36299134 .41638185 .33198548 .4423828 .2869873 .4423828 .17098999 .4423828 .041992189 .30433656 .041992189 .1512909 .041992189 .041259767 .11199951-.0107421879 .1789856-.0107421879 .24398804-.0107421879 .29699708 .043258668 .31298829 .06227112 .32398988 .007247925 .37399293-.0107421879 .4059906-.0107421879 .43499757-.0107421879 .45999146 .002243042 .48199464 .044265748 .5 .07727051 .5139923 .13928223 .5139923 .14329529 .5139923 .14828491 .5109863 .1552887 .5009918 .1552887 .4889984 .1552887 .48799134 .15029907 .48399354 .13128662 .46199037 .044265748 .43998719 .014251709 .40899659 .014251709 .38398744 .014251709 .37799073 .038253786 .37799073 .060272218 .37799073 .073272708 .3829956 .10127258 .38398744 .104278568L.5239868 .6603241M.31698609 .121276859C.31298829 .105285648 .31199647 .103271488 .29599 .08326721 .2599945 .040252687 .21899414 .014251709 .18199158 .014251709 .1329956 .014251709 .115997318 .06526184 .115997318 .10827637 .115997318 .15730286 .14498902 .27233888 .16899109 .32034303 .20098877 .3803711 .24699402 .41737367 .2869873 .41737367 .35398866 .41737367 .36898805 .3363495 .36898805 .3313446 .36898805 .32635499 .36698915 .32034303 .3659973 .3163452L.31698609 .121276859Z"/>
<path id="font_2_1" d="M.22599793 .12182617C.18798828 .063949588 .1539917 .04397583 .09799194 .039993287 .083999637 .038986207 .07199097 .037994386 .07199097 .01499939 .07199097 .004989624 .07998657 0 .08699036 0 .114990238 0 .147995 .0039978029 .1769867 .0039978029 .20098877 .0039978029 .2599945 0 .28399659 0 .29499818 0 .30599977 .004989624 .30599977 .024993897 .30599977 .038986207 .2919922 .039993287 .2889862 .039993287 .2649994 .040985109 .24299622 .04698181 .24299622 .06893921 .24299622 .0809021 .2539978 .09786987 .25698854 .10386658L.33898927 .22662354H.6399994L.66600039 .06593323C.66600039 .039993287 .60798647 .039993287 .59799197 .039993287 .58499148 .039993287 .56900027 .039993287 .56900027 .01499939 .56900027 .009994507 .57398989 0 .58599856 0 .6159973 0 .68899539 .0039978029 .71899417 .0039978029 .7389984 .0039978029 .7579956 .0029907227 .7779999 .0029907227 .7979889 .0029907227 .81999209 0 .83898928 0 .8450012 0 .86099246 0 .86099246 .024993897 .86099246 .039993287 .84799197 .039993287 .83299258 .039993287 .7709961 .039993287 .769989 .04698181 .7659912 .07192993L.66600039 .68685916C.6629944 .7048645 .6619873 .7138672 .6399994 .7138672 .61898806 .7138672 .61299136 .7058563 .60398867 .691864L.22599793 .12182617M.36499024 .26661683 .58099368 .5917969 .6329956 .26661683H.36499024Z"/>
<path id="font_3_1" d="M.34098817-.23803711C.34098817-.23303223 .33799745-.23002625 .33198548-.22303772 .20298767-.105026248 .1639862 .07498169 .1639862 .24996948 .1639862 .40498353 .19400025 .59298709 .33499146 .72698977 .33898927 .73098757 .34098817 .73399356 .34098817 .7389984 .34098817 .74598696 .33599855 .75 .32899476 .75 .31698609 .75 .22698975 .6779785 .17298889 .568985 .125 .47297669 .100997928 .36997987 .100997928 .25097657 .100997928 .17897034 .10998535 .064971927 .16499329-.053024293 .22399903-.17602539 .31698609-.24902344 .32899476-.24902344 .33599855-.24902344 .34098817-.24502564 .34098817-.23803711Z"/>
<path id="font_4_1" d="M.48399354 .2983551C.48399354 .38616944 .4119873 .453125 .2579956 .453125 .20098877 .453125 .07299805 .45111085 .07299805 .3592224 .07299805 .3143158 .10699463 .29336549 .13798523 .29336549 .17199707 .29336549 .20298767 .31730653 .20298767 .3582306 .20298767 .3871765 .18598938 .40412904 .18299866 .407135 .19299317 .40911866 .21699524 .41311646 .2539978 .41311646 .32598878 .41311646 .36698915 .377182 .36698915 .2983551V.26641847C.20098877 .26641847 .032989503 .22340393 .032989503 .11224365 .032989503 .013137817 .1579895-.005859375 .22999573-.005859375 .30599977-.005859375 .35798646 .027130127 .3849945 .07418823 .3849945 .04815674 .3849945 .0001373291 .49198915 .0001373291H.54100039C.55999758 .0001373291 .57398989 .0001373291 .57398989 .025131226 .57398989 .04914856 .55799868 .04914856 .5479889 .04914856 .48399354 .05015564 .48399354 .060165407 .48399354 .084198V.2983551M.36698915 .13928223C.36698915 .03413391 .25099183 .03413391 .24699402 .03413391 .19599915 .03413391 .1539917 .06718445 .1539917 .11224365 .1539917 .14529419 .17199707 .22340393 .36698915 .23242188V.13928223Z"/>
<path id="font_1_1" d="M.18199158 .015991211C.18199158-.017044068 .18199158-.09921265 .10798645-.17036438 .101989749-.17636109 .101989749-.17736817 .101989749-.18136597 .101989749-.18836975 .10899353-.19335938 .114990238-.19335938 .12599182-.19335938 .20698548-.115249637 .20698548 .0019989014 .20698548 .06399536 .18499756 .10798645 .14199829 .10798645 .10798645 .10798645 .08799744 .08198547 .08799744 .053985597 .08799744 .025985718 .10798645 0 .14199829 0 .15699768 0 .17199707 .004989624 .18199158 .015991211Z"/>
<path id="font_4_3" d="M.49198915 .11613464C.49198915 .13212586 .47698976 .13212586 .46598817 .13212586 .44599916 .13212586 .44599916 .13113404 .43798829 .11312866 .41799928 .06512451 .37298585 .037139894 .31399537 .037139894 .17199707 .037139894 .17199707 .18112183 .17199707 .22612 .17199707 .28611756 .17298889 .41011048 .3039856 .41011048 .31098939 .41011048 .36499024 .40911866 .36499024 .40411378 .36499024 .40312196 .36299134 .40011598 .3619995 .39912416 .35299684 .38812257 .34899903 .3721161 .34899903 .35812379 .34899903 .3171234 .37998963 .29312135 .4139862 .29312135 .44499208 .29312135 .47898866 .31411744 .47898866 .3591156 .47898866 .453125 .33898927 .453125 .2999878 .453125 .10798645 .453125 .038986207 .33111573 .038986207 .22212219 .038986207 .09613037 .1289978-.005859375 .29499818-.005859375 .33198548-.005859375 .3809967 .0001373291 .4229889 .026138306 .47999574 .06112671 .49198915 .11312866 .49198915 .11613464Z"/>
<path id="font_3_2" d="M.2979889 .25097657C.2979889 .3329773 .28599549 .4429779 .23399353 .5539856 .1749878 .6769867 .08198547 .75 .069992069 .75 .05999756 .75 .057998659 .74198916 .057998659 .7389984 .057998659 .73399356 .05999756 .73098757 .066986087 .72398379 .125 .6719818 .23498535 .5359802 .23498535 .25097657 .23498535 .10797119 .20899964-.091033939 .06399536-.22602844 .06199646-.22903443 .057998659-.23303223 .057998659-.23803711 .057998659-.24102783 .05999756-.24902344 .069992069-.24902344 .08198547-.24902344 .17199707-.17703247 .22599793-.06802368 .27398683 .02796936 .2979889 .13098145 .2979889 .25097657Z"/>
<path id="font_3_3" d="M.70799258 .3310089C.7220001 .3310089 .7409973 .3310089 .7409973 .35202027 .7409973 .37402345 .71899417 .37402345 .70399478 .37402345H.09399414C.07899475 .37402345 .056991579 .37402345 .056991579 .35202027 .056991579 .3310089 .07699585 .3310089 .08999634 .3310089H.70799258M.70399478 .12695313C.71899417 .12695313 .7409973 .12695313 .7409973 .14894104 .7409973 .1699524 .7220001 .1699524 .70799258 .1699524H.08999634C.07699585 .1699524 .056991579 .1699524 .056991579 .14894104 .056991579 .12695313 .07899475 .12695313 .09399414 .12695313H.70399478Z"/>
<path id="font_5_35" d="M.46899415 .28533937C.46899415 .38237 .4139862 .4423828 .34399415 .4423828 .29100038 .4423828 .24598694 .3993683 .23799134 .3923645L.30499269 .66230776C.30799867 .67630007 .30899049 .6773071 .30899049 .68029788 .30899049 .69329836 .2999878 .6953125 .2829895 .69329836L.1789856 .6843109C.1639862 .68330386 .1539917 .682312 .1539917 .66529849 .1539917 .652298 .1639862 .652298 .18099976 .652298 .22799683 .652298 .22799683 .64430239 .22799683 .63531497 .22799683 .62831118 .22599793 .62031558 .22399903 .61331179L.12399292 .21430969C.117996219 .19030762 .114990238 .16029358 .114990238 .14428711 .114990238 .060272218 .15899658-.0107421879 .23599243-.0107421879 .34999085-.0107421879 .46899415 .1382904 .46899415 .28533937M.35398866 .13027954C.31900025 .04725647 .269989 .014251709 .23599243 .014251709 .18899536 .014251709 .17599488 .0712738 .17599488 .10928345 .17599488 .14729309 .18598938 .18431092 .20498657 .264328 .20999146 .28433229 .21998596 .32034303 .22200012 .323349 .2669983 .3943634 .31098939 .41737367 .34199525 .41737367 .39898683 .41737367 .39898683 .3343506 .39898683 .32835389 .39898683 .2773285 .36698915 .16130066 .35398866 .13027954Z"/>
<path id="font_5_50" d="M.48199464 .10134888C.47799684 .114364627 .46899415 .12036133 .46299745 .12036133 .45799256 .12036133 .45599366 .11836243 .44898988 .10935974 .3919983 .03627014 .31098939 .014251709 .2649994 .014251709 .19699097 .014251709 .18699646 .09033203 .18699646 .12536621 .18699646 .13337708 .18699646 .16542053 .20298767 .22949219H.23199463C.30699159 .22949219 .35899354 .2374878 .394989 .2514801 .46499635 .27946473 .47399903 .33543397 .47399903 .3564148 .47399903 .40138246 .43598939 .4423828 .36799623 .4423828 .2659912 .4423828 .115997318 .3484192 .115997318 .16741944 .115997318 .05529785 .1789856-.0107421879 .2639923-.0107421879 .35598756-.0107421879 .44400025 .039276124 .48199464 .10134888M.43299867 .35742188C.43299867 .25448609 .27398683 .25448609 .20899964 .25448609 .25498963 .41438294 .35398866 .41737367 .36799623 .41737367 .4119873 .41737367 .43299867 .38739015 .43299867 .35742188Z"/>
<path id="font_5_43" d="M.48199464 .10127258C.47799684 .11428833 .46899415 .120285037 .46299745 .120285037 .45799256 .120285037 .45599366 .11828613 .44898988 .10928345 .3919983 .036254884 .31098939 .014251709 .2649994 .014251709 .21499634 .014251709 .18399048 .052261354 .18399048 .11828613 .18399048 .16029358 .20399475 .2603302 .23999024 .32434083 .2689972 .3753662 .31999208 .41737367 .36999513 .41737367 .38198854 .41737367 .4249878 .41537477 .44198609 .37635804 .397995 .3713684 .3959961 .3333435 .3959961 .3293457 .3959961 .30033876 .4229889 .29634095 .42999269 .29634095 .44898988 .29634095 .47999574 .31134034 .47999574 .35635377 .47999574 .4033661 .43699647 .4423828 .36898805 .4423828 .24099732 .4423828 .11099243 .30033876 .11099243 .1552887 .11099243 .06726074 .1639862-.0107421879 .2639923-.0107421879 .35598756-.0107421879 .44400025 .039260866 .48199464 .10127258Z"/>
<path id="font_5_28" d="M.54100039 .14329529C.54100039 .1552887 .5279999 .1552887 .5239868 .1552887 .5089874 .1552887 .5079956 .1512909 .5039978 .1322937 .4869995 .06626892 .46899415 .014251709 .43598939 .014251709 .4169922 .014251709 .4099884 .030258179 .4099884 .055267335 .4099884 .06427002 .41299439 .08627319 .41799928 .106277469L.4850006 .37435914C.4889984 .3883667 .4889984 .3903656 .4889984 .3943634 .4889984 .41137696 .47599793 .42237855 .45999146 .42237855 .44699098 .42237855 .4249878 .41438294 .4189911 .3863678 .40899659 .40637208 .3829956 .4423828 .33299256 .4423828 .22099304 .4423828 .099990848 .29733277 .099990848 .14628601 .099990848 .044265748 .15899658-.0107421879 .22499085-.0107421879 .2849884-.0107421879 .32899476 .037261964 .34799195 .058258058 .35899354 .014251709 .3939972-.0107421879 .43499757-.0107421879 .48098756-.0107421879 .5019989 .029251099 .5099945 .04626465 .5279999 .08326721 .54100039 .1402893 .54100039 .14329529M.35398866 .12528992C.34498597 .091278079 .28199769 .014251709 .22799683 .014251709 .17298889 .014251709 .16999817 .088272098 .16999817 .103271488 .16999817 .15429688 .19999695 .264328 .21499634 .30233766 .24099732 .36535646 .2889862 .41737367 .33299256 .41737367 .3939972 .41737367 .40299989 .3333435 .40299989 .32635499 .40299989 .3213501 .40299989 .32034303 .3999939 .3103485L.35398866 .12528992Z"/>
<path id="font_5_109" d="M.57699587 .14329529C.57699587 .1552887 .56399539 .1552887 .55999758 .1552887 .54499819 .1552887 .5439911 .1512909 .5399933 .1322937 .522995 .06626892 .5049896 .014251709 .47200013 .014251709 .45298768 .014251709 .44599916 .030258179 .44599916 .055267335 .44599916 .06427002 .44898988 .08627319 .45399476 .106277469L.522995 .38237C.5269928 .39637757 .5269928 .39837647 .5269928 .4033661 .5269928 .42137147 .5130005 .43138124 .49798585 .43138124 .46598817 .43138124 .45799256 .40037538 .45599366 .39137269L.3849945 .104278568C.37799073 .07727051 .33699037 .014251709 .2769928 .014251709 .22599793 .014251709 .22200012 .06626892 .22200012 .091278079 .22200012 .14428711 .24499512 .21331787 .2789917 .30633546 .28799439 .3293457 .2919922 .3403473 .2919922 .36036683 .2919922 .40937806 .2579956 .4423828 .21299744 .4423828 .117996219 .4423828 .08099365 .29733277 .08099365 .28833009 .08099365 .27633668 .09298706 .27633668 .09799194 .27633668 .11199951 .27633668 .11299133 .28134156 .116989139 .29333497 .12399292 .3193512 .15098572 .41737367 .20999146 .41737367 .21998596 .41737367 .23098755 .41537477 .23098755 .38937379 .23098755 .36436463 .21998596 .3343506 .21299744 .31533814 .16699219 .19230652 .15699768 .1512909 .15699768 .107284549 .15699768 .009246826 .22799683-.0107421879 .27398683-.0107421879 .31599427-.0107421879 .35299684 .008255005 .3869934 .04925537 .4019928 .0052490236 .43798829-.0107421879 .47099305-.0107421879 .5169983-.0107421879 .5379944 .029251099 .54599 .04626465 .56399539 .08326721 .57699587 .1402893 .57699587 .14329529Z"/>
<path id="font_5_98" d="M.40299989 .15620423C.40299989 .18418885 .3929901 .21018982 .37298585 .23118592 .34700013 .25717164 .32398988 .2621765 .2789917 .27116395 .24899292 .27816773 .21299744 .28515626 .21299744 .32815553 .21299744 .3461609 .22898865 .41737367 .31599427 .41737367 .34599305 .41737367 .38198854 .4053192 .3919983 .37016297 .35499574 .36315919 .35499574 .33015443 .35499574 .33015443 .35499574 .32115174 .36099244 .30215455 .3849945 .30215455 .40699769 .30215455 .42799378 .31915284 .42799378 .3561554 .42799378 .40130616 .3880005 .4423828 .31599427 .4423828 .19898987 .4423828 .15499878 .3491516 .15499878 .29415895 .15499878 .21618653 .22200012 .20219422 .2519989 .19519043 .29899598 .18519593 .34399415 .17520142 .34399415 .12321472 .34399415 .09422302 .31999208 .014251709 .21099854 .014251709 .18499756 .014251709 .1289978 .021255494 .11299133 .068237308 .1599884 .07322693 .1599884 .115219119 .1599884 .115219119 .1599884 .14221192 .13699341 .14820862 .12599182 .14820862 .11999512 .14820862 .07598877 .14520264 .07598877 .08622742 .07598877 .03024292 .1289978-.0107421879 .21099854-.0107421879 .3639984-.0107421879 .40299989 .11122131 .40299989 .15620423Z"/>
<path id="font_4_2" d="M.21998596 .69433596 .040985109 .6863251V.6373291C.100997928 .6373291 .10899353 .6373291 .10899353 .5982971V.0001373291H.1599884L.20698548 .057144166C.23899842 .025131226 .28799439-.005859375 .35899354-.005859375 .5149994-.005859375 .61698916 .088134769 .61698916 .22216797 .61698916 .35717774 .519989 .4501953 .37199403 .4501953 .2919922 .4501953 .23899842 .41618348 .21998596 .40219117V.69433596M.22599793 .34617616C.25099183 .3781891 .29899598 .41018678 .3600006 .41018678 .48399354 .41018678 .48399354 .2901764 .48399354 .22416687 .48399354 .18215943 .48399354 .13014221 .46299745 .09414673 .42999269 .038131715 .36898805 .03413391 .34899903 .03413391 .2869873 .03413391 .24699402 .072143558 .22599793 .104141239V.34617616Z"/>
<path id="font_5_113" d="M1.147995 .6696167C1.147995 .6776123 1.1419983 .6826172 1.1349945 .6826172 1.1299896 .6826172 1.1109924 .6796112 1.0589905 .6796112 1.0269928 .6796112 .9929962 .6826172 .96199038 .6826172 .95599368 .6826172 .94299319 .6826172 .94299319 .6646118 .94299319 .65260317 .95399478 .6516113 .95799258 .6516113 .96798709 .6506195 1.0099945 .64860537 1.0099945 .61460879 1.0099945 .6026001 1.0009918 .5866089 .99598696 .5776062L.7389984 .11054993 .71299746 .6056061C.71199038 .62260439 .71099856 .6506195 .7799988 .6516113 .79100039 .6516113 .8029938 .6516113 .8029938 .6696167 .8029938 .6726074 .8019867 .6826172 .78900149 .6826172 .7539978 .6826172 .71499636 .6796112 .67900088 .6796112 .6469879 .6796112 .6119995 .6826172 .58200076 .6826172 .5779877 .6826172 .5629883 .6826172 .5629883 .6646118 .5629883 .6516113 .57499697 .6516113 .58499148 .6516113 .625 .6516113 .6279907 .6456146 .6309967 .63461306 .6319885 .62861636 .6349945 .5796051 .6349945 .5716095 .6349945 .56559756 .6349945 .5626068 .6289978 .5516052L.38598634 .11054993 .3600006 .6036072C.35899354 .62361147 .35798646 .6506195 .4249878 .6516113 .43899537 .6516113 .44999696 .6516113 .44999696 .6696167 .44999696 .6786041 .44299317 .6826172 .43499757 .6826172 .3999939 .6826172 .3619995 .6796112 .32598878 .6796112 .2939911 .6796112 .25898744 .6826172 .22799683 .6826172 .22299195 .6826172 .20999146 .6826172 .20999146 .6646118 .20999146 .6516113 .22099304 .6516113 .23298645 .6516113 .2769928 .6516113 .27799989 .64460757 .2789917 .61761477L.31098939 .002532959C.31199647-.016464234 .31199647-.022460938 .32998658-.022460938 .34700013-.022460938 .35198976-.014465332 .35798646-.0034637452L.6380005 .5045929 .6639862 .0045318605C.6649933-.015472412 .6649933-.022460938 .68299868-.022460938 .69200137-.022460938 .70199587-.022460938 .71199038-.0034637452L1.0249939 .5646057C1.0639954 .63461306 1.0899963 .6476135 1.1339874 .6516113 1.1439972 .65260317 1.147995 .660614 1.147995 .6696167Z"/>
<path id="font_5_63" d="M.5509949 .14329529C.5509949 .1552887 .5379944 .1552887 .5339966 .1552887 .519989 .1552887 .5189972 .15229798 .5130005 .13128662 .5029907 .09527588 .47499085 .014251709 .42099 .014251709 .41299439 .014251709 .3999939 .01524353 .3999939 .042251588 .3999939 .06626892 .4119873 .09828186 .41999818 .120285037 .43798829 .16830445 .47898866 .2793274 .47898866 .3363495 .47898866 .4033661 .43899537 .4423828 .36898805 .4423828 .31399537 .4423828 .269989 .41737367 .23498535 .3803711L.30499269 .66230776C.30799867 .67630007 .30899049 .6773071 .30899049 .68029788 .30899049 .69329836 .2999878 .6953125 .2829895 .69329836L.1789856 .6843109C.1639862 .68330386 .1539917 .682312 .1539917 .66529849 .1539917 .652298 .1639862 .652298 .18099976 .652298 .22799683 .652298 .22799683 .64430239 .22799683 .63531497 .22799683 .63531497 .22799683 .62831118 .22399903 .61331179L.07998657 .037261964C.07598877 .023254395 .07598877 .021255494 .07598877 .01725769 .07598877 .002243042 .08699036-.0107421879 .10598755-.0107421879 .13699341-.0107421879 .14299011 .014251709 .1499939 .044265748 .1619873 .08728027 .1619873 .089279178 .17199707 .13027954L.20399475 .2603302C.21499634 .30134584 .23498535 .33935548 .2649994 .3693695 .27999879 .3843689 .31298829 .41737367 .36698915 .41737367 .40499879 .41737367 .4139862 .3843689 .4139862 .35235597 .4139862 .29434205 .37098695 .17630005 .35398866 .13128662 .34199525 .09828186 .33999635 .0922699 .33999635 .0712738 .33999635 .01725769 .37799073-.0107421879 .4189911-.0107421879 .5139923-.0107421879 .5509949 .1362915 .5509949 .14329529Z"/>
<path id="font_5_105" d="M.3659973 .14405823C.3659973 .1550293 .35299684 .1550293 .34999085 .1550293 .33699037 .1550293 .33599855 .15203858 .32998658 .13806153 .3019867 .06816101 .2599945 .014251709 .21199036 .014251709 .20098877 .014251709 .18399048 .01625061 .18399048 .05519104 .18399048 .06417847 .18699646 .086135867 .19198609 .10610962L.2649994 .3996582H.35099793C.36799623 .3996582 .3789978 .3996582 .3789978 .41766358 .3789978 .43066407 .36898805 .43066407 .35299684 .43066407H.272995L.30999757 .5778961C.31399537 .59191897 .31399537 .59391787 .31399537 .59791567 .31399537 .61494448 .30099488 .62597659 .2849884 .62597659 .2579956 .62597659 .24699402 .6039276 .24299622 .5868988L.20399475 .43066407H.11898804C.101989749 .43066407 .09098816 .43066407 .09098816 .4126587 .09098816 .3996582 .100997928 .3996582 .116989139 .3996582H.19599915L.125 .114089969C.125 .114089969 .11999512 .09512329 .11999512 .08015442 .11999512 .035217287 .15098572-.0107421879 .20999146-.0107421879 .31098939-.0107421879 .3659973 .13406372 .3659973 .14405823Z"/>
<path id="font_5_66" d="M.34098817 .14329529C.34098817 .1552887 .32798768 .1552887 .32398988 .1552887 .30999757 .1552887 .30899049 .15229798 .30299378 .13128662 .29299928 .09527588 .2649994 .014251709 .21099854 .014251709 .20298767 .014251709 .18998719 .01524353 .18998719 .042251588 .18998719 .059265138 .19599915 .08227539 .20698548 .11328125 .22099304 .15029907 .22099304 .15229798 .23799134 .19430542L.27198792 .28833009C.2809906 .31134034 .2919922 .34135438 .2919922 .36036683 .2919922 .40937806 .2579956 .4423828 .21299744 .4423828 .117996219 .4423828 .08099365 .29733277 .08099365 .28833009 .08099365 .27633668 .09298706 .27633668 .09799194 .27633668 .11199951 .27633668 .11299133 .28134156 .116989139 .29333497 .12399292 .3193512 .15098572 .41737367 .20999146 .41737367 .21998596 .41737367 .23098755 .41537477 .23098755 .38937379 .23098755 .36535646 .22399903 .34535218 .20698548 .29833985L.17199707 .205307 .14698792 .1362915C.13899231 .11528015 .12998963 .091278079 .12998963 .0712738 .12998963 .01725769 .16799927-.0107421879 .20899964-.0107421879 .3039856-.0107421879 .34098817 .1362915 .34098817 .14329529M.3619995 .6102905C.3619995 .6382904 .33999635 .6542969 .31698609 .6542969 .28599549 .6542969 .2519989 .62628176 .2519989 .59028628 .2519989 .5622864 .27398683 .54629519 .29699708 .54629519 .32798768 .54629519 .3619995 .57429507 .3619995 .6102905Z"/>
<path id="font_5_118" d="M.42599488-.003753662 .5219879 .38237C.526001 .39736939 .526001 .3993683 .526001 .4033661 .526001 .42137147 .5119934 .43138124 .49699403 .43138124 .47999574 .43138124 .46299745 .42237855 .45599366 .3943634L.3829956 .104278568C.37298585 .06326294 .32798768 .014251709 .2769928 .014251709 .22698975 .014251709 .22200012 .06427002 .22200012 .091278079 .22200012 .14428711 .24499512 .21331787 .2789917 .30633546 .28799439 .3293457 .2919922 .3403473 .2919922 .36036683 .2919922 .40937806 .2579956 .4423828 .21299744 .4423828 .117996219 .4423828 .08099365 .29733277 .08099365 .28833009 .08099365 .27633668 .09298706 .27633668 .09799194 .27633668 .11199951 .27633668 .11299133 .28134156 .116989139 .29333497 .12399292 .3193512 .15098572 .41737367 .20999146 .41737367 .21998596 .41737367 .23098755 .41537477 .23098755 .38937379 .23098755 .36436463 .21998596 .3343506 .21299744 .31533814 .16699219 .19230652 .15699768 .1512909 .15699768 .107284549 .15699768 .0012512207 .23999024-.0107421879 .272995-.0107421879 .2919922-.0107421879 .32699586-.007751465 .36299134 .024246216 .32998658-.12471008 .25698854-.1796875 .20098877-.1796875 .17399597-.1796875 .14698792-.16569519 .13899231-.13670349 .18598938-.13171387 .18699646-.09172058 .18699646-.08872986 .18699646-.068725589 .17098999-.056732179 .15299988-.056732179 .13598633-.056732179 .102996829-.067733768 .102996829-.11772156 .102996829-.17070008 .14498902-.20469666 .20098877-.20469666 .31098939-.20469666 .40299989-.096725467 .42599488-.003753662Z"/>
<path id="font_5_81" d="M.5209961 .2753296C.5209961 .37036134 .46099855 .4423828 .36898805 .4423828 .24198914 .4423828 .11099243 .30134584 .11099243 .1552887 .11099243 .06227112 .16899109-.0107421879 .2630005-.0107421879 .3929901-.0107421879 .5209961 .1342926 .5209961 .2753296M.44799806 .31333924C.44799806 .27833558 .42900086 .16429138 .38398744 .09527588 .35198976 .04626465 .30499269 .014251709 .2630005 .014251709 .22799683 .014251709 .18399048 .038253786 .18399048 .119277957 .18399048 .15829468 .20399475 .26333619 .24299622 .32835389 .27598573 .38536073 .32699586 .41737367 .36898805 .41737367 .41299439 .41737367 .44799806 .38136292 .44799806 .31333924Z"/>
<path id="font_5_77" d="M.6029968 .14329529C.6029968 .1552887 .58999636 .1552887 .58599856 .1552887 .57199099 .1552887 .57099917 .15229798 .5649872 .13128662 .5549927 .09527588 .5269928 .014251709 .47299195 .014251709 .46499635 .014251709 .45199586 .01524353 .45199586 .042251588 .45199586 .06626892 .46398927 .09828186 .47200013 .120285037 .48999024 .16830445 .5309906 .2793274 .5309906 .3363495 .5309906 .4033661 .4909973 .4423828 .42099 .4423828 .34899903 .4423828 .30099488 .39837647 .2749939 .36636354 .2659912 .41638185 .22898865 .4423828 .18699646 .4423828 .1539917 .4423828 .1289978 .42237855 .11099243 .3843689 .09498596 .34934999 .08099365 .29333497 .08099365 .28933717 .08099365 .27633668 .09199524 .27633668 .09799194 .27633668 .11299133 .27633668 .11299133 .28033448 .117996219 .30033876 .13798523 .3803711 .15699768 .41737367 .18499756 .41737367 .20098877 .41737367 .21099854 .40837098 .21099854 .3773651 .21099854 .35635377 .20498657 .33035279 .20399475 .32635499L.13198853 .038253786C.12799073 .024246216 .12799073 .022247315 .12799073 .01725769 .12799073-.00074768069 .14199829-.0107421879 .15699768-.0107421879 .18899536-.0107421879 .19400025 .009246826 .20698548 .06427002L.22898865 .15029907 .26098634 .28033448C.2649994 .29333497 .29299928 .34535218 .31698609 .3693695 .33198548 .3843689 .36499024 .41737367 .4189911 .41737367 .45700074 .41737367 .46598817 .3843689 .46598817 .35235597 .46598817 .29434205 .4229889 .17630005 .4059906 .13128662 .3939972 .09828186 .3919983 .0922699 .3919983 .0712738 .3919983 .01725769 .42999269-.0107421879 .47099305-.0107421879 .56599429-.0107421879 .6029968 .1362915 .6029968 .14329529Z"/>
<path id="font_5_75" d="M.8659973 .14329529C.8659973 .1552887 .8529968 .1552887 .848999 .1552887 .83499148 .1552887 .83399966 .15229798 .8279877 .13128662 .81799319 .09527588 .7899933 .014251709 .73599246 .014251709 .7279968 .014251709 .71499636 .01524353 .71499636 .042251588 .71499636 .06626892 .72698977 .09828186 .7350006 .120285037 .7529907 .16830445 .7939911 .2793274 .7939911 .3363495 .7939911 .4033661 .7539978 .4423828 .6839905 .4423828 .61499026 .4423828 .56599429 .40437318 .5309906 .35635377 .522995 .41438294 .47999574 .4423828 .42199708 .4423828 .36698915 .4423828 .31698609 .41838075 .2749939 .36535646 .2659912 .41737367 .22799683 .4423828 .18699646 .4423828 .1539917 .4423828 .1289978 .42237855 .11099243 .3843689 .09498596 .34934999 .08099365 .29333497 .08099365 .28933717 .08099365 .27633668 .09199524 .27633668 .09799194 .27633668 .11299133 .27633668 .11299133 .28033448 .117996219 .30033876 .13798523 .3803711 .15699768 .41737367 .18499756 .41737367 .20098877 .41737367 .21099854 .40837098 .21099854 .3773651 .21099854 .35635377 .20498657 .33035279 .20399475 .32635499L.13198853 .038253786C.12799073 .024246216 .12799073 .022247315 .12799073 .01725769 .12799073-.00074768069 .14199829-.0107421879 .15699768-.0107421879 .18899536-.0107421879 .19400025 .009246826 .20698548 .06427002L.22898865 .15029907 .26098634 .28033448C.2630005 .28733827 .28799439 .3423462 .32699586 .379364 .35499574 .40538026 .3889923 .41737367 .4189911 .41737367 .44898988 .41737367 .46699525 .39736939 .46699525 .35134889 .46699525 .3333435 .46099855 .30334474 .45799256 .29034425L.394989 .038253786C.3909912 .024246216 .3909912 .022247315 .3909912 .01725769 .3909912-.00074768069 .40499879-.0107421879 .41999818-.0107421879 .45199586-.0107421879 .45700074 .009246826 .46998597 .06427002L.49198915 .15029907 .5239868 .28033448C.5279999 .29333497 .55599978 .34535218 .5799866 .3693695 .59498599 .3843689 .6279907 .41737367 .6819916 .41737367 .7200012 .41737367 .72898867 .3843689 .72898867 .35235597 .72898867 .29434205 .6859894 .17630005 .6689911 .13128662 .6569977 .09828186 .6549988 .0922699 .6549988 .0712738 .6549988 .01725769 .69299319-.0107421879 .73399356-.0107421879 .82899478-.0107421879 .8659973 .1362915 .8659973 .14329529Z"/>
<path id="font_5_44" d="M.30699159 .3866577C.30699159 .4076538 .2919922 .43066407 .2619934 .43066407 .22799683 .43066407 .19599915 .3996582 .19599915 .36665345 .19599915 .33966065 .21598816 .32266236 .24099732 .32266236 .2749939 .32266236 .30699159 .35565187 .30699159 .3866577M.22599793 .06399536C.22599793 .08699036 .20899964 .10798645 .18099976 .10798645 .14498902 .10798645 .114990238 .07398987 .114990238 .04399109 .114990238 .020996094 .13198853 0 .1599884 0 .19599915 0 .22599793 .033996583 .22599793 .06399536Z"/>
</defs>
<path transform="matrix(1.00003,0,0,-1.00003,2.2955018,342.16578)" stroke-width=".79701" stroke-linecap="butt" stroke-miterlimit="10" stroke-linejoin="miter" fill="none" stroke="#b9b9b9" d="M0 7.97021V332.1915C0 336.59339 3.56833 340.1617 7.97021 340.1617H417.23194C421.6338 340.1617 425.20213 336.59339 425.20213 332.1915V7.97021C425.20213 3.56833 421.6338 0 417.23194 0H7.97021C3.56833 0 0 3.56833 0 7.97021ZM425.20213 340.1617"/>
<path transform="matrix(1.00003,0,0,-1.00003,2.2955018,342.16578)" stroke-width=".3985" stroke-linecap="butt" stroke-miterlimit="10" stroke-linejoin="miter" fill="none" stroke="#d2d2d2" d="M0 255.12128H425.20213"/>
<path transform="matrix(1.00003,0,0,-1.00003,2.2955018,342.16578)" stroke-width=".3985" stroke-linecap="butt" stroke-miterlimit="10" stroke-linejoin="miter" fill="none" stroke="#d2d2d2" d="M0 113.38724H425.20213"/>
<use data-text="d" xlink:href="#font_1_2" transform="matrix(8.966669,0,0,-8.966669,15.736908,20.743134)"/>
<use data-text="A" xlink:href="#font_2_1" transform="matrix(5.97778,0,0,-5.97778,20.512055,21.740174)"/>
<use data-text="(" xlink:href="#font_3_1" transform="matrix(8.966669,0,0,-8.966669,26.534234,20.743134)"/>
<use data-text="a" xlink:href="#font_4_1" transform="matrix(8.966669,0,0,-8.966669,30.117348,20.743134)"/>
<use data-text="," xlink:href="#font_1_1" transform="matrix(8.966669,0,0,-8.966669,35.275499,20.743134)"/>
<use data-text="c" xlink:href="#font_4_3" transform="matrix(8.966669,0,0,-8.966669,39.37162,20.743134)"/>
<use data-text=")" xlink:href="#font_3_2" transform="matrix(8.966669,0,0,-8.966669,44.08676,20.743134)"/>
<use data-text="=" xlink:href="#font_3_3" transform="matrix(8.966669,0,0,-8.966669,50.219964,20.743134)"/>
<use data-text="b" xlink:href="#font_5_35" transform="matrix(8.966669,0,0,-8.966669,218.42299,20.250092)"/>
<use data-text="e" xlink:href="#font_5_50" transform="matrix(8.966669,0,0,-8.966669,222.19797,20.250092)"/>
<use data-text="c" xlink:href="#font_5_43" transform="matrix(8.966669,0,0,-8.966669,225.96396,20.250092)"/>
<use data-text="a" xlink:href="#font_5_28" transform="matrix(8.966669,0,0,-8.966669,229.72995,20.250092)"/>
<use data-text="u" xlink:href="#font_5_109" transform="matrix(8.966669,0,0,-8.966669,234.43746,20.250092)"/>
<use data-text="s" xlink:href="#font_5_98" transform="matrix(8.966669,0,0,-8.966669,239.37808,20.250092)"/>
<use data-text="e" xlink:href="#font_5_50" transform="matrix(8.966669,0,0,-8.966669,243.14408,20.250092)"/>
<use data-text="d" xlink:href="#font_1_2" transform="matrix(8.966669,0,0,-8.966669,15.736908,105.78668)"/>
<use data-text="A" xlink:href="#font_2_1" transform="matrix(5.97778,0,0,-5.97778,20.512055,106.78372)"/>
<use data-text="(" xlink:href="#font_3_1" transform="matrix(8.966669,0,0,-8.966669,26.534234,105.78668)"/>
<use data-text="b" xlink:href="#font_4_2" transform="matrix(8.966669,0,0,-8.966669,30.117348,105.78668)"/>
<use data-text="," xlink:href="#font_1_1" transform="matrix(8.966669,0,0,-8.966669,36.01252,105.78668)"/>
<use data-text="c" xlink:href="#font_4_3" transform="matrix(8.966669,0,0,-8.966669,40.108644,105.78668)"/>
<use data-text=")" xlink:href="#font_3_2" transform="matrix(8.966669,0,0,-8.966669,44.823785,105.78668)"/>
<use data-text="=" xlink:href="#font_3_3" transform="matrix(8.966669,0,0,-8.966669,50.956987,105.78668)"/>
<use data-text="W" xlink:href="#font_5_113" transform="matrix(8.966669,0,0,-8.966669,15.736908,247.03092)"/>
<use data-text="h" xlink:href="#font_5_63" transform="matrix(8.966669,0,0,-8.966669,24.927742,247.03092)"/>
<use data-text="a" xlink:href="#font_5_28" transform="matrix(8.966669,0,0,-8.966669,29.635247,247.03092)"/>
<use data-text="t" xlink:href="#font_5_105" transform="matrix(8.966669,0,0,-8.966669,34.342744,247.03092)"/>
<use data-text="t" xlink:href="#font_5_105" transform="matrix(8.966669,0,0,-8.966669,40.691148,247.03092)"/>
<use data-text="h" xlink:href="#font_5_63" transform="matrix(8.966669,0,0,-8.966669,43.74878,247.03092)"/>
<use data-text="i" xlink:href="#font_5_66" transform="matrix(8.966669,0,0,-8.966669,48.456285,247.03092)"/>
<use data-text="s" xlink:href="#font_5_98" transform="matrix(8.966669,0,0,-8.966669,51.280786,247.03092)"/>
<use data-text="s" xlink:href="#font_5_98" transform="matrix(8.966669,0,0,-8.966669,58.337564,247.03092)"/>
<use data-text="a" xlink:href="#font_5_28" transform="matrix(8.966669,0,0,-8.966669,62.10356,247.03092)"/>
<use data-text="y" xlink:href="#font_5_118" transform="matrix(8.966669,0,0,-8.966669,66.81108,247.03092)"/>
<use data-text="s" xlink:href="#font_5_98" transform="matrix(8.966669,0,0,-8.966669,71.276477,247.03092)"/>
<use data-text="a" xlink:href="#font_5_28" transform="matrix(8.966669,0,0,-8.966669,78.33324,247.03092)"/>
<use data-text="b" xlink:href="#font_5_35" transform="matrix(8.966669,0,0,-8.966669,83.04074,247.03092)"/>
<use data-text="o" xlink:href="#font_5_81" transform="matrix(8.966669,0,0,-8.966669,86.81572,247.03092)"/>
<use data-text="u" xlink:href="#font_5_109" transform="matrix(8.966669,0,0,-8.966669,91.523227,247.03092)"/>
<use data-text="t" xlink:href="#font_5_105" transform="matrix(8.966669,0,0,-8.966669,96.46387,247.03092)"/>
<use data-text="e" xlink:href="#font_5_50" transform="matrix(8.966669,0,0,-8.966669,102.8033,247.03092)"/>
<use data-text="n" xlink:href="#font_5_77" transform="matrix(8.966669,0,0,-8.966669,107.03558,247.03092)"/>
<use data-text="t" xlink:href="#font_5_105" transform="matrix(8.966669,0,0,-8.966669,112.20935,247.03092)"/>
<use data-text="h" xlink:href="#font_5_63" transform="matrix(8.966669,0,0,-8.966669,115.26698,247.03092)"/>
<use data-text="u" xlink:href="#font_5_109" transform="matrix(8.966669,0,0,-8.966669,119.97449,247.03092)"/>
<use data-text="s" xlink:href="#font_5_98" transform="matrix(8.966669,0,0,-8.966669,124.91513,247.03092)"/>
<use data-text="i" xlink:href="#font_5_66" transform="matrix(8.966669,0,0,-8.966669,128.68112,247.03092)"/>
<use data-text="a" xlink:href="#font_5_28" transform="matrix(8.966669,0,0,-8.966669,131.50563,247.03092)"/>
<use data-text="s" xlink:href="#font_5_98" transform="matrix(8.966669,0,0,-8.966669,136.21314,247.03092)"/>
<use data-text="m" xlink:href="#font_5_75" transform="matrix(8.966669,0,0,-8.966669,139.97914,247.03092)"/>
<use data-text=":" xlink:href="#font_5_44" transform="matrix(8.966669,0,0,-8.966669,147.51114,247.03092)"/>
</svg>
