<svg xmlns="http://www.w3.org/2000/svg" xmlns:xlink="http://www.w3.org/1999/xlink" xmlns:inkscape="http://www.inkscape.org/namespaces/inkscape" version="1.1" width="429" height="429" viewBox="0 0 429 429">
<defs>
<path id="font_1_2" d="M.5239868 .6603241C.5279999 .67433169 .5279999 .67633059 .5279999 .68032839 .5279999 .68933108 .5219879 .69433596 .5130005 .69433596 .49899293 .69433596 .41099549 .6863251 .3909912 .6843262 .3809967 .68333438 .36999513 .6823273 .36999513 .665329 .36999513 .6523285 .3809967 .6523285 .39698792 .6523285 .44400025 .6523285 .44400025 .6453247 .44400025 .6363373 .44400025 .6293335 .43499757 .5943451 .42999269 .573349L.41099549 .4963684C.40098573 .45837403 .3909912 .41937257 .38198854 .3803711 .36299134 .41638185 .33198548 .4423828 .2869873 .4423828 .17098999 .4423828 .041992189 .30433656 .041992189 .1512909 .041992189 .041259767 .11199951-.0107421879 .1789856-.0107421879 .24398804-.0107421879 .29699708 .043258668 .31298829 .06227112 .32398988 .007247925 .37399293-.0107421879 .4059906-.0107421879 .43499757-.0107421879 .45999146 .002243042 .48199464 .044265748 .5 .07727051 .5139923 .13928223 .5139923 .14329529 .5139923 .14828491 .5109863 .1552887 .5009918 .1552887 .4889984 .1552887 .48799134 .15029907 .48399354 .13128662 .46199037 .044265748 .43998719 .014251709 .40899659 .014251709 .38398744 .014251709 .37799073 .038253786 .37799073 .060272218 .37799073 .073272708 .3829956 .10127258 .38398744 .104278568L.5239868 .6603241M.31698609 .121276859C.31298829 .105285648 .31199647 .103271488 .29599 .08326721 .2599945 .040252687 .21899414 .014251709 .18199158 .014251709 .1329956 .014251709 .115997318 .06526184 .115997318 .10827637 .115997318 .15730286 .14498902 .27233888 .16899109 .32034303 .20098877 .3803711 .24699402 .41737367 .2869873 .41737367 .35398866 .41737367 .36898805 .3363495 .36898805 .3313446 .36898805 .32635499 .36698915 .32034303 .3659973 .3163452L.31698609 .121276859Z"/>
<path id="font_2_4" d="M.25698854 .69433596 .11898804 .55908206 .13699341 .53808596 .25698854 .639328 .37599183 .53808596 .3939972 .55908206 .25698854 .69433596Z"/>
<path id="font_1_3" d="M.4039917 .40527345C.37098695 .39926148 .35398866 .3712616 .35398866 .3502655 .35398866 .3312683 .36799623 .31427003 .3929901 .31427003 .41999818 .31427003 .44799806 .337265 .44799806 .37426759 .44799806 .41334535 .4119873 .4423828 .36299134 .4423828 .28799439 .4423828 .24598694 .386261 .23199463 .3672638 .21998596 .42237855 .1749878 .4423828 .13699341 .4423828 .100997928 .4423828 .07798767 .42037965 .06098938 .38526917 .041992189 .34925843 .0289917 .29226686 .0289917 .28826905 .0289917 .27926637 .035995485 .27626039 .042999269 .27626039 .053985597 .27626039 .055999757 .28126527 .06098938 .30126954 .07998657 .38026429 .100997928 .41737367 .1349945 .41737367 .16499329 .41737367 .16499329 .38526917 .16499329 .37026979 .16499329 .34925843 .15699768 .31826783 .15098572 .29226686 .14399719 .26626588 .13398743 .2232666 .12998963 .21125794L.08999634 .04725647C.08299255 .023254395 .08299255 .021255494 .08299255 .018249512 .08299255 .0052490236 .09199524-.0107421879 .11399841-.0107421879 .1459961-.0107421879 .15299988 .01625061 .1599884 .04525757 .17199707 .088256839 .17199707 .09025574 .18199158 .1312561 .21899414 .28126527 .22499085 .30526734 .22698975 .31025697 .23298645 .32226563 .2789917 .41737367 .3619995 .41737367 .3849945 .41737367 .39898683 .40930177 .4039917 .40527345Z"/>
<path id="font_1_4" d="M.21299744 .3996582H.30799867C.32598878 .3996582 .33799745 .3996582 .33799745 .41766358 .33799745 .43066407 .32798768 .43066407 .30999757 .43066407H.22099304L.2619934 .59646609C.2619934 .6124573 .24899292 .62545779 .23098755 .62545779 .19898987 .62545779 .19099427 .59646609 .18899536 .5864868L.14898682 .43066407H.054992677C.035995485 .43066407 .023986817 .43066407 .023986817 .4126587 .023986817 .3996582 .034988405 .3996582 .052993776 .3996582H.14199829L.07398987 .12808228C.06599426 .09811401 .06599426 .09613037 .06599426 .08215332 .06599426 .023239136 .11099243-.0107421879 .16299439-.0107421879 .2669983-.0107421879 .32598878 .1330719 .32598878 .14305115 .32598878 .14804077 .32299806 .1550293 .31298829 .1550293 .30299378 .1550293 .3019867 .15203858 .29499818 .1350708 .2639923 .06317139 .21398926 .014251709 .16499329 .014251709 .14498902 .014251709 .1329956 .027236939 .1329956 .060180665 .1329956 .08215332 .13598633 .09413147 .13999939 .10910034L.21299744 .3996582Z"/>
<path id="font_2_3" d="M.70799258 .3310089C.7220001 .3310089 .7409973 .3310089 .7409973 .35202027 .7409973 .37402345 .71899417 .37402345 .70399478 .37402345H.09399414C.07899475 .37402345 .056991579 .37402345 .056991579 .35202027 .056991579 .3310089 .07699585 .3310089 .08999634 .3310089H.70799258M.70399478 .12695313C.71899417 .12695313 .7409973 .12695313 .7409973 .14894104 .7409973 .1699524 .7220001 .1699524 .70799258 .1699524H.08999634C.07699585 .1699524 .056991579 .1699524 .056991579 .14894104 .056991579 .12695313 .07899475 .12695313 .09399414 .12695313H.70399478Z"/>
<path id="font_1_1" d="M.46598817 .49519349C.46598817 .5981293 .43199159 .7050781 .33999635 .7050781 .19400025 .7050781 .040985109 .4202423 .040985109 .19825745 .040985109 .12625122 .06298828-.0107421879 .16699219-.0107421879 .31298829-.0107421879 .46598817 .27127076 .46598817 .49519349M.1499939 .36328126C.16999817 .44223023 .19099427 .5151825 .23199463 .58413699 .2559967 .62409976 .29299928 .68006899 .33898927 .68006899 .3929901 .68006899 .39698792 .59413149 .39698792 .55615237 .39698792 .4961853 .3809967 .426239 .3659973 .36328126H.1499939M.35699464 .3312683C.34098817 .26826478 .32199098 .19326782 .28199769 .12225342 .2559967 .07525635 .21598816 .014251709 .16799927 .014251709 .125 .014251709 .11099243 .06625366 .11099243 .13926697 .11099243 .20326233 .1269989 .26826478 .14199829 .3312683H.35699464Z"/>
<path id="font_3_1" d="M.6749878 .22944641C.69299319 .22944641 .71199038 .22944641 .71199038 .25144959 .71199038 .27246095 .69200137 .27246095 .6749878 .27246095H.12298584C.10598755 .27246095 .085998538 .27246095 .085998538 .25144959 .085998538 .22944641 .10499573 .22944641 .12298584 .22944641H.6749878Z"/>
<path id="font_3_2" d="M.8509979 .22944641C.7319946 .14404297 .70799258 .012786865 .70799258 .0017852783 .70799258-.012207031 .72099307-.012207031 .72898867-.012207031 .7409973-.012207031 .7480011-.012207031 .7509918 .00079345706 .7779999 .118927 .8470001 .19729615 .95599368 .23745728 .96199038 .23945618 .9700012 .2424469 .9700012 .25045777 .9700012 .25946046 .96299746 .26245118 .95700076 .26445008 .83099368 .31137086 .7739868 .400177 .7509918 .4981537 .7480011 .512146 .74398806 .5131531 .72898867 .5131531 .7200012 .5131531 .70799258 .5131531 .70799258 .4991455 .70799258 .48814393 .7319946 .3562622 .8509979 .27246095H.09399414C.07699585 .27246095 .056991579 .27246095 .056991579 .25144959 .056991579 .22944641 .07598877 .22944641 .09399414 .22944641H.8509979Z"/>
<path id="font_1_5" d="M.48098756 .3693695C.48098756 .43937684 .44400025 .44337464 .43499757 .44337464 .4099884 .44337464 .38398744 .41638185 .38398744 .39337159 .38398744 .3783722 .3929901 .37036134 .3999939 .36436463 .4269867 .33935548 .43598939 .30734254 .43598939 .28134156 .43598939 .23731995 .37298585 .014251709 .25698854 .014251709 .18199158 .014251709 .18199158 .08427429 .18199158 .10227966 .18199158 .14529419 .19599915 .19630432 .23098755 .28733827 .24699402 .3293457 .25099183 .33935548 .25099183 .35835267 .25099183 .40737916 .21398926 .4423828 .16499329 .4423828 .068984989 .4423828 .0289917 .30033876 .0289917 .28833009 .0289917 .2793274 .035995485 .27633668 .042999269 .27633668 .053985597 .27633668 .054992677 .28233338 .05899048 .29533387 .07998657 .36836244 .11999512 .41737367 .1619873 .41737367 .18199158 .41737367 .18598938 .40437318 .18598938 .3843689 .18598938 .36735536 .18199158 .34934999 .17298889 .3253479 .13699341 .22932434 .11299133 .16529846 .11299133 .11528015 .11299133 .021255494 .18399048-.0107421879 .25299073-.0107421879 .42099-.0107421879 .48098756 .30534364 .48098756 .3693695Z"/>
<path id="font_2_1" d="M.34098817-.23803711C.34098817-.23303223 .33799745-.23002625 .33198548-.22303772 .20298767-.105026248 .1639862 .07498169 .1639862 .24996948 .1639862 .40498353 .19400025 .59298709 .33499146 .72698977 .33898927 .73098757 .34098817 .73399356 .34098817 .7389984 .34098817 .74598696 .33599855 .75 .32899476 .75 .31698609 .75 .22698975 .6779785 .17298889 .568985 .125 .47297669 .100997928 .36997987 .100997928 .25097657 .100997928 .17897034 .10998535 .064971927 .16499329-.053024293 .22399903-.17602539 .31698609-.24902344 .32899476-.24902344 .33599855-.24902344 .34098817-.24502564 .34098817-.23803711Z"/>
<path id="font_2_2" d="M.2979889 .25097657C.2979889 .3329773 .28599549 .4429779 .23399353 .5539856 .1749878 .6769867 .08198547 .75 .069992069 .75 .05999756 .75 .057998659 .74198916 .057998659 .7389984 .057998659 .73399356 .05999756 .73098757 .066986087 .72398379 .125 .6719818 .23498535 .5359802 .23498535 .25097657 .23498535 .10797119 .20899964-.091033939 .06399536-.22602844 .06199646-.22903443 .057998659-.23303223 .057998659-.23803711 .057998659-.24102783 .05999756-.24902344 .069992069-.24902344 .08198547-.24902344 .17199707-.17703247 .22599793-.06802368 .27398683 .02796936 .2979889 .13098145 .2979889 .25097657Z"/>
<path id="font_4_113" d="M1.147995 .6696167C1.147995 .6776123 1.1419983 .6826172 1.1349945 .6826172 1.1299896 .6826172 1.1109924 .6796112 1.0589905 .6796112 1.0269928 .6796112 .9929962 .6826172 .96199038 .6826172 .95599368 .6826172 .94299319 .6826172 .94299319 .6646118 .94299319 .65260317 .95399478 .6516113 .95799258 .6516113 .96798709 .6506195 1.0099945 .64860537 1.0099945 .61460879 1.0099945 .6026001 1.0009918 .5866089 .99598696 .5776062L.7389984 .11054993 .71299746 .6056061C.71199038 .62260439 .71099856 .6506195 .7799988 .6516113 .79100039 .6516113 .8029938 .6516113 .8029938 .6696167 .8029938 .6726074 .8019867 .6826172 .78900149 .6826172 .7539978 .6826172 .71499636 .6796112 .67900088 .6796112 .6469879 .6796112 .6119995 .6826172 .58200076 .6826172 .5779877 .6826172 .5629883 .6826172 .5629883 .6646118 .5629883 .6516113 .57499697 .6516113 .58499148 .6516113 .625 .6516113 .6279907 .6456146 .6309967 .63461306 .6319885 .62861636 .6349945 .5796051 .6349945 .5716095 .6349945 .56559756 .6349945 .5626068 .6289978 .5516052L.38598634 .11054993 .3600006 .6036072C.35899354 .62361147 .35798646 .6506195 .4249878 .6516113 .43899537 .6516113 .44999696 .6516113 .44999696 .6696167 .44999696 .6786041 .44299317 .6826172 .43499757 .6826172 .3999939 .6826172 .3619995 .6796112 .32598878 .6796112 .2939911 .6796112 .25898744 .6826172 .22799683 .6826172 .22299195 .6826172 .20999146 .6826172 .20999146 .6646118 .20999146 .6516113 .22099304 .6516113 .23298645 .6516113 .2769928 .6516113 .27799989 .64460757 .2789917 .61761477L.31098939 .002532959C.31199647-.016464234 .31199647-.022460938 .32998658-.022460938 .34700013-.022460938 .35198976-.014465332 .35798646-.0034637452L.6380005 .5045929 .6639862 .0045318605C.6649933-.015472412 .6649933-.022460938 .68299868-.022460938 .69200137-.022460938 .70199587-.022460938 .71199038-.0034637452L1.0249939 .5646057C1.0639954 .63461306 1.0899963 .6476135 1.1339874 .6516113 1.1439972 .65260317 1.147995 .660614 1.147995 .6696167Z"/>
<path id="font_4_63" d="M.5509949 .14329529C.5509949 .1552887 .5379944 .1552887 .5339966 .1552887 .519989 .1552887 .5189972 .15229798 .5130005 .13128662 .5029907 .09527588 .47499085 .014251709 .42099 .014251709 .41299439 .014251709 .3999939 .01524353 .3999939 .042251588 .3999939 .06626892 .4119873 .09828186 .41999818 .120285037 .43798829 .16830445 .47898866 .2793274 .47898866 .3363495 .47898866 .4033661 .43899537 .4423828 .36898805 .4423828 .31399537 .4423828 .269989 .41737367 .23498535 .3803711L.30499269 .66230776C.30799867 .67630007 .30899049 .6773071 .30899049 .68029788 .30899049 .69329836 .2999878 .6953125 .2829895 .69329836L.1789856 .6843109C.1639862 .68330386 .1539917 .682312 .1539917 .66529849 .1539917 .652298 .1639862 .652298 .18099976 .652298 .22799683 .652298 .22799683 .64430239 .22799683 .63531497 .22799683 .63531497 .22799683 .62831118 .22399903 .61331179L.07998657 .037261964C.07598877 .023254395 .07598877 .021255494 .07598877 .01725769 .07598877 .002243042 .08699036-.0107421879 .10598755-.0107421879 .13699341-.0107421879 .14299011 .014251709 .1499939 .044265748 .1619873 .08728027 .1619873 .089279178 .17199707 .13027954L.20399475 .2603302C.21499634 .30134584 .23498535 .33935548 .2649994 .3693695 .27999879 .3843689 .31298829 .41737367 .36698915 .41737367 .40499879 .41737367 .4139862 .3843689 .4139862 .35235597 .4139862 .29434205 .37098695 .17630005 .35398866 .13128662 .34199525 .09828186 .33999635 .0922699 .33999635 .0712738 .33999635 .01725769 .37799073-.0107421879 .4189911-.0107421879 .5139923-.0107421879 .5509949 .1362915 .5509949 .14329529Z"/>
<path id="font_4_118" d="M.42599488-.003753662 .5219879 .38237C.526001 .39736939 .526001 .3993683 .526001 .4033661 .526001 .42137147 .5119934 .43138124 .49699403 .43138124 .47999574 .43138124 .46299745 .42237855 .45599366 .3943634L.3829956 .104278568C.37298585 .06326294 .32798768 .014251709 .2769928 .014251709 .22698975 .014251709 .22200012 .06427002 .22200012 .091278079 .22200012 .14428711 .24499512 .21331787 .2789917 .30633546 .28799439 .3293457 .2919922 .3403473 .2919922 .36036683 .2919922 .40937806 .2579956 .4423828 .21299744 .4423828 .117996219 .4423828 .08099365 .29733277 .08099365 .28833009 .08099365 .27633668 .09298706 .27633668 .09799194 .27633668 .11199951 .27633668 .11299133 .28134156 .116989139 .29333497 .12399292 .3193512 .15098572 .41737367 .20999146 .41737367 .21998596 .41737367 .23098755 .41537477 .23098755 .38937379 .23098755 .36436463 .21998596 .3343506 .21299744 .31533814 .16699219 .19230652 .15699768 .1512909 .15699768 .107284549 .15699768 .0012512207 .23999024-.0107421879 .272995-.0107421879 .2919922-.0107421879 .32699586-.007751465 .36299134 .024246216 .32998658-.12471008 .25698854-.1796875 .20098877-.1796875 .17399597-.1796875 .14698792-.16569519 .13899231-.13670349 .18598938-.13171387 .18699646-.09172058 .18699646-.08872986 .18699646-.068725589 .17098999-.056732179 .15299988-.056732179 .13598633-.056732179 .102996829-.067733768 .102996829-.11772156 .102996829-.17070008 .14498902-.20469666 .20098877-.20469666 .31098939-.20469666 .40299989-.096725467 .42599488-.003753662Z"/>
<path id="font_4_105" d="M.3659973 .14405823C.3659973 .1550293 .35299684 .1550293 .34999085 .1550293 .33699037 .1550293 .33599855 .15203858 .32998658 .13806153 .3019867 .06816101 .2599945 .014251709 .21199036 .014251709 .20098877 .014251709 .18399048 .01625061 .18399048 .05519104 .18399048 .06417847 .18699646 .086135867 .19198609 .10610962L.2649994 .3996582H.35099793C.36799623 .3996582 .3789978 .3996582 .3789978 .41766358 .3789978 .43066407 .36898805 .43066407 .35299684 .43066407H.272995L.30999757 .5778961C.31399537 .59191897 .31399537 .59391787 .31399537 .59791567 .31399537 .61494448 .30099488 .62597659 .2849884 .62597659 .2579956 .62597659 .24699402 .6039276 .24299622 .5868988L.20399475 .43066407H.11898804C.101989749 .43066407 .09098816 .43066407 .09098816 .4126587 .09098816 .3996582 .100997928 .3996582 .116989139 .3996582H.19599915L.125 .114089969C.125 .114089969 .11999512 .09512329 .11999512 .08015442 .11999512 .035217287 .15098572-.0107421879 .20999146-.0107421879 .31098939-.0107421879 .3659973 .13406372 .3659973 .14405823Z"/>
<path id="font_4_50" d="M.48199464 .10134888C.47799684 .114364627 .46899415 .12036133 .46299745 .12036133 .45799256 .12036133 .45599366 .11836243 .44898988 .10935974 .3919983 .03627014 .31098939 .014251709 .2649994 .014251709 .19699097 .014251709 .18699646 .09033203 .18699646 .12536621 .18699646 .13337708 .18699646 .16542053 .20298767 .22949219H.23199463C.30699159 .22949219 .35899354 .2374878 .394989 .2514801 .46499635 .27946473 .47399903 .33543397 .47399903 .3564148 .47399903 .40138246 .43598939 .4423828 .36799623 .4423828 .2659912 .4423828 .115997318 .3484192 .115997318 .16741944 .115997318 .05529785 .1789856-.0107421879 .2639923-.0107421879 .35598756-.0107421879 .44400025 .039276124 .48199464 .10134888M.43299867 .35742188C.43299867 .25448609 .27398683 .25448609 .20899964 .25448609 .25498963 .41438294 .35398866 .41737367 .36799623 .41737367 .4119873 .41737367 .43299867 .38739015 .43299867 .35742188Z"/>
<path id="font_4_112" d="M.5029907 .3733673C.5029907 .42938233 .47599793 .4423828 .45999146 .4423828 .43899537 .4423828 .4119873 .42137147 .4119873 .39637757 .4119873 .3863678 .4139862 .38136292 .42199708 .37236024 .43299867 .35935975 .45199586 .33735658 .45199586 .29034425 .45199586 .2603302 .4039917 .014251709 .2889862 .014251709 .22799683 .014251709 .22299195 .0712738 .22299195 .09727478 .22299195 .14529419 .24398804 .21131897 .2789917 .30734254 .28799439 .3293457 .2919922 .3403473 .2919922 .36036683 .2919922 .40937806 .2579956 .4423828 .21299744 .4423828 .117996219 .4423828 .08099365 .29733277 .08099365 .28833009 .08099365 .27633668 .09298706 .27633668 .09799194 .27633668 .11199951 .27633668 .11299133 .28134156 .116989139 .29333497 .12399292 .3193512 .15098572 .41737367 .20999146 .41737367 .21998596 .41737367 .23098755 .41537477 .23098755 .38937379 .23098755 .36436463 .21998596 .3343506 .21299744 .31533814 .1579895 .16729737 .1579895 .14329529 .1579895 .11227417 .1579895 .09727478 .1579895 .051254274 .19198609 .021255494 .22299195-.0067443849 .2649994-.0107421879 .28599549-.0107421879 .45199586-.0107421879 .5029907 .33035279 .5029907 .3733673Z"/>
<path id="font_4_72" d="M.28799439 .14326477C.28799439 .15525818 .2749939 .15525818 .2709961 .15525818 .2559967 .15525818 .25498963 .15126038 .25099183 .13226319 .22799683 .040252687 .20899964 .014251709 .18399048 .014251709 .16499329 .014251709 .1579895 .030258179 .1579895 .055252077 .1579895 .06425476 .16099549 .086257938 .1659851 .10626221L.30499269 .66230776C.30799867 .6753082 .30899049 .6773071 .30899049 .68029788 .30899049 .69329836 .2999878 .6953125 .2829895 .69329836L.1789856 .6843109C.1639862 .68330386 .1539917 .682312 .1539917 .66529849 .1539917 .652298 .1639862 .652298 .18099976 .652298 .22799683 .652298 .22799683 .64430239 .22799683 .6352997 .22799683 .6352997 .22799683 .62831118 .22399903 .61331179L.09899902 .11425781C.09899902 .11425781 .09399414 .09526062 .09399414 .08026123 .09399414 .03225708 .12799073-.0107421879 .18299866-.0107421879 .22799683-.0107421879 .24798584 .026245118 .25698854 .04525757 .2749939 .08125305 .28799439 .14025879 .28799439 .14326477Z"/>
<path id="font_4_81" d="M.5209961 .2753296C.5209961 .37036134 .46099855 .4423828 .36898805 .4423828 .24198914 .4423828 .11099243 .30134584 .11099243 .1552887 .11099243 .06227112 .16899109-.0107421879 .2630005-.0107421879 .3929901-.0107421879 .5209961 .1342926 .5209961 .2753296M.44799806 .31333924C.44799806 .27833558 .42900086 .16429138 .38398744 .09527588 .35198976 .04626465 .30499269 .014251709 .2630005 .014251709 .22799683 .014251709 .18399048 .038253786 .18399048 .119277957 .18399048 .15829468 .20399475 .26333619 .24299622 .32835389 .27598573 .38536073 .32699586 .41737367 .36898805 .41737367 .41299439 .41737367 .44799806 .38136292 .44799806 .31333924Z"/>
<path id="font_4_43" d="M.48199464 .10127258C.47799684 .11428833 .46899415 .120285037 .46299745 .120285037 .45799256 .120285037 .45599366 .11828613 .44898988 .10928345 .3919983 .036254884 .31098939 .014251709 .2649994 .014251709 .21499634 .014251709 .18399048 .052261354 .18399048 .11828613 .18399048 .16029358 .20399475 .2603302 .23999024 .32434083 .2689972 .3753662 .31999208 .41737367 .36999513 .41737367 .38198854 .41737367 .4249878 .41537477 .44198609 .37635804 .397995 .3713684 .3959961 .3333435 .3959961 .3293457 .3959961 .30033876 .4229889 .29634095 .42999269 .29634095 .44898988 .29634095 .47999574 .31134034 .47999574 .35635377 .47999574 .4033661 .43699647 .4423828 .36898805 .4423828 .24099732 .4423828 .11099243 .30033876 .11099243 .1552887 .11099243 .06726074 .1639862-.0107421879 .2639923-.0107421879 .35598756-.0107421879 .44400025 .039260866 .48199464 .10127258Z"/>
<path id="font_4_66" d="M.34098817 .14329529C.34098817 .1552887 .32798768 .1552887 .32398988 .1552887 .30999757 .1552887 .30899049 .15229798 .30299378 .13128662 .29299928 .09527588 .2649994 .014251709 .21099854 .014251709 .20298767 .014251709 .18998719 .01524353 .18998719 .042251588 .18998719 .059265138 .19599915 .08227539 .20698548 .11328125 .22099304 .15029907 .22099304 .15229798 .23799134 .19430542L.27198792 .28833009C.2809906 .31134034 .2919922 .34135438 .2919922 .36036683 .2919922 .40937806 .2579956 .4423828 .21299744 .4423828 .117996219 .4423828 .08099365 .29733277 .08099365 .28833009 .08099365 .27633668 .09298706 .27633668 .09799194 .27633668 .11199951 .27633668 .11299133 .28134156 .116989139 .29333497 .12399292 .3193512 .15098572 .41737367 .20999146 .41737367 .21998596 .41737367 .23098755 .41537477 .23098755 .38937379 .23098755 .36535646 .22399903 .34535218 .20698548 .29833985L.17199707 .205307 .14698792 .1362915C.13899231 .11528015 .12998963 .091278079 .12998963 .0712738 .12998963 .01725769 .16799927-.0107421879 .20899964-.0107421879 .3039856-.0107421879 .34098817 .1362915 .34098817 .14329529M.3619995 .6102905C.3619995 .6382904 .33999635 .6542969 .31698609 .6542969 .28599549 .6542969 .2519989 .62628176 .2519989 .59028628 .2519989 .5622864 .27398683 .54629519 .29699708 .54629519 .32798768 .54629519 .3619995 .57429507 .3619995 .6102905Z"/>
<path id="font_4_28" d="M.54100039 .14329529C.54100039 .1552887 .5279999 .1552887 .5239868 .1552887 .5089874 .1552887 .5079956 .1512909 .5039978 .1322937 .4869995 .06626892 .46899415 .014251709 .43598939 .014251709 .4169922 .014251709 .4099884 .030258179 .4099884 .055267335 .4099884 .06427002 .41299439 .08627319 .41799928 .106277469L.4850006 .37435914C.4889984 .3883667 .4889984 .3903656 .4889984 .3943634 .4889984 .41137696 .47599793 .42237855 .45999146 .42237855 .44699098 .42237855 .4249878 .41438294 .4189911 .3863678 .40899659 .40637208 .3829956 .4423828 .33299256 .4423828 .22099304 .4423828 .099990848 .29733277 .099990848 .14628601 .099990848 .044265748 .15899658-.0107421879 .22499085-.0107421879 .2849884-.0107421879 .32899476 .037261964 .34799195 .058258058 .35899354 .014251709 .3939972-.0107421879 .43499757-.0107421879 .48098756-.0107421879 .5019989 .029251099 .5099945 .04626465 .5279999 .08326721 .54100039 .1402893 .54100039 .14329529M.35398866 .12528992C.34498597 .091278079 .28199769 .014251709 .22799683 .014251709 .17298889 .014251709 .16999817 .088272098 .16999817 .103271488 .16999817 .15429688 .19999695 .264328 .21499634 .30233766 .24099732 .36535646 .2889862 .41737367 .33299256 .41737367 .3939972 .41737367 .40299989 .3333435 .40299989 .32635499 .40299989 .3213501 .40299989 .32034303 .3999939 .3103485L.35398866 .12528992Z"/>
<path id="font_4_98" d="M.40299989 .15620423C.40299989 .18418885 .3929901 .21018982 .37298585 .23118592 .34700013 .25717164 .32398988 .2621765 .2789917 .27116395 .24899292 .27816773 .21299744 .28515626 .21299744 .32815553 .21299744 .3461609 .22898865 .41737367 .31599427 .41737367 .34599305 .41737367 .38198854 .4053192 .3919983 .37016297 .35499574 .36315919 .35499574 .33015443 .35499574 .33015443 .35499574 .32115174 .36099244 .30215455 .3849945 .30215455 .40699769 .30215455 .42799378 .31915284 .42799378 .3561554 .42799378 .40130616 .3880005 .4423828 .31599427 .4423828 .19898987 .4423828 .15499878 .3491516 .15499878 .29415895 .15499878 .21618653 .22200012 .20219422 .2519989 .19519043 .29899598 .18519593 .34399415 .17520142 .34399415 .12321472 .34399415 .09422302 .31999208 .014251709 .21099854 .014251709 .18499756 .014251709 .1289978 .021255494 .11299133 .068237308 .1599884 .07322693 .1599884 .115219119 .1599884 .115219119 .1599884 .14221192 .13699341 .14820862 .12599182 .14820862 .11999512 .14820862 .07598877 .14520264 .07598877 .08622742 .07598877 .03024292 .1289978-.0107421879 .21099854-.0107421879 .3639984-.0107421879 .40299989 .11122131 .40299989 .15620423Z"/>
<path id="font_4_77" d="M.6029968 .14329529C.6029968 .1552887 .58999636 .1552887 .58599856 .1552887 .57199099 .1552887 .57099917 .15229798 .5649872 .13128662 .5549927 .09527588 .5269928 .014251709 .47299195 .014251709 .46499635 .014251709 .45199586 .01524353 .45199586 .042251588 .45199586 .06626892 .46398927 .09828186 .47200013 .120285037 .48999024 .16830445 .5309906 .2793274 .5309906 .3363495 .5309906 .4033661 .4909973 .4423828 .42099 .4423828 .34899903 .4423828 .30099488 .39837647 .2749939 .36636354 .2659912 .41638185 .22898865 .4423828 .18699646 .4423828 .1539917 .4423828 .1289978 .42237855 .11099243 .3843689 .09498596 .34934999 .08099365 .29333497 .08099365 .28933717 .08099365 .27633668 .09199524 .27633668 .09799194 .27633668 .11299133 .27633668 .11299133 .28033448 .117996219 .30033876 .13798523 .3803711 .15699768 .41737367 .18499756 .41737367 .20098877 .41737367 .21099854 .40837098 .21099854 .3773651 .21099854 .35635377 .20498657 .33035279 .20399475 .32635499L.13198853 .038253786C.12799073 .024246216 .12799073 .022247315 .12799073 .01725769 .12799073-.00074768069 .14199829-.0107421879 .15699768-.0107421879 .18899536-.0107421879 .19400025 .009246826 .20698548 .06427002L.22898865 .15029907 .26098634 .28033448C.2649994 .29333497 .29299928 .34535218 .31698609 .3693695 .33198548 .3843689 .36499024 .41737367 .4189911 .41737367 .45700074 .41737367 .46598817 .3843689 .46598817 .35235597 .46598817 .29434205 .4229889 .17630005 .4059906 .13128662 .3939972 .09828186 .3919983 .0922699 .3919983 .0712738 .3919983 .01725769 .42999269-.0107421879 .47099305-.0107421879 .56599429-.0107421879 .6029968 .1362915 .6029968 .14329529Z"/>
<path id="font_4_96" d="M.49899293 .3773651C.49899293 .41937257 .45199586 .4423828 .397995 .4423828 .33799745 .4423828 .2979889 .40637208 .27398683 .37236024 .2630005 .41737367 .22799683 .4423828 .18699646 .4423828 .1539917 .4423828 .1289978 .42237855 .11099243 .3843689 .09498596 .34934999 .08099365 .29333497 .08099365 .28933717 .08099365 .27633668 .09199524 .27633668 .09799194 .27633668 .11299133 .27633668 .11299133 .28033448 .117996219 .30033876 .13798523 .38035584 .15699768 .41737367 .18499756 .41737367 .20098877 .41737367 .21099854 .40837098 .21099854 .3773651 .21099854 .35635377 .20498657 .33035279 .20399475 .32633973L.13198853 .038269044C.12799073 .024261475 .12799073 .022262574 .12799073 .01725769 .12799073-.00074768069 .14199829-.0107421879 .15699768-.0107421879 .17098999-.0107421879 .18998719-.0047454836 .19799805 .026260376L.2630005 .28733827C.2649994 .29434205 .30899049 .41737367 .3959961 .41737367 .4019928 .41737367 .42999269 .41737367 .45098878 .40237428 .42099 .3923645 .41600038 .36836244 .41600038 .35635377 .41600038 .3363495 .43099977 .32434083 .44999696 .32434083 .47599793 .32434083 .49899293 .34635926 .49899293 .3773651Z"/>
<path id="font_4_47" d="M.5509949 .14329529C.5509949 .1552887 .5379944 .1552887 .5339966 .1552887 .5189972 .1552887 .5179901 .1512909 .5139923 .1322937 .49699403 .06626892 .47898866 .014251709 .44599916 .014251709 .4269867 .014251709 .41999818 .030258179 .41999818 .055267335 .41999818 .06427002 .4229889 .08627319 .42799378 .106277469L.5669861 .66230776C.56999209 .6753082 .57099917 .6773071 .57099917 .68029788 .57099917 .69329836 .56199648 .6953125 .54499819 .69329836L.44099427 .6843109C.42599488 .68330386 .41600038 .682312 .41600038 .66529849 .41600038 .652298 .42599488 .652298 .44299317 .652298 .48999024 .652298 .48999024 .64430239 .48999024 .63531497 .48999024 .62931826 .48999024 .62731936 .48599244 .61331179L.42900086 .3863678C.4189911 .40637208 .3929901 .4423828 .34298707 .4423828 .23098755 .4423828 .10998535 .29733277 .10998535 .14628601 .10998535 .044265748 .16899109-.0107421879 .23498535-.0107421879 .29499818-.0107421879 .33898927 .037261964 .35798646 .058258058 .36898805 .014251709 .4039917-.0107421879 .44499208-.0107421879 .4909973-.0107421879 .5119934 .029251099 .519989 .04626465 .5379944 .08326721 .5509949 .1402893 .5509949 .14329529M.3639984 .12528992C.35499574 .091278079 .2919922 .014251709 .23799134 .014251709 .18299866 .014251709 .17999268 .088272098 .17999268 .103271488 .17999268 .15429688 .20999146 .264328 .22499085 .30233766 .25099183 .36535646 .29899598 .41737367 .34298707 .41737367 .4039917 .41737367 .41299439 .3333435 .41299439 .32635499 .41299439 .3213501 .41299439 .32034303 .4099884 .3103485L.3639984 .12528992Z"/>
<path id="font_4_75" d="M.8659973 .14329529C.8659973 .1552887 .8529968 .1552887 .848999 .1552887 .83499148 .1552887 .83399966 .15229798 .8279877 .13128662 .81799319 .09527588 .7899933 .014251709 .73599246 .014251709 .7279968 .014251709 .71499636 .01524353 .71499636 .042251588 .71499636 .06626892 .72698977 .09828186 .7350006 .120285037 .7529907 .16830445 .7939911 .2793274 .7939911 .3363495 .7939911 .4033661 .7539978 .4423828 .6839905 .4423828 .61499026 .4423828 .56599429 .40437318 .5309906 .35635377 .522995 .41438294 .47999574 .4423828 .42199708 .4423828 .36698915 .4423828 .31698609 .41838075 .2749939 .36535646 .2659912 .41737367 .22799683 .4423828 .18699646 .4423828 .1539917 .4423828 .1289978 .42237855 .11099243 .3843689 .09498596 .34934999 .08099365 .29333497 .08099365 .28933717 .08099365 .27633668 .09199524 .27633668 .09799194 .27633668 .11299133 .27633668 .11299133 .28033448 .117996219 .30033876 .13798523 .3803711 .15699768 .41737367 .18499756 .41737367 .20098877 .41737367 .21099854 .40837098 .21099854 .3773651 .21099854 .35635377 .20498657 .33035279 .20399475 .32635499L.13198853 .038253786C.12799073 .024246216 .12799073 .022247315 .12799073 .01725769 .12799073-.00074768069 .14199829-.0107421879 .15699768-.0107421879 .18899536-.0107421879 .19400025 .009246826 .20698548 .06427002L.22898865 .15029907 .26098634 .28033448C.2630005 .28733827 .28799439 .3423462 .32699586 .379364 .35499574 .40538026 .3889923 .41737367 .4189911 .41737367 .44898988 .41737367 .46699525 .39736939 .46699525 .35134889 .46699525 .3333435 .46099855 .30334474 .45799256 .29034425L.394989 .038253786C.3909912 .024246216 .3909912 .022247315 .3909912 .01725769 .3909912-.00074768069 .40499879-.0107421879 .41999818-.0107421879 .45199586-.0107421879 .45700074 .009246826 .46998597 .06427002L.49198915 .15029907 .5239868 .28033448C.5279999 .29333497 .55599978 .34535218 .5799866 .3693695 .59498599 .3843689 .6279907 .41737367 .6819916 .41737367 .7200012 .41737367 .72898867 .3843689 .72898867 .35235597 .72898867 .29434205 .6859894 .17630005 .6689911 .13128662 .6569977 .09828186 .6549988 .0922699 .6549988 .0712738 .6549988 .01725769 .69299319-.0107421879 .73399356-.0107421879 .82899478-.0107421879 .8659973 .1362915 .8659973 .14329529Z"/>
<path id="font_4_84" d="M.5219879 .28433229C.5219879 .38136292 .46798707 .4423828 .3959961 .4423828 .34298707 .4423828 .30499269 .40538026 .272995 .37435914 .25898744 .42938233 .21499634 .4423828 .18699646 .4423828 .1539917 .4423828 .1289978 .42237855 .11099243 .3843689 .09498596 .34934999 .08099365 .29333497 .08099365 .28933717 .08099365 .27633668 .09199524 .27633668 .09799194 .27633668 .11299133 .27633668 .11299133 .28033448 .117996219 .30033876 .13798523 .3803711 .15699768 .41737367 .18499756 .41737367 .20098877 .41737367 .21099854 .40837098 .21099854 .3773651 .21099854 .35635377 .20498657 .33035279 .20399475 .32635499L.09098816-.12701416C.08299255-.15908814 .07598877-.16308594 .036987306-.16308594 .027999878-.16308594 .015991211-.16308594 .015991211-.18109131 .015991211-.18609619 .017990113-.1940918 .0289917-.1940918 .054992677-.1940918 .085998538-.19110108 .11399841-.19110108 .14698792-.19110108 .18099976-.1940918 .21199036-.1940918 .21699524-.1940918 .22999573-.1940918 .22999573-.17608643 .22999573-.16308594 .21899414-.16308594 .20298767-.16308594 .1559906-.16308594 .1559906-.15608216 .1559906-.14706421 .1559906-.1360321 .19799805 .024246216 .20298767 .044265748 .22399903 .0062561037 .2539978-.0107421879 .2889862-.0107421879 .40299989-.0107421879 .5219879 .1382904 .5219879 .28433229M.40098573 .11628723C.37599183 .06227112 .33099366 .014251709 .2889862 .014251709 .2669983 .014251709 .25 .025253296 .23699951 .04626465 .22200012 .07026672 .21899414 .106277469 .21899414 .106277469 .21899414 .106277469 .21998596 .11628723 .22099304 .119277957L.2679901 .30534364C.27598573 .33535768 .29699708 .35835267 .31900025 .379364 .35099793 .41036988 .3789978 .41737367 .3939972 .41737367 .44898988 .41737367 .45199586 .34135438 .45199586 .32835389 .45199586 .27633668 .42099 .16029358 .40098573 .11628723Z"/>
<path id="font_4_44" d="M.30699159 .3866577C.30699159 .4076538 .2919922 .43066407 .2619934 .43066407 .22799683 .43066407 .19599915 .3996582 .19599915 .36665345 .19599915 .33966065 .21598816 .32266236 .24099732 .32266236 .2749939 .32266236 .30699159 .35565187 .30699159 .3866577M.22599793 .06399536C.22599793 .08699036 .20899964 .10798645 .18099976 .10798645 .14498902 .10798645 .114990238 .07398987 .114990238 .04399109 .114990238 .020996094 .13198853 0 .1599884 0 .19599915 0 .22599793 .033996583 .22599793 .06399536Z"/>
</defs>
<path transform="matrix(1.00003,0,0,-1.00006,2.2955018,427.22068)" stroke-width=".79701" stroke-linecap="butt" stroke-miterlimit="10" stroke-linejoin="miter" fill="none" stroke="#b9b9b9" d="M0 7.97021V417.23194C0 421.6338 3.56833 425.20213 7.97021 425.20213H417.23194C421.6338 425.20213 425.20213 421.6338 425.20213 417.23194V7.97021C425.20213 3.56833 421.6338 0 417.23194 0H7.97021C3.56833 0 0 3.56833 0 7.97021ZM425.20213 425.20213"/>
<path transform="matrix(1.00003,0,0,-1.00006,2.2955018,427.22068)" stroke-width=".3985" stroke-linecap="butt" stroke-miterlimit="10" stroke-linejoin="miter" fill="none" stroke="#d2d2d2" d="M0 325.9883H425.20213"/>
<path transform="matrix(1.00003,0,0,-1.00006,2.2955018,427.22068)" stroke-width=".3985" stroke-linecap="butt" stroke-miterlimit="10" stroke-linejoin="miter" fill="none" stroke="#d2d2d2" d="M0 226.77448H425.20213"/>
<path transform="matrix(1.00003,0,0,-1.00006,2.2955018,427.22068)" stroke-width=".3985" stroke-linecap="butt" stroke-miterlimit="10" stroke-linejoin="miter" fill="none" stroke="#d2d2d2" d="M0 99.21382H425.20213"/>
<use data-text="d" xlink:href="#font_1_2" transform="matrix(8.966669,0,0,-8.966938,16.932946,20.24527)"/>
<use data-text="&#x02c6;" xlink:href="#font_2_4" transform="matrix(8.966669,0,0,-8.966938,22.1231,20.24527)"/>
<use data-text="r" xlink:href="#font_1_3" transform="matrix(8.966669,0,0,-8.966938,21.707085,20.24527)"/>
<path transform="matrix(1.00003,0,0,-1.00006,-67.56059,-385.20106)" stroke-width=".3786" stroke-linecap="butt" stroke-miterlimit="10" stroke-linejoin="miter" fill="none" stroke="#000000" d="M84.491-408.98H93.679"/>
<use data-text="d" xlink:href="#font_1_2" transform="matrix(8.966669,0,0,-8.966938,17.47596,32.125978)"/>
<use data-text="t" xlink:href="#font_1_4" transform="matrix(8.966669,0,0,-8.966938,22.246232,32.125978)"/>
<use data-text="=" xlink:href="#font_2_3" transform="matrix(8.966669,0,0,-8.966938,29.877335,26.044617)"/>
<use data-text="d" xlink:href="#font_1_2" transform="matrix(8.966669,0,0,-8.966938,16.932946,121.83136)"/>
<use data-text="&#x02c6;" xlink:href="#font_2_4" transform="matrix(8.966669,0,0,-8.966938,22.456109,119.46521)"/>
<use data-text="&#x03b8;" xlink:href="#font_1_1" transform="matrix(8.966669,0,0,-8.966938,21.707085,121.83136)"/>
<path transform="matrix(1.00003,0,0,-1.00006,-67.56059,-283.61497)" stroke-width=".3786" stroke-linecap="butt" stroke-miterlimit="10" stroke-linejoin="miter" fill="none" stroke="#000000" d="M84.491-408.98H93.835"/>
<use data-text="d" xlink:href="#font_1_2" transform="matrix(8.966669,0,0,-8.966938,17.553963,133.71207)"/>
<use data-text="t" xlink:href="#font_1_4" transform="matrix(8.966669,0,0,-8.966938,22.324234,133.71207)"/>
<use data-text="=" xlink:href="#font_2_3" transform="matrix(8.966669,0,0,-8.966938,30.032334,127.63071)"/>
<use data-text="&#x2212;" xlink:href="#font_3_1" transform="matrix(8.966669,0,0,-8.966938,15.736908,221.5953)"/>
<use data-text="&#x2192;" xlink:href="#font_3_2" transform="matrix(8.966669,0,0,-8.966938,15.736908,221.5953)"/>
<use data-text="v" xlink:href="#font_1_5" transform="matrix(8.966669,0,0,-8.966938,17.945977,225.45554)"/>
<use data-text="(" xlink:href="#font_2_1" transform="matrix(8.966669,0,0,-8.966938,24.953186,225.45554)"/>
<use data-text="t" xlink:href="#font_1_4" transform="matrix(8.966669,0,0,-8.966938,28.536293,225.45554)"/>
<use data-text=")" xlink:href="#font_2_2" transform="matrix(8.966669,0,0,-8.966938,31.864396,225.45554)"/>
<use data-text="=" xlink:href="#font_2_3" transform="matrix(8.966669,0,0,-8.966938,37.997606,225.45554)"/>
<use data-text="d" xlink:href="#font_1_2" transform="matrix(8.966669,0,0,-8.966938,48.930917,219.65619)"/>
<use data-text="&#x2212;" xlink:href="#font_3_1" transform="matrix(8.966669,0,0,-8.966938,53.706056,215.79596)"/>
<use data-text="&#x2192;" xlink:href="#font_3_2" transform="matrix(8.966669,0,0,-8.966938,53.706048,215.79596)"/>
<use data-text="r" xlink:href="#font_1_3" transform="matrix(8.966669,0,0,-8.966938,56.107133,219.65619)"/>
<path transform="matrix(1.00003,0,0,-1.00006,-67.56059,-185.7901)" stroke-width=".3786" stroke-linecap="butt" stroke-miterlimit="10" stroke-linejoin="miter" fill="none" stroke="#000000" d="M116.489-408.98H130.479"/>
<use data-text="d" xlink:href="#font_1_2" transform="matrix(8.966669,0,0,-8.966938,51.874994,231.53693)"/>
<use data-text="t" xlink:href="#font_1_4" transform="matrix(8.966669,0,0,-8.966938,56.645265,231.53693)"/>
<use data-text="=" xlink:href="#font_2_3" transform="matrix(8.966669,0,0,-8.966938,66.67743,225.45557)"/>
<use data-text="W" xlink:href="#font_4_113" transform="matrix(8.966669,0,0,-8.966938,15.736908,346.2578)"/>
<use data-text="h" xlink:href="#font_4_63" transform="matrix(8.966669,0,0,-8.966938,24.927742,346.2578)"/>
<use data-text="y" xlink:href="#font_4_118" transform="matrix(8.966669,0,0,-8.966938,29.635247,346.2578)"/>
<use data-text="t" xlink:href="#font_4_105" transform="matrix(8.966669,0,0,-8.966938,37.39142,346.2578)"/>
<use data-text="h" xlink:href="#font_4_63" transform="matrix(8.966669,0,0,-8.966938,40.44905,346.2578)"/>
<use data-text="e" xlink:href="#font_4_50" transform="matrix(8.966669,0,0,-8.966938,45.156557,346.2578)"/>
<use data-text="v" xlink:href="#font_4_112" transform="matrix(8.966669,0,0,-8.966938,52.67959,346.2578)"/>
<use data-text="e" xlink:href="#font_4_50" transform="matrix(8.966669,0,0,-8.966938,56.911859,346.2578)"/>
<use data-text="l" xlink:href="#font_4_72" transform="matrix(8.966669,0,0,-8.966938,61.14412,346.2578)"/>
<use data-text="o" xlink:href="#font_4_81" transform="matrix(8.966669,0,0,-8.966938,63.493394,346.2578)"/>
<use data-text="c" xlink:href="#font_4_43" transform="matrix(8.966669,0,0,-8.966938,67.74359,346.2578)"/>
<use data-text="i" xlink:href="#font_4_66" transform="matrix(8.966669,0,0,-8.966938,71.975879,346.2578)"/>
<use data-text="t" xlink:href="#font_4_105" transform="matrix(8.966669,0,0,-8.966938,74.80037,346.2578)"/>
<use data-text="y" xlink:href="#font_4_118" transform="matrix(8.966669,0,0,-8.966938,77.858,346.2578)"/>
<use data-text="h" xlink:href="#font_4_63" transform="matrix(8.966669,0,0,-8.966938,85.605228,346.2578)"/>
<use data-text="a" xlink:href="#font_4_28" transform="matrix(8.966669,0,0,-8.966938,90.31273,346.2578)"/>
<use data-text="s" xlink:href="#font_4_98" transform="matrix(8.966669,0,0,-8.966938,95.02023,346.2578)"/>
<use data-text="n" xlink:href="#font_4_77" transform="matrix(8.966669,0,0,-8.966938,102.076999,346.2578)"/>
<use data-text="o" xlink:href="#font_4_81" transform="matrix(8.966669,0,0,-8.966938,107.25076,346.2578)"/>
<use data-text="r" xlink:href="#font_4_96" transform="matrix(8.966669,0,0,-8.966938,115.24904,346.2578)"/>
<use data-text="a" xlink:href="#font_4_28" transform="matrix(8.966669,0,0,-8.966938,118.6743,346.2578)"/>
<use data-text="d" xlink:href="#font_4_47" transform="matrix(8.966669,0,0,-8.966938,123.381809,346.2578)"/>
<use data-text="i" xlink:href="#font_4_66" transform="matrix(8.966669,0,0,-8.966938,128.08931,346.2578)"/>
<use data-text="a" xlink:href="#font_4_28" transform="matrix(8.966669,0,0,-8.966938,130.91382,346.2578)"/>
<use data-text="l" xlink:href="#font_4_72" transform="matrix(8.966669,0,0,-8.966938,135.62133,346.2578)"/>
<use data-text="c" xlink:href="#font_4_43" transform="matrix(8.966669,0,0,-8.966938,141.2524,346.2578)"/>
<use data-text="o" xlink:href="#font_4_81" transform="matrix(8.966669,0,0,-8.966938,145.02738,346.2578)"/>
<use data-text="m" xlink:href="#font_4_75" transform="matrix(8.966669,0,0,-8.966938,149.73488,346.2578)"/>
<use data-text="p" xlink:href="#font_4_84" transform="matrix(8.966669,0,0,-8.966938,157.26688,346.2578)"/>
<use data-text="o" xlink:href="#font_4_81" transform="matrix(8.966669,0,0,-8.966938,161.50812,346.2578)"/>
<use data-text="n" xlink:href="#font_4_77" transform="matrix(8.966669,0,0,-8.966938,166.21562,346.2578)"/>
<use data-text="e" xlink:href="#font_4_50" transform="matrix(8.966669,0,0,-8.966938,171.38939,346.2578)"/>
<use data-text="n" xlink:href="#font_4_77" transform="matrix(8.966669,0,0,-8.966938,175.62168,346.2578)"/>
<use data-text="t" xlink:href="#font_4_105" transform="matrix(8.966669,0,0,-8.966938,180.79544,346.2578)"/>
<use data-text=":" xlink:href="#font_4_44" transform="matrix(8.966669,0,0,-8.966938,183.85308,346.2578)"/>
</svg>
