<svg xmlns="http://www.w3.org/2000/svg" id="prefigure-rs19-lagrange-figure" viewBox="0 0 344 324">
  <defs>
    <clipPath id="prefigure-rs19-lagrange-__clipPath-0">
      <rect x="12.0" y="12.0" width="320.0" height="300.0"/>
    </clipPath>
    <clipPath id="prefigure-rs19-lagrange-__clipPath-1">
      <rect x="12.0" y="12.0" width="320.0" height="300.0"/>
    </clipPath>
  </defs>
  <g id="prefigure-rs19-lagrange-grid-axes">
    <g id="prefigure-rs19-lagrange-grid" stroke="#ccc" stroke-width="1">
      <line x1="38.7" y1="312.0" x2="38.7" y2="12.0"/>
      <line x1="83.1" y1="312.0" x2="83.1" y2="12.0"/>
      <line x1="127.6" y1="312.0" x2="127.6" y2="12.0"/>
      <line x1="172.0" y1="312.0" x2="172.0" y2="12.0"/>
      <line x1="216.4" y1="312.0" x2="216.4" y2="12.0"/>
      <line x1="260.9" y1="312.0" x2="260.9" y2="12.0"/>
      <line x1="305.3" y1="312.0" x2="305.3" y2="12.0"/>
      <line x1="12.0" y1="287.0" x2="332.0" y2="287.0"/>
      <line x1="12.0" y1="245.3" x2="332.0" y2="245.3"/>
      <line x1="12.0" y1="203.7" x2="332.0" y2="203.7"/>
      <line x1="12.0" y1="162.0" x2="332.0" y2="162.0"/>
      <line x1="12.0" y1="120.3" x2="332.0" y2="120.3"/>
      <line x1="12.0" y1="78.7" x2="332.0" y2="78.7"/>
      <line x1="12.0" y1="37.0" x2="332.0" y2="37.0"/>
    </g>
    <g id="prefigure-rs19-lagrange-axes" stroke="black" stroke-width="2">
      <line id="prefigure-rs19-lagrange-__line-14" x1="12.0" y1="162.0" x2="332.0" y2="162.0" stroke="black" stroke-width="2"/>
      <g>
        <line id="prefigure-rs19-lagrange-__line-15" x1="83.1" y1="165.0" x2="83.1" y2="159.0"/>
        <line id="prefigure-rs19-lagrange-__line-16" x1="260.9" y1="165.0" x2="260.9" y2="159.0"/>
      </g>
      <line id="prefigure-rs19-lagrange-__line-17" x1="172.0" y1="312.0" x2="172.0" y2="12.0" stroke="black" stroke-width="2"/>
      <g>
        <line id="prefigure-rs19-lagrange-__line-18" x1="169.0" y1="245.3" x2="175.0" y2="245.3"/>
        <line id="prefigure-rs19-lagrange-__line-19" x1="169.0" y1="78.7" x2="175.0" y2="78.7"/>
      </g>
    </g>
    <g id="prefigure-rs19-lagrange-__label-0" transform="translate(328.0,158.0) translate(-10.4,-8.2)">
      <g id="prefigure-rs19-lagrange-__g-0">
        <svg xmlns:xlink="http://www.w3.org/1999/xlink" style="vertical-align: -0.200px" width="10.352px" height="8.200px" role="img" focusable="false" viewBox="0 -442 572 453" x="0.0" y="0.0">
          <defs>
            <path id="prefigure-rs19-lagrange-MJX-2-TEX-I-1D465" d="M52 289Q59 331 106 386T222 442Q257 442 286 424T329 379Q371 442 430 442Q467 442 494 420T522 361Q522 332 508 314T481 292T458 288Q439 288 427 299T415 328Q415 374 465 391Q454 404 425 404Q412 404 406 402Q368 386 350 336Q290 115 290 78Q290 50 306 38T341 26Q378 26 414 59T463 140Q466 150 469 151T485 153H489Q504 153 504 145Q504 144 502 134Q486 77 440 33T333 -11Q263 -11 227 52Q186 -10 133 -10H127Q78 -10 57 16T35 71Q35 103 54 123T99 143Q142 143 142 101Q142 81 130 66T107 46T94 41L91 40Q91 39 97 36T113 29T132 26Q168 26 194 71Q203 87 217 139T245 247T261 313Q266 340 266 352Q266 380 251 392T217 404Q177 404 142 372T93 290Q91 281 88 280T72 278H58Q52 284 52 289Z"/>
          </defs>
          <g stroke="currentColor" fill="currentColor" stroke-width="0" transform="scale(1,-1)">
            <g data-mml-node="math">
              <g data-mml-node="mi" data-semantic-type="identifier" data-semantic-role="latinletter" data-semantic-font="italic" data-semantic-annotation="clearspeak:simple" data-semantic-id="0" data-semantic-speech="x">
                <use data-c="1D465" xlink:href="#prefigure-rs19-lagrange-MJX-2-TEX-I-1D465"/>
              </g>
            </g>
          </g>
        </svg>
      </g>
    </g>
    <g id="prefigure-rs19-lagrange-__label-1" transform="translate(176.0,16.0) translate(0.0,-0.0)">
      <g id="prefigure-rs19-lagrange-__g-1">
        <svg xmlns:xlink="http://www.w3.org/1999/xlink" style="vertical-align: -3.712px" width="8.872px" height="11.712px" role="img" focusable="false" viewBox="0 -442 490 647" x="0.0" y="0.0">
          <defs>
            <path id="prefigure-rs19-lagrange-MJX-3-TEX-I-1D466" d="M21 287Q21 301 36 335T84 406T158 442Q199 442 224 419T250 355Q248 336 247 334Q247 331 231 288T198 191T182 105Q182 62 196 45T238 27Q261 27 281 38T312 61T339 94Q339 95 344 114T358 173T377 247Q415 397 419 404Q432 431 462 431Q475 431 483 424T494 412T496 403Q496 390 447 193T391 -23Q363 -106 294 -155T156 -205Q111 -205 77 -183T43 -117Q43 -95 50 -80T69 -58T89 -48T106 -45Q150 -45 150 -87Q150 -107 138 -122T115 -142T102 -147L99 -148Q101 -153 118 -160T152 -167H160Q177 -167 186 -165Q219 -156 247 -127T290 -65T313 -9T321 21L315 17Q309 13 296 6T270 -6Q250 -11 231 -11Q185 -11 150 11T104 82Q103 89 103 113Q103 170 138 262T173 379Q173 380 173 381Q173 390 173 393T169 400T158 404H154Q131 404 112 385T82 344T65 302T57 280Q55 278 41 278H27Q21 284 21 287Z"/>
          </defs>
          <g stroke="currentColor" fill="currentColor" stroke-width="0" transform="scale(1,-1)">
            <g data-mml-node="math">
              <g data-mml-node="mi" data-semantic-type="identifier" data-semantic-role="latinletter" data-semantic-font="italic" data-semantic-annotation="clearspeak:simple" data-semantic-id="0" data-semantic-speech="y">
                <use data-c="1D466" xlink:href="#prefigure-rs19-lagrange-MJX-3-TEX-I-1D466"/>
              </g>
            </g>
          </g>
        </svg>
      </g>
    </g>
    <g id="prefigure-rs19-lagrange-__label-2" transform="translate(83.1,173.0) translate(-7.5,-0.0)">
      <g id="prefigure-rs19-lagrange-__g-2">
        <svg xmlns:xlink="http://www.w3.org/1999/xlink" style="vertical-align: 0.000px" width="15.080px" height="12.056px" role="img" focusable="false" viewBox="0 -666 833 666" x="0.0" y="0.0">
          <defs>
            <path id="prefigure-rs19-lagrange-MJX-4-TEX-N-2D" d="M11 179V252H277V179H11Z"/>
            <path id="prefigure-rs19-lagrange-MJX-4-TEX-N-32" d="M109 429Q82 429 66 447T50 491Q50 562 103 614T235 666Q326 666 387 610T449 465Q449 422 429 383T381 315T301 241Q265 210 201 149L142 93L218 92Q375 92 385 97Q392 99 409 186V189H449V186Q448 183 436 95T421 3V0H50V19V31Q50 38 56 46T86 81Q115 113 136 137Q145 147 170 174T204 211T233 244T261 278T284 308T305 340T320 369T333 401T340 431T343 464Q343 527 309 573T212 619Q179 619 154 602T119 569T109 550Q109 549 114 549Q132 549 151 535T170 489Q170 464 154 447T109 429Z"/>
          </defs>
          <g stroke="currentColor" fill="currentColor" stroke-width="0" transform="scale(1,-1)">
            <g data-mml-node="math">
              <g data-mml-node="mtext" data-semantic-type="text" data-semantic-role="unknown" data-semantic-font="normal" data-semantic-annotation="clearspeak:unit" data-semantic-id="0" data-semantic-speech="hyphen 2">
                <use data-c="2D" xlink:href="#prefigure-rs19-lagrange-MJX-4-TEX-N-2D"/>
                <use data-c="32" xlink:href="#prefigure-rs19-lagrange-MJX-4-TEX-N-32" transform="translate(333,0)"/>
              </g>
            </g>
          </g>
        </svg>
      </g>
    </g>
    <g id="prefigure-rs19-lagrange-__label-3" transform="translate(260.9,173.0) translate(-4.5,-0.0)">
      <g id="prefigure-rs19-lagrange-__g-3">
        <svg xmlns:xlink="http://www.w3.org/1999/xlink" style="vertical-align: 0.000px" width="9.048px" height="12.056px" role="img" focusable="false" viewBox="0 -666 500 666" x="0.0" y="0.0">
          <defs>
            <path id="prefigure-rs19-lagrange-MJX-5-TEX-N-32" d="M109 429Q82 429 66 447T50 491Q50 562 103 614T235 666Q326 666 387 610T449 465Q449 422 429 383T381 315T301 241Q265 210 201 149L142 93L218 92Q375 92 385 97Q392 99 409 186V189H449V186Q448 183 436 95T421 3V0H50V19V31Q50 38 56 46T86 81Q115 113 136 137Q145 147 170 174T204 211T233 244T261 278T284 308T305 340T320 369T333 401T340 431T343 464Q343 527 309 573T212 619Q179 619 154 602T119 569T109 550Q109 549 114 549Q132 549 151 535T170 489Q170 464 154 447T109 429Z"/>
          </defs>
          <g stroke="currentColor" fill="currentColor" stroke-width="0" transform="scale(1,-1)">
            <g data-mml-node="math">
              <g data-mml-node="mtext" data-semantic-type="text" data-semantic-role="integer" data-semantic-font="normal" data-semantic-annotation="clearspeak:unit" data-semantic-id="0" data-semantic-speech="2">
                <use data-c="32" xlink:href="#prefigure-rs19-lagrange-MJX-5-TEX-N-32"/>
              </g>
            </g>
          </g>
        </svg>
      </g>
    </g>
    <g id="prefigure-rs19-lagrange-__label-4" transform="translate(161.0,245.3) translate(-15.1,-6.0)">
      <g id="prefigure-rs19-lagrange-__g-4">
        <svg xmlns:xlink="http://www.w3.org/1999/xlink" style="vertical-align: 0.000px" width="15.080px" height="12.056px" role="img" focusable="false" viewBox="0 -666 833 666" x="0.0" y="0.0">
          <defs>
            <path id="prefigure-rs19-lagrange-MJX-6-TEX-N-2D" d="M11 179V252H277V179H11Z"/>
            <path id="prefigure-rs19-lagrange-MJX-6-TEX-N-32" d="M109 429Q82 429 66 447T50 491Q50 562 103 614T235 666Q326 666 387 610T449 465Q449 422 429 383T381 315T301 241Q265 210 201 149L142 93L218 92Q375 92 385 97Q392 99 409 186V189H449V186Q448 183 436 95T421 3V0H50V19V31Q50 38 56 46T86 81Q115 113 136 137Q145 147 170 174T204 211T233 244T261 278T284 308T305 340T320 369T333 401T340 431T343 464Q343 527 309 573T212 619Q179 619 154 602T119 569T109 550Q109 549 114 549Q132 549 151 535T170 489Q170 464 154 447T109 429Z"/>
          </defs>
          <g stroke="currentColor" fill="currentColor" stroke-width="0" transform="scale(1,-1)">
            <g data-mml-node="math">
              <g data-mml-node="mtext" data-semantic-type="text" data-semantic-role="unknown" data-semantic-font="normal" data-semantic-annotation="clearspeak:unit" data-semantic-id="0" data-semantic-speech="hyphen 2">
                <use data-c="2D" xlink:href="#prefigure-rs19-lagrange-MJX-6-TEX-N-2D"/>
                <use data-c="32" xlink:href="#prefigure-rs19-lagrange-MJX-6-TEX-N-32" transform="translate(333,0)"/>
              </g>
            </g>
          </g>
        </svg>
      </g>
    </g>
    <g id="prefigure-rs19-lagrange-__label-5" transform="translate(161.0,78.7) translate(-9.0,-6.0)">
      <g id="prefigure-rs19-lagrange-__g-5">
        <svg xmlns:xlink="http://www.w3.org/1999/xlink" style="vertical-align: 0.000px" width="9.048px" height="12.056px" role="img" focusable="false" viewBox="0 -666 500 666" x="0.0" y="0.0">
          <defs>
            <path id="prefigure-rs19-lagrange-MJX-7-TEX-N-32" d="M109 429Q82 429 66 447T50 491Q50 562 103 614T235 666Q326 666 387 610T449 465Q449 422 429 383T381 315T301 241Q265 210 201 149L142 93L218 92Q375 92 385 97Q392 99 409 186V189H449V186Q448 183 436 95T421 3V0H50V19V31Q50 38 56 46T86 81Q115 113 136 137Q145 147 170 174T204 211T233 244T261 278T284 308T305 340T320 369T333 401T340 431T343 464Q343 527 309 573T212 619Q179 619 154 602T119 569T109 550Q109 549 114 549Q132 549 151 535T170 489Q170 464 154 447T109 429Z"/>
          </defs>
          <g stroke="currentColor" fill="currentColor" stroke-width="0" transform="scale(1,-1)">
            <g data-mml-node="math">
              <g data-mml-node="mtext" data-semantic-type="text" data-semantic-role="integer" data-semantic-font="normal" data-semantic-annotation="clearspeak:unit" data-semantic-id="0" data-semantic-speech="2">
                <use data-c="32" xlink:href="#prefigure-rs19-lagrange-MJX-7-TEX-N-32"/>
              </g>
            </g>
          </g>
        </svg>
      </g>
    </g>
  </g>
  <path id="prefigure-rs19-lagrange-lg-circle" d="M 260.9 162.0 L 260.8 159.4 L 260.7 156.8 L 260.5 154.2 L 260.2 151.6 L 259.8 149.0 L 259.3 146.4 L 258.7 143.8 L 258.1 141.3 L 257.4 138.8 L 256.5 136.2 L 255.6 133.8 L 254.6 131.3 L 253.6 128.9 L 252.4 126.5 L 251.2 124.2 L 249.9 121.9 L 248.5 119.6 L 247.1 117.3 L 245.5 115.2 L 243.9 113.0 L 242.2 110.9 L 240.5 108.9 L 238.7 106.9 L 236.8 105.0 L 234.9 103.1 L 232.8 101.3 L 230.8 99.5 L 228.7 97.8 L 226.5 96.2 L 224.2 94.6 L 222.0 93.1 L 219.6 91.6 L 217.2 90.3 L 214.8 89.0 L 212.4 87.7 L 209.8 86.6 L 207.3 85.5 L 204.7 84.5 L 202.1 83.6 L 199.5 82.7 L 196.8 82.0 L 194.1 81.3 L 191.4 80.7 L 188.7 80.1 L 185.9 79.7 L 183.1 79.3 L 180.4 79.0 L 177.6 78.8 L 174.8 78.7 L 172.0 78.7 L 169.2 78.7 L 166.4 78.8 L 163.6 79.0 L 160.9 79.3 L 158.1 79.7 L 155.3 80.1 L 152.6 80.7 L 149.9 81.3 L 147.2 82.0 L 144.5 82.7 L 141.9 83.6 L 139.3 84.5 L 136.7 85.5 L 134.2 86.6 L 131.6 87.7 L 129.2 89.0 L 126.8 90.3 L 124.4 91.6 L 122.0 93.1 L 119.8 94.6 L 117.5 96.2 L 115.3 97.8 L 113.2 99.5 L 111.2 101.3 L 109.1 103.1 L 107.2 105.0 L 105.3 106.9 L 103.5 108.9 L 101.8 110.9 L 100.1 113.0 L 98.5 115.2 L 96.9 117.3 L 95.5 119.6 L 94.1 121.9 L 92.8 124.2 L 91.6 126.5 L 90.4 128.9 L 89.4 131.3 L 88.4 133.8 L 87.5 136.2 L 86.6 138.8 L 85.9 141.3 L 85.3 143.8 L 84.7 146.4 L 84.2 149.0 L 83.8 151.6 L 83.5 154.2 L 83.3 156.8 L 83.2 159.4 L 83.1 162.0 L 83.2 164.6 L 83.3 167.2 L 83.5 169.8 L 83.8 172.4 L 84.2 175.0 L 84.7 177.6 L 85.3 180.2 L 85.9 182.7 L 86.6 185.2 L 87.5 187.8 L 88.4 190.2 L 89.4 192.7 L 90.4 195.1 L 91.6 197.5 L 92.8 199.8 L 94.1 202.1 L 95.5 204.4 L 96.9 206.7 L 98.5 208.8 L 100.1 211.0 L 101.8 213.1 L 103.5 215.1 L 105.3 217.1 L 107.2 219.0 L 109.1 220.9 L 111.2 222.7 L 113.2 224.5 L 115.3 226.2 L 117.5 227.8 L 119.8 229.4 L 122.0 230.9 L 124.4 232.4 L 126.8 233.7 L 129.2 235.0 L 131.6 236.3 L 134.2 237.4 L 136.7 238.5 L 139.3 239.5 L 141.9 240.4 L 144.5 241.3 L 147.2 242.0 L 149.9 242.7 L 152.6 243.3 L 155.3 243.9 L 158.1 244.3 L 160.9 244.7 L 163.6 245.0 L 166.4 245.2 L 169.2 245.3 L 172.0 245.3 L 174.8 245.3 L 177.6 245.2 L 180.4 245.0 L 183.1 244.7 L 185.9 244.3 L 188.7 243.9 L 191.4 243.3 L 194.1 242.7 L 196.8 242.0 L 199.5 241.3 L 202.1 240.4 L 204.7 239.5 L 207.3 238.5 L 209.8 237.4 L 212.4 236.3 L 214.8 235.0 L 217.2 233.7 L 219.6 232.4 L 222.0 230.9 L 224.2 229.4 L 226.5 227.8 L 228.7 226.2 L 230.8 224.5 L 232.8 222.7 L 234.9 220.9 L 236.8 219.0 L 238.7 217.1 L 240.5 215.1 L 242.2 213.1 L 243.9 211.0 L 245.5 208.8 L 247.1 206.7 L 248.5 204.4 L 249.9 202.1 L 251.2 199.8 L 252.4 197.5 L 253.6 195.1 L 254.6 192.7 L 255.6 190.2 L 256.5 187.8 L 257.4 185.2 L 258.1 182.7 L 258.7 180.2 L 259.3 177.6 L 259.8 175.0 L 260.2 172.4 L 260.5 169.8 L 260.7 167.2 L 260.8 164.6 L 260.9 162.0" stroke="#0072B2" stroke-width="3" fill="none" clip-path="url(#prefigure-rs19-lagrange-__clipPath-1)"/>
  <line id="prefigure-rs19-lagrange-lg-max" x1="154.2" y1="297.4" x2="316.4" y2="145.3" stroke="#D55E00" stroke-width="2" stroke-dasharray="6 4" fill="none"/>
  <line id="prefigure-rs19-lagrange-lg-min" x1="27.6" y1="178.7" x2="189.8" y2="26.6" stroke="#009E73" stroke-width="2" stroke-dasharray="6 4" fill="none"/>
  <circle id="prefigure-rs19-lagrange-lg-pmax" cx="234.9" cy="220.9" r="4" stroke="black" stroke-width="2" fill="#D55E00"/>
  <circle id="prefigure-rs19-lagrange-lg-pmin" cx="109.1" cy="103.1" r="4" stroke="black" stroke-width="2" fill="#009E73"/>
  <g id="prefigure-rs19-lagrange-lg-pmax-lab" transform="translate(244.9,232.7) translate(0.0,-0.0)">
    <g id="prefigure-rs19-lagrange-__g-6">
      <svg xmlns:xlink="http://www.w3.org/1999/xlink" style="vertical-align: -11.752px; color:#D55E00" width="92.720px" height="32.560px" role="img" focusable="false" viewBox="0 -1149.5 5122.7 1799" x="0.0" y="0.0">
        <defs>
          <path id="prefigure-rs19-lagrange-MJX-8-TEX-LO-28" d="M180 96T180 250T205 541T266 770T353 944T444 1069T527 1150H555Q561 1144 561 1141Q561 1137 545 1120T504 1072T447 995T386 878T330 721T288 513T272 251Q272 133 280 56Q293 -87 326 -209T399 -405T475 -531T536 -609T561 -640Q561 -643 555 -649H527Q483 -612 443 -568T353 -443T266 -270T205 -41Z"/>
          <path id="prefigure-rs19-lagrange-MJX-8-TEX-N-221A" d="M95 178Q89 178 81 186T72 200T103 230T169 280T207 309Q209 311 212 311H213Q219 311 227 294T281 177Q300 134 312 108L397 -77Q398 -77 501 136T707 565T814 786Q820 800 834 800Q841 800 846 794T853 782V776L620 293L385 -193Q381 -200 366 -200Q357 -200 354 -197Q352 -195 256 15L160 225L144 214Q129 202 113 190T95 178Z"/>
          <path id="prefigure-rs19-lagrange-MJX-8-TEX-N-32" d="M109 429Q82 429 66 447T50 491Q50 562 103 614T235 666Q326 666 387 610T449 465Q449 422 429 383T381 315T301 241Q265 210 201 149L142 93L218 92Q375 92 385 97Q392 99 409 186V189H449V186Q448 183 436 95T421 3V0H50V19V31Q50 38 56 46T86 81Q115 113 136 137Q145 147 170 174T204 211T233 244T261 278T284 308T305 340T320 369T333 401T340 431T343 464Q343 527 309 573T212 619Q179 619 154 602T119 569T109 550Q109 549 114 549Q132 549 151 535T170 489Q170 464 154 447T109 429Z"/>
          <path id="prefigure-rs19-lagrange-MJX-8-TEX-N-2C" d="M78 35T78 60T94 103T137 121Q165 121 187 96T210 8Q210 -27 201 -60T180 -117T154 -158T130 -185T117 -194Q113 -194 104 -185T95 -172Q95 -168 106 -156T131 -126T157 -76T173 -3V9L172 8Q170 7 167 6T161 3T152 1T140 0Q113 0 96 17Z"/>
          <path id="prefigure-rs19-lagrange-MJX-8-TEX-N-2212" d="M84 237T84 250T98 270H679Q694 262 694 250T679 230H98Q84 237 84 250Z"/>
          <path id="prefigure-rs19-lagrange-MJX-8-TEX-LO-29" d="M35 1138Q35 1150 51 1150H56H69Q113 1113 153 1069T243 944T330 771T391 541T416 250T391 -40T330 -270T243 -443T152 -568T69 -649H56Q43 -649 39 -647T35 -637Q65 -607 110 -548Q283 -316 316 56Q324 133 324 251Q324 368 316 445Q278 877 48 1123Q36 1137 35 1138Z"/>
        </defs>
        <g stroke="currentColor" fill="currentColor" stroke-width="0" transform="scale(1,-1)">
          <g data-mml-node="math">
            <g data-mml-node="TeXAtom" data-semantic-type="fenced" data-semantic-role="leftright" data-semantic-id="10" data-semantic-children="9" data-semantic-content="0,7" data-semantic-attributes="texclass:INNER" data-semantic-speech="left parenthesis StartRoot 2 EndRoot comma minus StartRoot 2 EndRoot right parenthesis" data-mjx-texclass="INNER">
              <g data-mml-node="mo" data-semantic-type="fence" data-semantic-role="open" data-semantic-id="0" data-semantic-parent="10" data-semantic-attributes="texclass:OPEN" data-semantic-operator="fenced" data-semantic-speech="left parenthesis" transform="translate(0 -0.5)">
                <use data-c="28" xlink:href="#prefigure-rs19-lagrange-MJX-8-TEX-LO-28"/>
              </g>
              <g data-mml-node="mrow" data-semantic-type="punctuated" data-semantic-role="sequence" data-semantic-id="9" data-semantic-children="2,3,8" data-semantic-content="3" data-semantic-parent="10" data-semantic-speech="StartRoot 2 EndRoot comma minus StartRoot 2 EndRoot" transform="translate(597,0)">
                <g data-mml-node="msqrt" data-semantic-type="sqrt" data-semantic-role="unknown" data-semantic-id="2" data-semantic-children="1" data-semantic-parent="9" data-semantic-speech="StartRoot 2 EndRoot">
                  <g transform="translate(853,0)">
                    <g data-mml-node="mn" data-semantic-type="number" data-semantic-role="integer" data-semantic-font="normal" data-semantic-annotation="clearspeak:simple" data-semantic-id="1" data-semantic-parent="2" data-semantic-speech="2" data-semantic-prefix="Radicand">
                      <use data-c="32" xlink:href="#prefigure-rs19-lagrange-MJX-8-TEX-N-32"/>
                    </g>
                  </g>
                  <g data-mml-node="mo" transform="translate(0,100.5)">
                    <use data-c="221A" xlink:href="#prefigure-rs19-lagrange-MJX-8-TEX-N-221A"/>
                  </g>
                  <rect width="500" height="60" x="853" y="840.5"/>
                </g>
                <g data-mml-node="mo" data-semantic-type="punctuation" data-semantic-role="comma" data-semantic-id="3" data-semantic-parent="9" data-semantic-operator="punctuated" data-semantic-speech="comma" transform="translate(1353,0)">
                  <use data-c="2C" xlink:href="#prefigure-rs19-lagrange-MJX-8-TEX-N-2C"/>
                </g>
                <g data-mml-node="mrow" data-semantic-type="prefixop" data-semantic-role="negative" data-semantic-id="8" data-semantic-children="6" data-semantic-content="4" data-semantic-parent="9" data-semantic-speech="minus StartRoot 2 EndRoot" transform="translate(1797.7,0)">
                  <g data-mml-node="mo" data-semantic-type="operator" data-semantic-role="subtraction" data-semantic-id="4" data-semantic-parent="8" data-semantic-operator="prefixop,−" data-semantic-speech="minus">
                    <use data-c="2212" xlink:href="#prefigure-rs19-lagrange-MJX-8-TEX-N-2212"/>
                  </g>
                  <g data-mml-node="msqrt" data-semantic-type="sqrt" data-semantic-role="unknown" data-semantic-id="6" data-semantic-children="5" data-semantic-parent="8" data-semantic-speech="StartRoot 2 EndRoot" transform="translate(778,0)">
                    <g transform="translate(853,0)">
                      <g data-mml-node="mn" data-semantic-type="number" data-semantic-role="integer" data-semantic-font="normal" data-semantic-annotation="clearspeak:simple" data-semantic-id="5" data-semantic-parent="6" data-semantic-speech="2" data-semantic-prefix="Radicand">
                        <use data-c="32" xlink:href="#prefigure-rs19-lagrange-MJX-8-TEX-N-32"/>
                      </g>
                    </g>
                    <g data-mml-node="mo" transform="translate(0,100.5)">
                      <use data-c="221A" xlink:href="#prefigure-rs19-lagrange-MJX-8-TEX-N-221A"/>
                    </g>
                    <rect width="500" height="60" x="853" y="840.5"/>
                  </g>
                </g>
              </g>
              <g data-mml-node="mo" data-semantic-type="fence" data-semantic-role="close" data-semantic-id="7" data-semantic-parent="10" data-semantic-attributes="texclass:CLOSE" data-semantic-operator="fenced" data-semantic-speech="right parenthesis" transform="translate(4525.7,0) translate(0 -0.5)">
                <use data-c="29" xlink:href="#prefigure-rs19-lagrange-MJX-8-TEX-LO-29"/>
              </g>
            </g>
          </g>
        </g>
      </svg>
    </g>
  </g>
  <g id="prefigure-rs19-lagrange-lg-pmin-lab" transform="translate(99.1,91.3) translate(-92.7,-32.6)">
    <g id="prefigure-rs19-lagrange-__g-7">
      <svg xmlns:xlink="http://www.w3.org/1999/xlink" style="vertical-align: -11.752px; color:#009E73" width="92.720px" height="32.560px" role="img" focusable="false" viewBox="0 -1149.5 5122.7 1799" x="0.0" y="0.0">
        <defs>
          <path id="prefigure-rs19-lagrange-MJX-9-TEX-LO-28" d="M180 96T180 250T205 541T266 770T353 944T444 1069T527 1150H555Q561 1144 561 1141Q561 1137 545 1120T504 1072T447 995T386 878T330 721T288 513T272 251Q272 133 280 56Q293 -87 326 -209T399 -405T475 -531T536 -609T561 -640Q561 -643 555 -649H527Q483 -612 443 -568T353 -443T266 -270T205 -41Z"/>
          <path id="prefigure-rs19-lagrange-MJX-9-TEX-N-2212" d="M84 237T84 250T98 270H679Q694 262 694 250T679 230H98Q84 237 84 250Z"/>
          <path id="prefigure-rs19-lagrange-MJX-9-TEX-N-221A" d="M95 178Q89 178 81 186T72 200T103 230T169 280T207 309Q209 311 212 311H213Q219 311 227 294T281 177Q300 134 312 108L397 -77Q398 -77 501 136T707 565T814 786Q820 800 834 800Q841 800 846 794T853 782V776L620 293L385 -193Q381 -200 366 -200Q357 -200 354 -197Q352 -195 256 15L160 225L144 214Q129 202 113 190T95 178Z"/>
          <path id="prefigure-rs19-lagrange-MJX-9-TEX-N-32" d="M109 429Q82 429 66 447T50 491Q50 562 103 614T235 666Q326 666 387 610T449 465Q449 422 429 383T381 315T301 241Q265 210 201 149L142 93L218 92Q375 92 385 97Q392 99 409 186V189H449V186Q448 183 436 95T421 3V0H50V19V31Q50 38 56 46T86 81Q115 113 136 137Q145 147 170 174T204 211T233 244T261 278T284 308T305 340T320 369T333 401T340 431T343 464Q343 527 309 573T212 619Q179 619 154 602T119 569T109 550Q109 549 114 549Q132 549 151 535T170 489Q170 464 154 447T109 429Z"/>
          <path id="prefigure-rs19-lagrange-MJX-9-TEX-N-2C" d="M78 35T78 60T94 103T137 121Q165 121 187 96T210 8Q210 -27 201 -60T180 -117T154 -158T130 -185T117 -194Q113 -194 104 -185T95 -172Q95 -168 106 -156T131 -126T157 -76T173 -3V9L172 8Q170 7 167 6T161 3T152 1T140 0Q113 0 96 17Z"/>
          <path id="prefigure-rs19-lagrange-MJX-9-TEX-LO-29" d="M35 1138Q35 1150 51 1150H56H69Q113 1113 153 1069T243 944T330 771T391 541T416 250T391 -40T330 -270T243 -443T152 -568T69 -649H56Q43 -649 39 -647T35 -637Q65 -607 110 -548Q283 -316 316 56Q324 133 324 251Q324 368 316 445Q278 877 48 1123Q36 1137 35 1138Z"/>
        </defs>
        <g stroke="currentColor" fill="currentColor" stroke-width="0" transform="scale(1,-1)">
          <g data-mml-node="math">
            <g data-mml-node="TeXAtom" data-semantic-type="fenced" data-semantic-role="leftright" data-semantic-id="10" data-semantic-children="9" data-semantic-content="0,7" data-semantic-attributes="texclass:INNER" data-semantic-speech="left parenthesis minus StartRoot 2 EndRoot comma StartRoot 2 EndRoot right parenthesis" data-mjx-texclass="INNER">
              <g data-mml-node="mo" data-semantic-type="fence" data-semantic-role="open" data-semantic-id="0" data-semantic-parent="10" data-semantic-attributes="texclass:OPEN" data-semantic-operator="fenced" data-semantic-speech="left parenthesis" transform="translate(0 -0.5)">
                <use data-c="28" xlink:href="#prefigure-rs19-lagrange-MJX-9-TEX-LO-28"/>
              </g>
              <g data-mml-node="mrow" data-semantic-type="punctuated" data-semantic-role="sequence" data-semantic-id="9" data-semantic-children="8,4,6" data-semantic-content="4" data-semantic-parent="10" data-semantic-speech="minus StartRoot 2 EndRoot comma StartRoot 2 EndRoot" transform="translate(597,0)">
                <g data-mml-node="mrow" data-semantic-type="prefixop" data-semantic-role="negative" data-semantic-id="8" data-semantic-children="3" data-semantic-content="1" data-semantic-parent="9" data-semantic-speech="minus StartRoot 2 EndRoot">
                  <g data-mml-node="mo" data-semantic-type="operator" data-semantic-role="subtraction" data-semantic-id="1" data-semantic-parent="8" data-semantic-operator="prefixop,−" data-semantic-speech="minus">
                    <use data-c="2212" xlink:href="#prefigure-rs19-lagrange-MJX-9-TEX-N-2212"/>
                  </g>
                  <g data-mml-node="msqrt" data-semantic-type="sqrt" data-semantic-role="unknown" data-semantic-id="3" data-semantic-children="2" data-semantic-parent="8" data-semantic-speech="StartRoot 2 EndRoot" transform="translate(778,0)">
                    <g transform="translate(853,0)">
                      <g data-mml-node="mn" data-semantic-type="number" data-semantic-role="integer" data-semantic-font="normal" data-semantic-annotation="clearspeak:simple" data-semantic-id="2" data-semantic-parent="3" data-semantic-speech="2" data-semantic-prefix="Radicand">
                        <use data-c="32" xlink:href="#prefigure-rs19-lagrange-MJX-9-TEX-N-32"/>
                      </g>
                    </g>
                    <g data-mml-node="mo" transform="translate(0,100.5)">
                      <use data-c="221A" xlink:href="#prefigure-rs19-lagrange-MJX-9-TEX-N-221A"/>
                    </g>
                    <rect width="500" height="60" x="853" y="840.5"/>
                  </g>
                </g>
                <g data-mml-node="mo" data-semantic-type="punctuation" data-semantic-role="comma" data-semantic-id="4" data-semantic-parent="9" data-semantic-operator="punctuated" data-semantic-speech="comma" transform="translate(2131,0)">
                  <use data-c="2C" xlink:href="#prefigure-rs19-lagrange-MJX-9-TEX-N-2C"/>
                </g>
                <g data-mml-node="msqrt" data-semantic-type="sqrt" data-semantic-role="unknown" data-semantic-id="6" data-semantic-children="5" data-semantic-parent="9" data-semantic-speech="StartRoot 2 EndRoot" transform="translate(2575.7,0)">
                  <g transform="translate(853,0)">
                    <g data-mml-node="mn" data-semantic-type="number" data-semantic-role="integer" data-semantic-font="normal" data-semantic-annotation="clearspeak:simple" data-semantic-id="5" data-semantic-parent="6" data-semantic-speech="2" data-semantic-prefix="Radicand">
                      <use data-c="32" xlink:href="#prefigure-rs19-lagrange-MJX-9-TEX-N-32"/>
                    </g>
                  </g>
                  <g data-mml-node="mo" transform="translate(0,100.5)">
                    <use data-c="221A" xlink:href="#prefigure-rs19-lagrange-MJX-9-TEX-N-221A"/>
                  </g>
                  <rect width="500" height="60" x="853" y="840.5"/>
                </g>
              </g>
              <g data-mml-node="mo" data-semantic-type="fence" data-semantic-role="close" data-semantic-id="7" data-semantic-parent="10" data-semantic-attributes="texclass:CLOSE" data-semantic-operator="fenced" data-semantic-speech="right parenthesis" transform="translate(4525.7,0) translate(0 -0.5)">
                <use data-c="29" xlink:href="#prefigure-rs19-lagrange-MJX-9-TEX-LO-29"/>
              </g>
            </g>
          </g>
        </g>
      </svg>
    </g>
  </g>
  <g id="prefigure-rs19-lagrange-lg-max-lab" transform="translate(293.8,160.1) translate(0.0,-16.5)">
    <g id="prefigure-rs19-lagrange-__g-8">
      <svg xmlns:xlink="http://www.w3.org/1999/xlink" style="vertical-align: -3.712px; color:#D55E00" width="43.144px" height="16.472px" role="img" focusable="false" viewBox="0 -705 2383.6 910" x="0.0" y="0.0">
        <defs>
          <path id="prefigure-rs19-lagrange-MJX-10-TEX-I-1D453" d="M118 -162Q120 -162 124 -164T135 -167T147 -168Q160 -168 171 -155T187 -126Q197 -99 221 27T267 267T289 382V385H242Q195 385 192 387Q188 390 188 397L195 425Q197 430 203 430T250 431Q298 431 298 432Q298 434 307 482T319 540Q356 705 465 705Q502 703 526 683T550 630Q550 594 529 578T487 561Q443 561 443 603Q443 622 454 636T478 657L487 662Q471 668 457 668Q445 668 434 658T419 630Q412 601 403 552T387 469T380 433Q380 431 435 431Q480 431 487 430T498 424Q499 420 496 407T491 391Q489 386 482 386T428 385H372L349 263Q301 15 282 -47Q255 -132 212 -173Q175 -205 139 -205Q107 -205 81 -186T55 -132Q55 -95 76 -78T118 -61Q162 -61 162 -103Q162 -122 151 -136T127 -157L118 -162Z"/>
          <path id="prefigure-rs19-lagrange-MJX-10-TEX-N-3D" d="M56 347Q56 360 70 367H707Q722 359 722 347Q722 336 708 328L390 327H72Q56 332 56 347ZM56 153Q56 168 72 173H708Q722 163 722 153Q722 140 707 133H70Q56 140 56 153Z"/>
          <path id="prefigure-rs19-lagrange-MJX-10-TEX-N-34" d="M462 0Q444 3 333 3Q217 3 199 0H190V46H221Q241 46 248 46T265 48T279 53T286 61Q287 63 287 115V165H28V211L179 442Q332 674 334 675Q336 677 355 677H373L379 671V211H471V165H379V114Q379 73 379 66T385 54Q393 47 442 46H471V0H462ZM293 211V545L74 212L183 211H293Z"/>
        </defs>
        <g stroke="currentColor" fill="currentColor" stroke-width="0" transform="scale(1,-1)">
          <g data-mml-node="math" data-semantic-type="relseq" data-semantic-role="equality" data-semantic-id="3" data-semantic-children="0,2" data-semantic-content="1" data-semantic-speech="f equals 4">
            <g data-mml-node="mi" data-semantic-type="identifier" data-semantic-role="latinletter" data-semantic-font="italic" data-semantic-annotation="clearspeak:simple" data-semantic-id="0" data-semantic-parent="3" data-semantic-speech="f">
              <use data-c="1D453" xlink:href="#prefigure-rs19-lagrange-MJX-10-TEX-I-1D453"/>
            </g>
            <g data-mml-node="mo" data-semantic-type="relation" data-semantic-role="equality" data-semantic-id="1" data-semantic-parent="3" data-semantic-operator="relseq,=" data-semantic-speech="equals" transform="translate(827.8,0)">
              <use data-c="3D" xlink:href="#prefigure-rs19-lagrange-MJX-10-TEX-N-3D"/>
            </g>
            <g data-mml-node="mn" data-semantic-type="number" data-semantic-role="integer" data-semantic-font="normal" data-semantic-annotation="clearspeak:simple" data-semantic-id="2" data-semantic-parent="3" data-semantic-speech="4" transform="translate(1883.6,0)">
              <use data-c="34" xlink:href="#prefigure-rs19-lagrange-MJX-10-TEX-N-34"/>
            </g>
          </g>
        </g>
      </svg>
    </g>
  </g>
  <g id="prefigure-rs19-lagrange-lg-min-lab" transform="translate(50.2,163.9) translate(-57.2,-0.0)">
    <g id="prefigure-rs19-lagrange-__g-9">
      <svg xmlns:xlink="http://www.w3.org/1999/xlink" style="vertical-align: -3.712px; color:#009E73" width="57.224px" height="16.472px" role="img" focusable="false" viewBox="0 -705 3161.6 910" x="0.0" y="0.0">
        <defs>
          <path id="prefigure-rs19-lagrange-MJX-11-TEX-I-1D453" d="M118 -162Q120 -162 124 -164T135 -167T147 -168Q160 -168 171 -155T187 -126Q197 -99 221 27T267 267T289 382V385H242Q195 385 192 387Q188 390 188 397L195 425Q197 430 203 430T250 431Q298 431 298 432Q298 434 307 482T319 540Q356 705 465 705Q502 703 526 683T550 630Q550 594 529 578T487 561Q443 561 443 603Q443 622 454 636T478 657L487 662Q471 668 457 668Q445 668 434 658T419 630Q412 601 403 552T387 469T380 433Q380 431 435 431Q480 431 487 430T498 424Q499 420 496 407T491 391Q489 386 482 386T428 385H372L349 263Q301 15 282 -47Q255 -132 212 -173Q175 -205 139 -205Q107 -205 81 -186T55 -132Q55 -95 76 -78T118 -61Q162 -61 162 -103Q162 -122 151 -136T127 -157L118 -162Z"/>
          <path id="prefigure-rs19-lagrange-MJX-11-TEX-N-3D" d="M56 347Q56 360 70 367H707Q722 359 722 347Q722 336 708 328L390 327H72Q56 332 56 347ZM56 153Q56 168 72 173H708Q722 163 722 153Q722 140 707 133H70Q56 140 56 153Z"/>
          <path id="prefigure-rs19-lagrange-MJX-11-TEX-N-2212" d="M84 237T84 250T98 270H679Q694 262 694 250T679 230H98Q84 237 84 250Z"/>
          <path id="prefigure-rs19-lagrange-MJX-11-TEX-N-34" d="M462 0Q444 3 333 3Q217 3 199 0H190V46H221Q241 46 248 46T265 48T279 53T286 61Q287 63 287 115V165H28V211L179 442Q332 674 334 675Q336 677 355 677H373L379 671V211H471V165H379V114Q379 73 379 66T385 54Q393 47 442 46H471V0H462ZM293 211V545L74 212L183 211H293Z"/>
        </defs>
        <g stroke="currentColor" fill="currentColor" stroke-width="0" transform="scale(1,-1)">
          <g data-mml-node="math" data-semantic-type="relseq" data-semantic-role="equality" data-semantic-id="5" data-semantic-children="0,4" data-semantic-content="1" data-semantic-speech="f equals negative 4">
            <g data-mml-node="mi" data-semantic-type="identifier" data-semantic-role="latinletter" data-semantic-font="italic" data-semantic-annotation="clearspeak:simple" data-semantic-id="0" data-semantic-parent="5" data-semantic-speech="f">
              <use data-c="1D453" xlink:href="#prefigure-rs19-lagrange-MJX-11-TEX-I-1D453"/>
            </g>
            <g data-mml-node="mo" data-semantic-type="relation" data-semantic-role="equality" data-semantic-id="1" data-semantic-parent="5" data-semantic-operator="relseq,=" data-semantic-speech="equals" transform="translate(827.8,0)">
              <use data-c="3D" xlink:href="#prefigure-rs19-lagrange-MJX-11-TEX-N-3D"/>
            </g>
            <g data-mml-node="mrow" data-semantic-type="prefixop" data-semantic-role="negative" data-semantic-annotation="clearspeak:simple" data-semantic-id="4" data-semantic-children="3" data-semantic-content="2" data-semantic-parent="5" data-semantic-speech="negative 4" transform="translate(1883.6,0)">
              <g data-mml-node="mo" data-semantic-type="operator" data-semantic-role="subtraction" data-semantic-id="2" data-semantic-parent="4" data-semantic-operator="prefixop,−" data-semantic-speech="minus">
                <use data-c="2212" xlink:href="#prefigure-rs19-lagrange-MJX-11-TEX-N-2212"/>
              </g>
              <g data-mml-node="mn" data-semantic-type="number" data-semantic-role="integer" data-semantic-font="normal" data-semantic-annotation="clearspeak:simple" data-semantic-id="3" data-semantic-parent="4" data-semantic-speech="4" transform="translate(778,0)">
                <use data-c="34" xlink:href="#prefigure-rs19-lagrange-MJX-11-TEX-N-34"/>
              </g>
            </g>
          </g>
        </g>
      </svg>
    </g>
  </g>
</svg>
