<svg xmlns="http://www.w3.org/2000/svg" id="prefigure-skel-inclined-forces-figure" width="360" height="310" viewBox="0 0 360 310">
  <defs>
    <clipPath id="prefigure-skel-inclined-forces-__clipPath-0">
      <rect x="5.0" y="5.0" width="350.0" height="300.0"/>
    </clipPath>
    <clipPath id="prefigure-skel-inclined-forces-__clipPath-1">
      <rect x="5.0" y="5.0" width="350.0" height="300.0"/>
    </clipPath>
    <marker id="prefigure-skel-inclined-forces-arrow-head-end-2_None_24_60-blue" markerWidth="9.0" markerHeight="8.0" markerUnits="userSpaceOnUse" orient="auto" refX="6.5" refY="4.0">
      <path d="M 9.0 4.0L 0.0 8.0L 1.7 5.0L 1.7 3.0L 0.0 0.0Z" fill="blue" stroke="none"/>
    </marker>
    <marker id="prefigure-skel-inclined-forces-arrow-head-end-2_None_24_60-blue-outline" markerWidth="13.0" markerHeight="12.0" markerUnits="userSpaceOnUse" orient="auto" refX="8.5" refY="6.0">
      <path d="M 11.8 7.8 L 2.8 11.8 A 2 2 0 0 1 0.0 10.0 L 0.0 2.0 A 2 2 0 0 1 2.8 0.2 L 11.8 4.2 A 2 2 0 0 1 11.8 7.8 Z" fill="white" stroke="none"/>
    </marker>
    <marker id="prefigure-skel-inclined-forces-arrow-head-end-2_None_24_60-red" markerWidth="9.0" markerHeight="8.0" markerUnits="userSpaceOnUse" orient="auto" refX="6.5" refY="4.0">
      <path d="M 9.0 4.0L 0.0 8.0L 1.7 5.0L 1.7 3.0L 0.0 0.0Z" fill="red" stroke="none"/>
    </marker>
    <marker id="prefigure-skel-inclined-forces-arrow-head-end-2_None_24_60-red-outline" markerWidth="13.0" markerHeight="12.0" markerUnits="userSpaceOnUse" orient="auto" refX="8.5" refY="6.0">
      <path d="M 11.8 7.8 L 2.8 11.8 A 2 2 0 0 1 0.0 10.0 L 0.0 2.0 A 2 2 0 0 1 2.8 0.2 L 11.8 4.2 A 2 2 0 0 1 11.8 7.8 Z" fill="white" stroke="none"/>
    </marker>
    <marker id="prefigure-skel-inclined-forces-arrow-head-end-2_None_24_60-purple" markerWidth="9.0" markerHeight="8.0" markerUnits="userSpaceOnUse" orient="auto" refX="6.5" refY="4.0">
      <path d="M 9.0 4.0L 0.0 8.0L 1.7 5.0L 1.7 3.0L 0.0 0.0Z" fill="purple" stroke="none"/>
    </marker>
    <marker id="prefigure-skel-inclined-forces-arrow-head-end-2_None_24_60-purple-outline" markerWidth="13.0" markerHeight="12.0" markerUnits="userSpaceOnUse" orient="auto" refX="8.5" refY="6.0">
      <path d="M 11.8 7.8 L 2.8 11.8 A 2 2 0 0 1 0.0 10.0 L 0.0 2.0 A 2 2 0 0 1 2.8 0.2 L 11.8 4.2 A 2 2 0 0 1 11.8 7.8 Z" fill="white" stroke="none"/>
    </marker>
    <marker id="prefigure-skel-inclined-forces-arrow-head-start-2_None_24_60-blue" markerWidth="9.0" markerHeight="8.0" markerUnits="userSpaceOnUse" orient="auto" refX="2.5" refY="4.0">
      <g transform="rotate(180, 4.5, 4.0)">
        <path d="M 9.0 4.0L 0.0 8.0L 1.7 5.0L 1.7 3.0L 0.0 0.0Z" fill="blue" stroke="none"/>
      </g>
    </marker>
    <marker id="prefigure-skel-inclined-forces-arrow-head-start-2_None_24_60-blue-outline" markerWidth="13.0" markerHeight="12.0" markerUnits="userSpaceOnUse" orient="auto" refX="4.5" refY="6.0">
      <g transform="rotate(180, 6.5, 6.0)">
        <path d="M 11.8 7.8 L 2.8 11.8 A 2 2 0 0 1 0.0 10.0 L 0.0 2.0 A 2 2 0 0 1 2.8 0.2 L 11.8 4.2 A 2 2 0 0 1 11.8 7.8 Z" fill="white" stroke="none"/>
      </g>
    </marker>
    <marker id="prefigure-skel-inclined-forces-arrow-head-start-2_None_24_60-red" markerWidth="9.0" markerHeight="8.0" markerUnits="userSpaceOnUse" orient="auto" refX="2.5" refY="4.0">
      <g transform="rotate(180, 4.5, 4.0)">
        <path d="M 9.0 4.0L 0.0 8.0L 1.7 5.0L 1.7 3.0L 0.0 0.0Z" fill="red" stroke="none"/>
      </g>
    </marker>
    <marker id="prefigure-skel-inclined-forces-arrow-head-start-2_None_24_60-red-outline" markerWidth="13.0" markerHeight="12.0" markerUnits="userSpaceOnUse" orient="auto" refX="4.5" refY="6.0">
      <g transform="rotate(180, 6.5, 6.0)">
        <path d="M 11.8 7.8 L 2.8 11.8 A 2 2 0 0 1 0.0 10.0 L 0.0 2.0 A 2 2 0 0 1 2.8 0.2 L 11.8 4.2 A 2 2 0 0 1 11.8 7.8 Z" fill="white" stroke="none"/>
      </g>
    </marker>
    <marker id="prefigure-skel-inclined-forces-arrow-head-start-2_None_24_60-purple" markerWidth="9.0" markerHeight="8.0" markerUnits="userSpaceOnUse" orient="auto" refX="2.5" refY="4.0">
      <g transform="rotate(180, 4.5, 4.0)">
        <path d="M 9.0 4.0L 0.0 8.0L 1.7 5.0L 1.7 3.0L 0.0 0.0Z" fill="purple" stroke="none"/>
      </g>
    </marker>
    <marker id="prefigure-skel-inclined-forces-arrow-head-start-2_None_24_60-purple-outline" markerWidth="13.0" markerHeight="12.0" markerUnits="userSpaceOnUse" orient="auto" refX="4.5" refY="6.0">
      <g transform="rotate(180, 6.5, 6.0)">
        <path d="M 11.8 7.8 L 2.8 11.8 A 2 2 0 0 1 0.0 10.0 L 0.0 2.0 A 2 2 0 0 1 2.8 0.2 L 11.8 4.2 A 2 2 0 0 1 11.8 7.8 Z" fill="white" stroke="none"/>
      </g>
    </marker>
  </defs>
  <line id="prefigure-skel-inclined-forces-incline-surface" x1="55.0" y1="205.0" x2="314.8" y2="55.0" stroke="black" stroke-width="2" fill="none"/>
  <line id="prefigure-skel-inclined-forces-incline-base" x1="55.0" y1="205.0" x2="314.8" y2="205.0" stroke="black" stroke-width="1" stroke-dasharray="4 4" fill="none"/>
  <line id="prefigure-skel-inclined-forces-incline-vertical" x1="314.8" y1="205.0" x2="314.8" y2="55.0" stroke="black" stroke-width="1" stroke-dasharray="4 4" fill="none"/>
  <g id="prefigure-skel-inclined-forces-angle-label" transform="translate(124.0,188.5) translate(0.0,-13.2)">
    <g id="prefigure-skel-inclined-forces-__g-0">
      <svg xmlns:xlink="http://www.w3.org/1999/xlink" style="vertical-align: -0.400px" width="26.000px" height="13.192px" role="img" focusable="false" viewBox="0 -707 1436.6 729" x="0.0" y="0.0">
        <defs>
          <path id="prefigure-skel-inclined-forces-MJX-2-TEX-N-33" d="M127 463Q100 463 85 480T69 524Q69 579 117 622T233 665Q268 665 277 664Q351 652 390 611T430 522Q430 470 396 421T302 350L299 348Q299 347 308 345T337 336T375 315Q457 262 457 175Q457 96 395 37T238 -22Q158 -22 100 21T42 130Q42 158 60 175T105 193Q133 193 151 175T169 130Q169 119 166 110T159 94T148 82T136 74T126 70T118 67L114 66Q165 21 238 21Q293 21 321 74Q338 107 338 175V195Q338 290 274 322Q259 328 213 329L171 330L168 332Q166 335 166 348Q166 366 174 366Q202 366 232 371Q266 376 294 413T322 525V533Q322 590 287 612Q265 626 240 626Q208 626 181 615T143 592T132 580H135Q138 579 143 578T153 573T165 566T175 555T183 540T186 520Q186 498 172 481T127 463Z"/>
          <path id="prefigure-skel-inclined-forces-MJX-2-TEX-N-30" d="M96 585Q152 666 249 666Q297 666 345 640T423 548Q460 465 460 320Q460 165 417 83Q397 41 362 16T301 -15T250 -22Q224 -22 198 -16T137 16T82 83Q39 165 39 320Q39 494 96 585ZM321 597Q291 629 250 629Q208 629 178 597Q153 571 145 525T137 333Q137 175 145 125T181 46Q209 16 250 16Q290 16 318 46Q347 76 354 130T362 333Q362 478 354 524T321 597Z"/>
          <path id="prefigure-skel-inclined-forces-MJX-2-TEX-N-2218" d="M55 251Q55 328 112 386T249 444T386 388T444 249Q444 171 388 113T250 55Q170 55 113 112T55 251ZM245 403Q188 403 142 361T96 250Q96 183 141 140T250 96Q284 96 313 109T354 135T375 160Q403 197 403 250Q403 313 360 358T245 403Z"/>
        </defs>
        <g stroke="currentColor" fill="currentColor" stroke-width="0" transform="scale(1,-1)">
          <g data-mml-node="math">
            <g data-mml-node="msup" data-semantic-type="superscript" data-semantic-role="integer" data-semantic-id="2" data-semantic-children="0,1" data-semantic-speech="30 Superscript ring">
              <g data-mml-node="mn" data-semantic-type="number" data-semantic-role="integer" data-semantic-font="normal" data-semantic-annotation="clearspeak:simple" data-semantic-id="0" data-semantic-parent="2" data-semantic-speech="30" data-semantic-prefix="Base">
                <use data-c="33" xlink:href="#prefigure-skel-inclined-forces-MJX-2-TEX-N-33"/>
                <use data-c="30" xlink:href="#prefigure-skel-inclined-forces-MJX-2-TEX-N-30" transform="translate(500,0)"/>
              </g>
              <g data-mml-node="TeXAtom" transform="translate(1033,393.1) scale(0.707)" data-mjx-texclass="ORD">
                <g data-mml-node="mo" data-semantic-type="operator" data-semantic-role="multiplication" data-semantic-id="1" data-semantic-parent="2" data-semantic-attributes="texclass:ORD" data-semantic-speech="ring" data-semantic-prefix="Exponent">
                  <use data-c="2218" xlink:href="#prefigure-skel-inclined-forces-MJX-2-TEX-N-2218"/>
                </g>
              </g>
            </g>
          </g>
        </g>
      </svg>
    </g>
  </g>
  <path id="prefigure-skel-inclined-forces-block" d="M 158.9 145.0 L 210.9 115.0 L 190.9 80.4 L 138.9 110.4 Z" stroke="black" stroke-width="2" fill="#ccc"/>
  <path id="prefigure-skel-inclined-forces-vec-weight" stroke="blue" stroke-width="2" fill="none" marker-end="url(#prefigure-skel-inclined-forces-arrow-head-end-2_None_24_60-blue)" d="M 174.9 112.7 L 174.9 260.3"/>
  <g id="prefigure-skel-inclined-forces-weight-label" transform="translate(196.5,257.5) translate(0.0,-12.7)">
    <g id="prefigure-skel-inclined-forces-__g-1">
      <svg xmlns:xlink="http://www.w3.org/1999/xlink" style="vertical-align: 0.000px; color:blue" width="13.560px" height="25.464px" role="img" focusable="false" viewBox="0 -1407 749 1407" x="0.0" y="0.0">
        <defs>
          <path id="prefigure-skel-inclined-forces-MJX-3-TEX-I-1D439" d="M48 1Q31 1 31 11Q31 13 34 25Q38 41 42 43T65 46Q92 46 125 49Q139 52 144 61Q146 66 215 342T285 622Q285 629 281 629Q273 632 228 634H197Q191 640 191 642T193 659Q197 676 203 680H742Q749 676 749 669Q749 664 736 557T722 447Q720 440 702 440H690Q683 445 683 453Q683 454 686 477T689 530Q689 560 682 579T663 610T626 626T575 633T503 634H480Q398 633 393 631Q388 629 386 623Q385 622 352 492L320 363H375Q378 363 398 363T426 364T448 367T472 374T489 386Q502 398 511 419T524 457T529 475Q532 480 548 480H560Q567 475 567 470Q567 467 536 339T502 207Q500 200 482 200H470Q463 206 463 212Q463 215 468 234T473 274Q473 303 453 310T364 317H309L277 190Q245 66 245 60Q245 46 334 46H359Q365 40 365 39T363 19Q359 6 353 0H336Q295 2 185 2Q120 2 86 2T48 1Z"/>
          <path id="prefigure-skel-inclined-forces-MJX-3-TEX-N-2192" d="M56 237T56 250T70 270H835Q719 357 692 493Q692 494 692 496T691 499Q691 511 708 511H711Q720 511 723 510T729 506T732 497T735 481T743 456Q765 389 816 336T935 261Q944 258 944 250Q944 244 939 241T915 231T877 212Q836 186 806 152T761 85T740 35T732 4Q730 -6 727 -8T711 -11Q691 -11 691 0Q691 7 696 25Q728 151 835 230H70Q56 237 56 250Z"/>
        </defs>
        <g stroke="currentColor" fill="currentColor" stroke-width="0" transform="scale(1,-1)">
          <g data-mml-node="math">
            <g data-mml-node="mover" data-semantic-type="overscore" data-semantic-role="latinletter" data-semantic-id="2" data-semantic-children="0,1" data-semantic-speech="ModifyingAbove upper F With right arrow">
              <g data-mml-node="mi" data-semantic-type="identifier" data-semantic-role="latinletter" data-semantic-font="italic" data-semantic-annotation="clearspeak:simple" data-semantic-id="0" data-semantic-parent="2" data-semantic-speech="upper F" data-semantic-prefix="Base">
                <use data-c="1D439" xlink:href="#prefigure-skel-inclined-forces-MJX-3-TEX-I-1D439"/>
              </g>
              <g data-mml-node="mo" data-semantic-type="relation" data-semantic-role="overaccent" data-semantic-annotation="accent:arrow" data-semantic-id="1" data-semantic-parent="2" data-semantic-speech="right arrow" data-semantic-prefix="Overscript" transform="translate(484.3,796) translate(-500 0)">
                <use data-c="2192" xlink:href="#prefigure-skel-inclined-forces-MJX-3-TEX-N-2192"/>
              </g>
            </g>
          </g>
        </g>
      </svg>
    </g>
  </g>
  <path id="prefigure-skel-inclined-forces-vec-parallel" stroke="red" stroke-width="2" fill="none" marker-end="url(#prefigure-skel-inclined-forces-arrow-head-end-2_None_24_60-red)" d="M 174.9 112.7 L 112.1 149.0"/>
  <g id="prefigure-skel-inclined-forces-parallel-label" transform="translate(88.5,152.5) translate(-19.5,-15.9)">
    <g id="prefigure-skel-inclined-forces-__g-2">
      <svg xmlns:xlink="http://www.w3.org/1999/xlink" style="vertical-align: -6.400px; color:red" width="19.536px" height="31.864px" role="img" focusable="false" viewBox="0 -1407 1079.6 1760.5" x="0.0" y="0.0">
        <defs>
          <path id="prefigure-skel-inclined-forces-MJX-4-TEX-I-1D439" d="M48 1Q31 1 31 11Q31 13 34 25Q38 41 42 43T65 46Q92 46 125 49Q139 52 144 61Q146 66 215 342T285 622Q285 629 281 629Q273 632 228 634H197Q191 640 191 642T193 659Q197 676 203 680H742Q749 676 749 669Q749 664 736 557T722 447Q720 440 702 440H690Q683 445 683 453Q683 454 686 477T689 530Q689 560 682 579T663 610T626 626T575 633T503 634H480Q398 633 393 631Q388 629 386 623Q385 622 352 492L320 363H375Q378 363 398 363T426 364T448 367T472 374T489 386Q502 398 511 419T524 457T529 475Q532 480 548 480H560Q567 475 567 470Q567 467 536 339T502 207Q500 200 482 200H470Q463 206 463 212Q463 215 468 234T473 274Q473 303 453 310T364 317H309L277 190Q245 66 245 60Q245 46 334 46H359Q365 40 365 39T363 19Q359 6 353 0H336Q295 2 185 2Q120 2 86 2T48 1Z"/>
          <path id="prefigure-skel-inclined-forces-MJX-4-TEX-N-2192" d="M56 237T56 250T70 270H835Q719 357 692 493Q692 494 692 496T691 499Q691 511 708 511H711Q720 511 723 510T729 506T732 497T735 481T743 456Q765 389 816 336T935 261Q944 258 944 250Q944 244 939 241T915 231T877 212Q836 186 806 152T761 85T740 35T732 4Q730 -6 727 -8T711 -11Q691 -11 691 0Q691 7 696 25Q728 151 835 230H70Q56 237 56 250Z"/>
          <path id="prefigure-skel-inclined-forces-MJX-4-TEX-N-2225" d="M133 736Q138 750 153 750Q164 750 170 739Q172 735 172 250T170 -239Q164 -250 152 -250Q144 -250 138 -244L137 -243Q133 -241 133 -179T132 250Q132 731 133 736ZM329 739Q334 750 346 750Q353 750 361 744L362 743Q366 741 366 679T367 250T367 -178T362 -243L361 -244Q355 -250 347 -250Q335 -250 329 -239Q327 -235 327 250T329 739Z"/>
        </defs>
        <g stroke="currentColor" fill="currentColor" stroke-width="0" transform="scale(1,-1)">
          <g data-mml-node="math">
            <g data-mml-node="msub" data-semantic-type="subscript" data-semantic-role="latinletter" data-semantic-id="4" data-semantic-children="2,3" data-semantic-speech="ModifyingAbove upper F With right arrow Subscript parallel to">
              <g data-mml-node="mover" data-semantic-type="overscore" data-semantic-role="latinletter" data-semantic-id="2" data-semantic-children="0,1" data-semantic-parent="4" data-semantic-speech="ModifyingAbove upper F With right arrow" data-semantic-prefix="Base">
                <g data-mml-node="mi" data-semantic-type="identifier" data-semantic-role="latinletter" data-semantic-font="italic" data-semantic-annotation="clearspeak:simple" data-semantic-id="0" data-semantic-parent="2" data-semantic-speech="upper F" data-semantic-prefix="Base">
                  <use data-c="1D439" xlink:href="#prefigure-skel-inclined-forces-MJX-4-TEX-I-1D439"/>
                </g>
                <g data-mml-node="mo" data-semantic-type="relation" data-semantic-role="overaccent" data-semantic-annotation="accent:arrow" data-semantic-id="1" data-semantic-parent="2" data-semantic-speech="right arrow" data-semantic-prefix="Overscript" transform="translate(484.3,796) translate(-500 0)">
                  <use data-c="2192" xlink:href="#prefigure-skel-inclined-forces-MJX-4-TEX-N-2192"/>
                </g>
              </g>
              <g data-mml-node="TeXAtom" transform="translate(676,-176.7) scale(0.707)" data-mjx-texclass="ORD">
                <g data-mml-node="mo" data-semantic-type="fence" data-semantic-role="metric" data-semantic-id="3" data-semantic-parent="4" data-semantic-attributes="texclass:ORD" data-semantic-speech="parallel to" data-semantic-prefix="Subscript">
                  <use data-c="2225" xlink:href="#prefigure-skel-inclined-forces-MJX-4-TEX-N-2225"/>
                </g>
              </g>
            </g>
          </g>
        </g>
      </svg>
    </g>
  </g>
  <path id="prefigure-skel-inclined-forces-vec-perp" stroke="purple" stroke-width="2" fill="none" marker-end="url(#prefigure-skel-inclined-forces-arrow-head-end-2_None_24_60-purple)" d="M 174.9 112.7 L 238.6 223.1"/>
  <g id="prefigure-skel-inclined-forces-perp-label" transform="translate(256.5,225.0) translate(0.0,-14.1)">
    <g id="prefigure-skel-inclined-forces-__g-3">
      <svg xmlns:xlink="http://www.w3.org/1999/xlink" style="vertical-align: -2.712px; color:purple" width="23.096px" height="28.184px" role="img" focusable="false" viewBox="0 -1407 1276.1 1557" x="0.0" y="0.0">
        <defs>
          <path id="prefigure-skel-inclined-forces-MJX-5-TEX-I-1D439" d="M48 1Q31 1 31 11Q31 13 34 25Q38 41 42 43T65 46Q92 46 125 49Q139 52 144 61Q146 66 215 342T285 622Q285 629 281 629Q273 632 228 634H197Q191 640 191 642T193 659Q197 676 203 680H742Q749 676 749 669Q749 664 736 557T722 447Q720 440 702 440H690Q683 445 683 453Q683 454 686 477T689 530Q689 560 682 579T663 610T626 626T575 633T503 634H480Q398 633 393 631Q388 629 386 623Q385 622 352 492L320 363H375Q378 363 398 363T426 364T448 367T472 374T489 386Q502 398 511 419T524 457T529 475Q532 480 548 480H560Q567 475 567 470Q567 467 536 339T502 207Q500 200 482 200H470Q463 206 463 212Q463 215 468 234T473 274Q473 303 453 310T364 317H309L277 190Q245 66 245 60Q245 46 334 46H359Q365 40 365 39T363 19Q359 6 353 0H336Q295 2 185 2Q120 2 86 2T48 1Z"/>
          <path id="prefigure-skel-inclined-forces-MJX-5-TEX-N-2192" d="M56 237T56 250T70 270H835Q719 357 692 493Q692 494 692 496T691 499Q691 511 708 511H711Q720 511 723 510T729 506T732 497T735 481T743 456Q765 389 816 336T935 261Q944 258 944 250Q944 244 939 241T915 231T877 212Q836 186 806 152T761 85T740 35T732 4Q730 -6 727 -8T711 -11Q691 -11 691 0Q691 7 696 25Q728 151 835 230H70Q56 237 56 250Z"/>
          <path id="prefigure-skel-inclined-forces-MJX-5-TEX-N-22A5" d="M369 652Q369 653 370 655T372 658T375 662T379 665T384 667T391 668Q402 666 409 653V40H708Q723 32 723 20T708 0H71Q70 0 67 2T59 9T55 20T59 31T66 38T71 40H369V652Z"/>
        </defs>
        <g stroke="currentColor" fill="currentColor" stroke-width="0" transform="scale(1,-1)">
          <g data-mml-node="math">
            <g data-mml-node="msub" data-semantic-type="subscript" data-semantic-role="latinletter" data-semantic-id="4" data-semantic-children="2,3" data-semantic-speech="ModifyingAbove upper F With right arrow Subscript up tack">
              <g data-mml-node="mover" data-semantic-type="overscore" data-semantic-role="latinletter" data-semantic-id="2" data-semantic-children="0,1" data-semantic-parent="4" data-semantic-speech="ModifyingAbove upper F With right arrow" data-semantic-prefix="Base">
                <g data-mml-node="mi" data-semantic-type="identifier" data-semantic-role="latinletter" data-semantic-font="italic" data-semantic-annotation="clearspeak:simple" data-semantic-id="0" data-semantic-parent="2" data-semantic-speech="upper F" data-semantic-prefix="Base">
                  <use data-c="1D439" xlink:href="#prefigure-skel-inclined-forces-MJX-5-TEX-I-1D439"/>
                </g>
                <g data-mml-node="mo" data-semantic-type="relation" data-semantic-role="overaccent" data-semantic-annotation="accent:arrow" data-semantic-id="1" data-semantic-parent="2" data-semantic-speech="right arrow" data-semantic-prefix="Overscript" transform="translate(484.3,796) translate(-500 0)">
                  <use data-c="2192" xlink:href="#prefigure-skel-inclined-forces-MJX-5-TEX-N-2192"/>
                </g>
              </g>
              <g data-mml-node="TeXAtom" transform="translate(676,-150) scale(0.707)" data-mjx-texclass="ORD">
                <g data-mml-node="mo" data-semantic-type="operator" data-semantic-role="addition" data-semantic-id="3" data-semantic-parent="4" data-semantic-attributes="texclass:ORD" data-semantic-speech="up tack" data-semantic-prefix="Subscript">
                  <use data-c="22A5" xlink:href="#prefigure-skel-inclined-forces-MJX-5-TEX-N-22A5"/>
                </g>
              </g>
            </g>
          </g>
        </g>
      </svg>
    </g>
  </g>
</svg>
