<svg xmlns="http://www.w3.org/2000/svg" id="prefigure-skel-parallelogram-area-figure" width="401" height="220" viewBox="0 0 401 220">
  <defs>
    <clipPath id="prefigure-skel-parallelogram-area-__clipPath-0">
      <rect x="10.0" y="10.0" width="381.0" height="200.0"/>
    </clipPath>
    <clipPath id="prefigure-skel-parallelogram-area-__clipPath-1">
      <rect x="10.0" y="10.0" width="381.0" height="200.0"/>
    </clipPath>
    <marker id="prefigure-skel-parallelogram-area-arrow-head-end-3_None_24_60-blue" markerWidth="13.5" markerHeight="12.0" markerUnits="userSpaceOnUse" orient="auto" refX="9.8" refY="6.0">
      <path d="M 13.5 6.0L 0.0 12.0L 2.6 7.5L 2.6 4.5L 0.0 0.0Z" fill="blue" stroke="none"/>
    </marker>
    <marker id="prefigure-skel-parallelogram-area-arrow-head-end-3_None_24_60-blue-outline" markerWidth="17.5" markerHeight="16.0" markerUnits="userSpaceOnUse" orient="auto" refX="11.8" refY="8.0">
      <path d="M 16.3 9.8 L 2.8 15.8 A 2 2 0 0 1 0.0 14.0 L 0.0 2.0 A 2 2 0 0 1 2.8 0.2 L 16.3 6.2 A 2 2 0 0 1 16.3 9.8 Z" fill="white" stroke="none"/>
    </marker>
    <marker id="prefigure-skel-parallelogram-area-arrow-head-end-3_None_24_60-red" markerWidth="13.5" markerHeight="12.0" markerUnits="userSpaceOnUse" orient="auto" refX="9.8" refY="6.0">
      <path d="M 13.5 6.0L 0.0 12.0L 2.6 7.5L 2.6 4.5L 0.0 0.0Z" fill="red" stroke="none"/>
    </marker>
    <marker id="prefigure-skel-parallelogram-area-arrow-head-end-3_None_24_60-red-outline" markerWidth="17.5" markerHeight="16.0" markerUnits="userSpaceOnUse" orient="auto" refX="11.8" refY="8.0">
      <path d="M 16.3 9.8 L 2.8 15.8 A 2 2 0 0 1 0.0 14.0 L 0.0 2.0 A 2 2 0 0 1 2.8 0.2 L 16.3 6.2 A 2 2 0 0 1 16.3 9.8 Z" fill="white" stroke="none"/>
    </marker>
    <marker id="prefigure-skel-parallelogram-area-arrow-head-start-3_None_24_60-blue" markerWidth="13.5" markerHeight="12.0" markerUnits="userSpaceOnUse" orient="auto" refX="3.6999999999999993" refY="6.0">
      <g transform="rotate(180, 6.75, 6.0)">
        <path d="M 13.5 6.0L 0.0 12.0L 2.6 7.5L 2.6 4.5L 0.0 0.0Z" fill="blue" stroke="none"/>
      </g>
    </marker>
    <marker id="prefigure-skel-parallelogram-area-arrow-head-start-3_None_24_60-blue-outline" markerWidth="17.5" markerHeight="16.0" markerUnits="userSpaceOnUse" orient="auto" refX="5.699999999999999" refY="8.0">
      <g transform="rotate(180, 8.75, 8.0)">
        <path d="M 16.3 9.8 L 2.8 15.8 A 2 2 0 0 1 0.0 14.0 L 0.0 2.0 A 2 2 0 0 1 2.8 0.2 L 16.3 6.2 A 2 2 0 0 1 16.3 9.8 Z" fill="white" stroke="none"/>
      </g>
    </marker>
    <marker id="prefigure-skel-parallelogram-area-arrow-head-start-3_None_24_60-red" markerWidth="13.5" markerHeight="12.0" markerUnits="userSpaceOnUse" orient="auto" refX="3.6999999999999993" refY="6.0">
      <g transform="rotate(180, 6.75, 6.0)">
        <path d="M 13.5 6.0L 0.0 12.0L 2.6 7.5L 2.6 4.5L 0.0 0.0Z" fill="red" stroke="none"/>
      </g>
    </marker>
    <marker id="prefigure-skel-parallelogram-area-arrow-head-start-3_None_24_60-red-outline" markerWidth="17.5" markerHeight="16.0" markerUnits="userSpaceOnUse" orient="auto" refX="5.699999999999999" refY="8.0">
      <g transform="rotate(180, 8.75, 8.0)">
        <path d="M 16.3 9.8 L 2.8 15.8 A 2 2 0 0 1 0.0 14.0 L 0.0 2.0 A 2 2 0 0 1 2.8 0.2 L 16.3 6.2 A 2 2 0 0 1 16.3 9.8 Z" fill="white" stroke="none"/>
      </g>
    </marker>
  </defs>
  <line id="prefigure-skel-parallelogram-area-par-side-top" x1="129.1" y1="38.6" x2="367.2" y2="38.6" stroke="red" stroke-width="2" fill="none"/>
  <line id="prefigure-skel-parallelogram-area-par-side-right" x1="271.9" y1="181.4" x2="367.2" y2="38.6" stroke="blue" stroke-width="2" fill="none"/>
  <line id="prefigure-skel-parallelogram-area-par-height" x1="129.1" y1="38.6" x2="129.1" y2="181.4" stroke="black" stroke-width="2" stroke-dasharray="4 4" fill="none"/>
  <path id="prefigure-skel-parallelogram-area-par-vec-u" stroke="blue" stroke-width="3" fill="none" marker-end="url(#prefigure-skel-parallelogram-area-arrow-head-end-3_None_24_60-blue)" d="M 33.8 181.4 L 127.0 41.6"/>
  <path id="prefigure-skel-parallelogram-area-par-vec-v" stroke="red" stroke-width="3" fill="none" marker-end="url(#prefigure-skel-parallelogram-area-arrow-head-end-3_None_24_60-red)" d="M 33.8 181.4 L 268.3 181.4"/>
  <g id="prefigure-skel-parallelogram-area-par-u-label" transform="translate(77.4,106.0) translate(-11.6,-8.3)">
    <g id="prefigure-skel-parallelogram-area-__g-0">
      <svg xmlns:xlink="http://www.w3.org/1999/xlink" style="vertical-align: -0.112px; color:blue" width="11.568px" height="8.256px" role="img" focusable="false" viewBox="0 -450 639 456" x="0.0" y="0.0">
        <defs>
          <path id="prefigure-skel-parallelogram-area-MJX-2-TEX-B-1D42E" d="M40 442L134 446Q228 450 229 450H235V273V165Q235 90 238 74T254 52Q268 46 304 46H319Q352 46 380 67T419 121L420 123Q424 135 425 199Q425 201 425 207Q425 233 425 249V316Q425 354 423 363T410 376Q396 380 369 380H356V442L554 450V267Q554 84 556 79Q561 62 610 62H623V31Q623 0 622 0Q603 0 527 -3T432 -6Q431 -6 431 25V56L420 45Q373 6 332 -1Q313 -6 281 -6Q208 -6 165 14T109 87L107 98L106 230Q106 358 104 366Q96 380 50 380H37V442H40Z"/>
        </defs>
        <g stroke="currentColor" fill="currentColor" stroke-width="0" transform="scale(1,-1)">
          <g data-mml-node="math">
            <g data-mml-node="TeXAtom" data-mjx-texclass="ORD">
              <g data-mml-node="mi" data-semantic-type="identifier" data-semantic-role="latinletter" data-semantic-font="bold" data-semantic-annotation="clearspeak:simple" data-semantic-id="0" data-semantic-attributes="texclass:ORD" data-semantic-speech="bold u">
                <use data-c="1D42E" xlink:href="#prefigure-skel-parallelogram-area-MJX-2-TEX-B-1D42E"/>
              </g>
            </g>
          </g>
        </g>
      </svg>
    </g>
  </g>
  <g id="prefigure-skel-parallelogram-area-par-v-label" transform="translate(143.3,195.0) translate(-5.5,-0.0)">
    <g id="prefigure-skel-parallelogram-area-__g-1">
      <svg xmlns:xlink="http://www.w3.org/1999/xlink" style="vertical-align: 0.000px; color:red" width="10.984px" height="8.040px" role="img" focusable="false" viewBox="0 -444 607 444" x="0.0" y="0.0">
        <defs>
          <path id="prefigure-skel-parallelogram-area-MJX-3-TEX-B-1D42F" d="M401 444Q413 441 495 441Q568 441 574 444H580V382H510L409 156Q348 18 339 6Q331 -4 320 -4Q318 -4 313 -4T303 -3H288Q273 -3 264 12T221 102Q206 135 197 156L96 382H26V444H34Q49 441 145 441Q252 441 270 444H279V382H231L284 264Q335 149 338 149Q338 150 389 264T442 381Q442 382 418 382H394V444H401Z"/>
        </defs>
        <g stroke="currentColor" fill="currentColor" stroke-width="0" transform="scale(1,-1)">
          <g data-mml-node="math">
            <g data-mml-node="TeXAtom" data-mjx-texclass="ORD">
              <g data-mml-node="mi" data-semantic-type="identifier" data-semantic-role="latinletter" data-semantic-font="bold" data-semantic-annotation="clearspeak:simple" data-semantic-id="0" data-semantic-attributes="texclass:ORD" data-semantic-speech="bold v">
                <use data-c="1D42F" xlink:href="#prefigure-skel-parallelogram-area-MJX-3-TEX-B-1D42F"/>
              </g>
            </g>
          </g>
        </g>
      </svg>
    </g>
  </g>
  <g id="prefigure-skel-parallelogram-area-par-height-label" transform="translate(137.8,110.0) translate(0.0,-9.0)">
    <g id="prefigure-skel-parallelogram-area-__g-2">
      <svg xmlns:xlink="http://www.w3.org/1999/xlink" style="vertical-align: -4.528px" width="77.480px" height="18.096px" role="img" focusable="false" viewBox="0 -750 4280.7 1000" x="0.0" y="0.0">
        <defs>
          <path id="prefigure-skel-parallelogram-area-MJX-4-TEX-N-2225" d="M133 736Q138 750 153 750Q164 750 170 739Q172 735 172 250T170 -239Q164 -250 152 -250Q144 -250 138 -244L137 -243Q133 -241 133 -179T132 250Q132 731 133 736ZM329 739Q334 750 346 750Q353 750 361 744L362 743Q366 741 366 679T367 250T367 -178T362 -243L361 -244Q355 -250 347 -250Q335 -250 329 -239Q327 -235 327 250T329 739Z"/>
          <path id="prefigure-skel-parallelogram-area-MJX-4-TEX-B-1D42E" d="M40 442L134 446Q228 450 229 450H235V273V165Q235 90 238 74T254 52Q268 46 304 46H319Q352 46 380 67T419 121L420 123Q424 135 425 199Q425 201 425 207Q425 233 425 249V316Q425 354 423 363T410 376Q396 380 369 380H356V442L554 450V267Q554 84 556 79Q561 62 610 62H623V31Q623 0 622 0Q603 0 527 -3T432 -6Q431 -6 431 25V56L420 45Q373 6 332 -1Q313 -6 281 -6Q208 -6 165 14T109 87L107 98L106 230Q106 358 104 366Q96 380 50 380H37V442H40Z"/>
          <path id="prefigure-skel-parallelogram-area-MJX-4-TEX-N-2062" d=""/>
          <path id="prefigure-skel-parallelogram-area-MJX-4-TEX-N-73" d="M295 316Q295 356 268 385T190 414Q154 414 128 401Q98 382 98 349Q97 344 98 336T114 312T157 287Q175 282 201 278T245 269T277 256Q294 248 310 236T342 195T359 133Q359 71 321 31T198 -10H190Q138 -10 94 26L86 19L77 10Q71 4 65 -1L54 -11H46H42Q39 -11 33 -5V74V132Q33 153 35 157T45 162H54Q66 162 70 158T75 146T82 119T101 77Q136 26 198 26Q295 26 295 104Q295 133 277 151Q257 175 194 187T111 210Q75 227 54 256T33 318Q33 357 50 384T93 424T143 442T187 447H198Q238 447 268 432L283 424L292 431Q302 440 314 448H322H326Q329 448 335 442V310L329 304H301Q295 310 295 316Z"/>
          <path id="prefigure-skel-parallelogram-area-MJX-4-TEX-N-69" d="M69 609Q69 637 87 653T131 669Q154 667 171 652T188 609Q188 579 171 564T129 549Q104 549 87 564T69 609ZM247 0Q232 3 143 3Q132 3 106 3T56 1L34 0H26V46H42Q70 46 91 49Q100 53 102 60T104 102V205V293Q104 345 102 359T88 378Q74 385 41 385H30V408Q30 431 32 431L42 432Q52 433 70 434T106 436Q123 437 142 438T171 441T182 442H185V62Q190 52 197 50T232 46H255V0H247Z"/>
          <path id="prefigure-skel-parallelogram-area-MJX-4-TEX-N-6E" d="M41 46H55Q94 46 102 60V68Q102 77 102 91T102 122T103 161T103 203Q103 234 103 269T102 328V351Q99 370 88 376T43 385H25V408Q25 431 27 431L37 432Q47 433 65 434T102 436Q119 437 138 438T167 441T178 442H181V402Q181 364 182 364T187 369T199 384T218 402T247 421T285 437Q305 442 336 442Q450 438 463 329Q464 322 464 190V104Q464 66 466 59T477 49Q498 46 526 46H542V0H534L510 1Q487 2 460 2T422 3Q319 3 310 0H302V46H318Q379 46 379 62Q380 64 380 200Q379 335 378 343Q372 371 358 385T334 402T308 404Q263 404 229 370Q202 343 195 315T187 232V168V108Q187 78 188 68T191 55T200 49Q221 46 249 46H265V0H257L234 1Q210 2 183 2T145 3Q42 3 33 0H25V46H41Z"/>
          <path id="prefigure-skel-parallelogram-area-MJX-4-TEX-N-2061" d=""/>
          <path id="prefigure-skel-parallelogram-area-MJX-4-TEX-N-28" d="M94 250Q94 319 104 381T127 488T164 576T202 643T244 695T277 729T302 750H315H319Q333 750 333 741Q333 738 316 720T275 667T226 581T184 443T167 250T184 58T225 -81T274 -167T316 -220T333 -241Q333 -250 318 -250H315H302L274 -226Q180 -141 137 -14T94 250Z"/>
          <path id="prefigure-skel-parallelogram-area-MJX-4-TEX-I-1D703" d="M35 200Q35 302 74 415T180 610T319 704Q320 704 327 704T339 705Q393 701 423 656Q462 596 462 495Q462 380 417 261T302 66T168 -10H161Q125 -10 99 10T60 63T41 130T35 200ZM383 566Q383 668 330 668Q294 668 260 623T204 521T170 421T157 371Q206 370 254 370L351 371Q352 372 359 404T375 484T383 566ZM113 132Q113 26 166 26Q181 26 198 36T239 74T287 161T335 307L340 324H145Q145 321 136 286T120 208T113 132Z"/>
          <path id="prefigure-skel-parallelogram-area-MJX-4-TEX-N-29" d="M60 749L64 750Q69 750 74 750H86L114 726Q208 641 251 514T294 250Q294 182 284 119T261 12T224 -76T186 -143T145 -194T113 -227T90 -246Q87 -249 86 -250H74Q66 -250 63 -250T58 -247T55 -238Q56 -237 66 -225Q221 -64 221 250T66 725Q56 737 55 738Q55 746 60 749Z"/>
        </defs>
        <g stroke="currentColor" fill="currentColor" stroke-width="0" transform="scale(1,-1)">
          <g data-mml-node="math" data-semantic-type="infixop" data-semantic-role="implicit" data-semantic-annotation="clearspeak:unit" data-semantic-id="13" data-semantic-children="8,11" data-semantic-content="12" data-semantic-speech="StartMetric bold u EndMetric sine left parenthesis theta right parenthesis">
            <g data-mml-node="mrow" data-semantic-type="fenced" data-semantic-role="metric" data-semantic-id="8" data-semantic-children="1" data-semantic-content="0,2" data-semantic-parent="13" data-semantic-speech="StartMetric bold u EndMetric">
              <g data-mml-node="mo" data-semantic-type="fence" data-semantic-role="metric" data-semantic-id="0" data-semantic-parent="8" data-semantic-attributes="texclass:ORD" data-semantic-operator="fenced" data-semantic-speech="parallel to">
                <use data-c="2225" xlink:href="#prefigure-skel-parallelogram-area-MJX-4-TEX-N-2225"/>
              </g>
              <g data-mml-node="TeXAtom" data-mjx-texclass="ORD" transform="translate(500,0)">
                <g data-mml-node="mi" data-semantic-type="identifier" data-semantic-role="latinletter" data-semantic-font="bold" data-semantic-annotation="clearspeak:simple" data-semantic-id="1" data-semantic-parent="8" data-semantic-attributes="texclass:ORD" data-semantic-speech="bold u">
                  <use data-c="1D42E" xlink:href="#prefigure-skel-parallelogram-area-MJX-4-TEX-B-1D42E"/>
                </g>
              </g>
              <g data-mml-node="mo" data-semantic-type="fence" data-semantic-role="metric" data-semantic-id="2" data-semantic-parent="8" data-semantic-attributes="texclass:ORD" data-semantic-operator="fenced" data-semantic-speech="parallel to" transform="translate(1139,0)">
                <use data-c="2225" xlink:href="#prefigure-skel-parallelogram-area-MJX-4-TEX-N-2225"/>
              </g>
            </g>
            <g data-mml-node="mo" data-semantic-type="operator" data-semantic-role="multiplication" data-semantic-id="12" data-semantic-parent="13" data-semantic-added="true" data-semantic-operator="infixop,⁢" data-semantic-speech="times" transform="translate(1639,0)">
              <use data-c="2062" xlink:href="#prefigure-skel-parallelogram-area-MJX-4-TEX-N-2062"/>
            </g>
            <g data-mml-node="mrow" data-semantic-type="appl" data-semantic-role="prefix function" data-semantic-annotation="clearspeak:simple" data-semantic-id="11" data-semantic-children="3,9" data-semantic-content="10,3" data-semantic-parent="13" data-semantic-speech="sine left parenthesis theta right parenthesis" transform="translate(1805.7,0)">
              <g data-mml-node="mi" data-semantic-type="function" data-semantic-role="prefix function" data-semantic-font="normal" data-semantic-id="3" data-semantic-parent="11" data-semantic-operator="appl" data-semantic-speech="sine">
                <use data-c="73" xlink:href="#prefigure-skel-parallelogram-area-MJX-4-TEX-N-73"/>
                <use data-c="69" xlink:href="#prefigure-skel-parallelogram-area-MJX-4-TEX-N-69" transform="translate(394,0)"/>
                <use data-c="6E" xlink:href="#prefigure-skel-parallelogram-area-MJX-4-TEX-N-6E" transform="translate(672,0)"/>
              </g>
              <g data-mml-node="mo" data-semantic-type="punctuation" data-semantic-role="application" data-semantic-id="10" data-semantic-parent="11" data-semantic-attributes="texclass:NONE" data-semantic-operator="appl" data-semantic-speech="of" transform="translate(1228,0)">
                <use data-c="2061" xlink:href="#prefigure-skel-parallelogram-area-MJX-4-TEX-N-2061"/>
              </g>
              <g data-mml-node="mrow" data-semantic-type="fenced" data-semantic-role="leftright" data-semantic-id="9" data-semantic-children="6" data-semantic-content="5,7" data-semantic-parent="11" data-semantic-speech="left parenthesis theta right parenthesis" transform="translate(1228,0)">
                <g data-mml-node="mo" data-semantic-type="fence" data-semantic-role="open" data-semantic-id="5" data-semantic-parent="9" data-semantic-operator="fenced" data-semantic-speech="left parenthesis">
                  <use data-c="28" xlink:href="#prefigure-skel-parallelogram-area-MJX-4-TEX-N-28"/>
                </g>
                <g data-mml-node="mi" data-semantic-type="identifier" data-semantic-role="greekletter" data-semantic-font="italic" data-semantic-annotation="clearspeak:simple" data-semantic-id="6" data-semantic-parent="9" data-semantic-speech="theta" transform="translate(389,0)">
                  <use data-c="1D703" xlink:href="#prefigure-skel-parallelogram-area-MJX-4-TEX-I-1D703"/>
                </g>
                <g data-mml-node="mo" data-semantic-type="fence" data-semantic-role="close" data-semantic-id="7" data-semantic-parent="9" data-semantic-operator="fenced" data-semantic-speech="right parenthesis" transform="translate(858,0)">
                  <use data-c="29" xlink:href="#prefigure-skel-parallelogram-area-MJX-4-TEX-N-29"/>
                </g>
              </g>
            </g>
          </g>
        </g>
      </svg>
    </g>
  </g>
  <g id="prefigure-skel-parallelogram-area-par-angle-theta">
    <g transform="translate(55.4,168.0) translate(0.0,-12.9)">
      <g id="prefigure-skel-parallelogram-area-__g-3">
        <svg xmlns:xlink="http://www.w3.org/1999/xlink" style="vertical-align: -0.184px" width="8.488px" height="12.944px" role="img" focusable="false" viewBox="0 -705 469 715" x="0.0" y="0.0">
          <defs>
            <path id="prefigure-skel-parallelogram-area-MJX-5-TEX-I-1D703" d="M35 200Q35 302 74 415T180 610T319 704Q320 704 327 704T339 705Q393 701 423 656Q462 596 462 495Q462 380 417 261T302 66T168 -10H161Q125 -10 99 10T60 63T41 130T35 200ZM383 566Q383 668 330 668Q294 668 260 623T204 521T170 421T157 371Q206 370 254 370L351 371Q352 372 359 404T375 484T383 566ZM113 132Q113 26 166 26Q181 26 198 36T239 74T287 161T335 307L340 324H145Q145 321 136 286T120 208T113 132Z"/>
          </defs>
          <g stroke="currentColor" fill="currentColor" stroke-width="0" transform="scale(1,-1)">
            <g data-mml-node="math">
              <g data-mml-node="mi" data-semantic-type="identifier" data-semantic-role="greekletter" data-semantic-font="italic" data-semantic-annotation="clearspeak:simple" data-semantic-id="0" data-semantic-speech="theta">
                <use data-c="1D703" xlink:href="#prefigure-skel-parallelogram-area-MJX-5-TEX-I-1D703"/>
              </g>
            </g>
          </g>
        </svg>
      </g>
    </g>
    <path stroke="black" stroke-width="2" fill="none" d="M 44.9 164.8 L 45.1 164.9 L 45.2 165.0 L 45.4 165.1 L 45.6 165.2 L 45.7 165.4 L 45.9 165.5 L 46.0 165.6 L 46.2 165.7 L 46.3 165.8 L 46.5 166.0 L 46.6 166.1 L 46.8 166.2 L 46.9 166.3 L 47.1 166.5 L 47.2 166.6 L 47.4 166.7 L 47.5 166.9 L 47.7 167.0 L 47.8 167.1 L 47.9 167.3 L 48.1 167.4 L 48.2 167.6 L 48.4 167.7 L 48.5 167.8 L 48.6 168.0 L 48.8 168.1 L 48.9 168.3 L 49.0 168.4 L 49.1 168.6 L 49.3 168.7 L 49.4 168.9 L 49.5 169.0 L 49.6 169.2 L 49.8 169.3 L 49.9 169.5 L 50.0 169.7 L 50.1 169.8 L 50.2 170.0 L 50.3 170.1 L 50.4 170.3 L 50.5 170.5 L 50.7 170.6 L 50.8 170.8 L 50.9 171.0 L 51.0 171.1 L 51.1 171.3 L 51.2 171.5 L 51.3 171.6 L 51.4 171.8 L 51.4 172.0 L 51.5 172.2 L 51.6 172.3 L 51.7 172.5 L 51.8 172.7 L 51.9 172.9 L 52.0 173.0 L 52.1 173.2 L 52.1 173.4 L 52.2 173.6 L 52.3 173.8 L 52.4 173.9 L 52.4 174.1 L 52.5 174.3 L 52.6 174.5 L 52.6 174.7 L 52.7 174.9 L 52.8 175.1 L 52.8 175.2 L 52.9 175.4 L 52.9 175.6 L 53.0 175.8 L 53.1 176.0 L 53.1 176.2 L 53.2 176.4 L 53.2 176.6 L 53.3 176.8 L 53.3 176.9 L 53.3 177.1 L 53.4 177.3 L 53.4 177.5 L 53.5 177.7 L 53.5 177.9 L 53.5 178.1 L 53.6 178.3 L 53.6 178.5 L 53.6 178.7 L 53.6 178.9 L 53.7 179.1 L 53.7 179.3 L 53.7 179.5 L 53.7 179.7 L 53.8 179.9 L 53.8 180.1 L 53.8 180.2 L 53.8 180.4 L 53.8 180.6 L 53.8 180.8 L 53.8 181.0 L 53.8 181.2 L 53.8 181.4"/>
  </g>
</svg>
